<?xml version="1.0" ?>
<svg xmlns="http://www.w3.org/2000/svg" width="1600" height="900">
  <g>
    <text x="800" y="109.5" text-anchor="middle" font-size="39" font-family="TCM_____" fill="black">Top 10 Causes of Death in Males by Age-Group (Sri Lanka)</text>
    <text x="1509" y="122.5" text-anchor="end" font-size="91" font-family="consola" fill="#f00">2001</text>
  </g>
  <g>
    <g>
      <text x="162" y="176" text-anchor="middle" dominant-baseline="middle" font-size="19.5" font-family="TCM_____" fill="#444">1-4</text>
      <g>
        <text x="86.95238095238096" y="230.75" text-anchor="middle" dominant-baseline="middle" font-size="19.5" font-family="TCM_____" fill="#444">Top</text>
        <circle cx="162" cy="230.75" r="7.632168761236874" stroke="#000" stroke-width="5" fill="#000" fill-opacity="1"/>
      </g>
      <g>
        <text x="86.95238095238096" y="285.5" text-anchor="middle" dominant-baseline="middle" font-size="19.5" font-family="TCM_____" fill="#444">2nd</text>
        <circle cx="162" cy="285.5" r="6.519202405202649" stroke="#ccc" stroke-width="5" fill="#ccc" fill-opacity="1"/>
      </g>
      <g>
        <text x="86.95238095238096" y="340.25" text-anchor="middle" dominant-baseline="middle" font-size="19.5" font-family="TCM_____" fill="#444">3rd</text>
        <circle cx="162" cy="340.25" r="5.024937810560445" stroke="#f00" stroke-width="5" fill="#f00" fill-opacity="1"/>
      </g>
      <g>
        <text x="86.95238095238096" y="395.0" text-anchor="middle" dominant-baseline="middle" font-size="19.5" font-family="TCM_____" fill="#444">4th</text>
        <circle cx="162" cy="395.0" r="4.527692569068709" stroke="#080" stroke-width="5" fill="#080" fill-opacity="1"/>
      </g>
      <g>
        <text x="86.95238095238096" y="449.75" text-anchor="middle" dominant-baseline="middle" font-size="19.5" font-family="TCM_____" fill="#444">5th</text>
        <circle cx="162" cy="449.75" r="4.444097208657794" stroke="#888" stroke-width="5" fill="#888" fill-opacity="1"/>
      </g>
      <g>
        <text x="86.95238095238096" y="504.5" text-anchor="middle" dominant-baseline="middle" font-size="19.5" font-family="TCM_____" fill="#444">6th</text>
        <circle cx="162" cy="504.5" r="4.2130748865881795" stroke="#08f" stroke-width="5" fill="#08f" fill-opacity="1"/>
      </g>
      <g>
        <text x="86.95238095238096" y="559.25" text-anchor="middle" dominant-baseline="middle" font-size="19.5" font-family="TCM_____" fill="#444">7th</text>
        <circle cx="162" cy="559.25" r="3.640054944640259" stroke="#f80" stroke-width="5" fill="#f80" fill-opacity="1"/>
      </g>
      <g>
        <text x="86.95238095238096" y="614.0" text-anchor="middle" dominant-baseline="middle" font-size="19.5" font-family="TCM_____" fill="#444">8th</text>
        <circle cx="162" cy="614.0" r="3.24037034920393" stroke="#00f" stroke-width="5" fill="#00f" fill-opacity="1"/>
        <text x="162" y="614.0" text-anchor="middle" dominant-baseline="middle" font-size="19.5" font-family="TCM_____" fill="black">Birth Defects</text>
      </g>
      <g>
        <text x="86.95238095238096" y="668.75" text-anchor="middle" dominant-baseline="middle" font-size="19.5" font-family="TCM_____" fill="#444">9th</text>
        <circle cx="162" cy="668.75" r="2.3979157616563596" stroke="#8f0" stroke-width="5" fill="#8f0" fill-opacity="1"/>
      </g>
      <g>
        <text x="86.95238095238096" y="723.5" text-anchor="middle" dominant-baseline="middle" font-size="19.5" font-family="TCM_____" fill="#444">10th</text>
        <circle cx="162" cy="723.5" r="2.29128784747792" stroke="#fc0" stroke-width="5" fill="#fc0" fill-opacity="1"/>
      </g>
      <g>
        <text x="86.95238095238096" y="778.25" text-anchor="middle" dominant-baseline="middle" font-size="19.5" font-family="TCM_____" fill="#444">All Others</text>
        <circle cx="162" cy="778.25" r="1.9364916731037085" stroke="#ccc" stroke-width="5" fill="#ccc" fill-opacity="1"/>
      </g>
    </g>
    <g>
      <text x="237" y="176" text-anchor="middle" dominant-baseline="middle" font-size="19.5" font-family="TCM_____" fill="#444">5-9</text>
      <g>
        <line x1="162" y1="230.75" x2="237" y2="230.75" stroke="#000" stroke-width="3"/>
        <circle cx="237" cy="230.75" r="6.020797289396148" stroke="#000" stroke-width="5" fill="#000" fill-opacity="1"/>
      </g>
      <g>
        <line x1="162" y1="285.5" x2="237" y2="285.5" stroke="#ccc" stroke-width="3"/>
        <circle cx="237" cy="285.5" r="3.840572873934304" stroke="#ccc" stroke-width="5" fill="#ccc" fill-opacity="1"/>
      </g>
      <g>
        <line x1="162" y1="340.25" x2="237" y2="340.25" stroke="#f00" stroke-width="3"/>
        <circle cx="237" cy="340.25" r="3.427827300200522" stroke="#f00" stroke-width="5" fill="#f00" fill-opacity="1"/>
      </g>
      <g>
        <line x1="162" y1="504.5" x2="237" y2="395.0" stroke="#08f" stroke-width="3"/>
        <circle cx="237" cy="395.0" r="3.278719262151" stroke="#08f" stroke-width="5" fill="#08f" fill-opacity="1"/>
      </g>
      <g>
        <line x1="162" y1="559.25" x2="237" y2="449.75" stroke="#f80" stroke-width="3"/>
        <circle cx="237" cy="449.75" r="2.9154759474226504" stroke="#f80" stroke-width="5" fill="#f80" fill-opacity="1"/>
      </g>
      <g>
        <line x1="162" y1="395.0" x2="237" y2="504.5" stroke="#080" stroke-width="3"/>
        <circle cx="237" cy="504.5" r="2.8722813232690143" stroke="#080" stroke-width="5" fill="#080" fill-opacity="1"/>
      </g>
      <g>
        <line x1="162" y1="614.0" x2="237" y2="559.25" stroke="#00f" stroke-width="3"/>
        <circle cx="237" cy="559.25" r="2.29128784747792" stroke="#00f" stroke-width="5" fill="#00f" fill-opacity="1"/>
      </g>
      <g>
        <line x1="162" y1="449.75" x2="237" y2="614.0" stroke="#888" stroke-width="3"/>
        <circle cx="237" cy="614.0" r="2.0615528128088303" stroke="#888" stroke-width="5" fill="#888" fill-opacity="1"/>
      </g>
      <g>
        <line x1="162" y1="668.75" x2="237" y2="668.75" stroke="#8f0" stroke-width="3"/>
        <circle cx="237" cy="668.75" r="1.5811388300841898" stroke="#8f0" stroke-width="5" fill="#8f0" fill-opacity="1"/>
      </g>
      <g>
        <line x1="162" y1="723.5" x2="237" y2="723.5" stroke="#fc0" stroke-width="3"/>
        <circle cx="237" cy="723.5" r="1.3228756555322954" stroke="#fc0" stroke-width="5" fill="#fc0" fill-opacity="1"/>
      </g>
      <g>
        <circle cx="237" cy="778.25" r="2.0615528128088303" stroke="#ccc" stroke-width="5" fill="#ccc" fill-opacity="1"/>
      </g>
    </g>
    <g>
      <text x="312" y="176" text-anchor="middle" dominant-baseline="middle" font-size="19.5" font-family="TCM_____" fill="#444">15-19</text>
      <g>
        <line x1="237" y1="230.75" x2="312" y2="230.75" stroke="#000" stroke-width="3"/>
        <circle cx="312" cy="230.75" r="13.674794331177344" stroke="#000" stroke-width="5" fill="#000" fill-opacity="1"/>
      </g>
      <g>
        <line x1="237" y1="285.5" x2="312" y2="285.5" stroke="#ccc" stroke-width="3"/>
        <circle cx="312" cy="285.5" r="4.636809247747852" stroke="#ccc" stroke-width="5" fill="#ccc" fill-opacity="1"/>
      </g>
      <g>
        <circle cx="312" cy="340.25" r="4.153311931459037" stroke="#cccccc" stroke-width="5" fill="#cccccc" fill-opacity="1"/>
      </g>
      <g>
        <line x1="237" y1="340.25" x2="312" y2="395.0" stroke="#f00" stroke-width="3"/>
        <circle cx="312" cy="395.0" r="3.840572873934304" stroke="#f00" stroke-width="5" fill="#f00" fill-opacity="1"/>
      </g>
      <g>
        <line x1="237" y1="395.0" x2="312" y2="449.75" stroke="#08f" stroke-width="3"/>
        <circle cx="312" cy="449.75" r="3.3166247903554" stroke="#08f" stroke-width="5" fill="#08f" fill-opacity="1"/>
      </g>
      <g>
        <line x1="237" y1="614.0" x2="312" y2="504.5" stroke="#888" stroke-width="3"/>
        <circle cx="312" cy="504.5" r="3.082207001484488" stroke="#888" stroke-width="5" fill="#888" fill-opacity="1"/>
      </g>
      <g>
        <line x1="237" y1="504.5" x2="312" y2="559.25" stroke="#080" stroke-width="3"/>
        <circle cx="312" cy="559.25" r="2.8284271247461903" stroke="#080" stroke-width="5" fill="#080" fill-opacity="1"/>
      </g>
      <g>
        <line x1="237" y1="449.75" x2="312" y2="614.0" stroke="#f80" stroke-width="3"/>
        <circle cx="312" cy="614.0" r="2.3979157616563596" stroke="#f80" stroke-width="5" fill="#f80" fill-opacity="1"/>
      </g>
      <g>
        <line x1="237" y1="559.25" x2="312" y2="668.75" stroke="#00f" stroke-width="3"/>
        <circle cx="312" cy="668.75" r="1.9364916731037085" stroke="#00f" stroke-width="5" fill="#00f" fill-opacity="1"/>
      </g>
      <g>
        <line x1="237" y1="723.5" x2="312" y2="723.5" stroke="#fc0" stroke-width="3"/>
        <circle cx="312" cy="723.5" r="1.5811388300841898" stroke="#fc0" stroke-width="5" fill="#fc0" fill-opacity="1"/>
      </g>
      <g>
        <circle cx="312" cy="778.25" r="1.9364916731037085" stroke="#ccc" stroke-width="5" fill="#ccc" fill-opacity="1"/>
      </g>
    </g>
    <g>
      <text x="387" y="176" text-anchor="middle" dominant-baseline="middle" font-size="19.5" font-family="TCM_____" fill="#444">20-24</text>
      <g>
        <line x1="312" y1="230.75" x2="387" y2="230.75" stroke="#000" stroke-width="3"/>
        <circle cx="387" cy="230.75" r="21.517434791350013" stroke="#000" stroke-width="5" fill="#000" fill-opacity="1"/>
        <text x="387" y="230.75" text-anchor="middle" dominant-baseline="middle" font-size="19.5" font-family="TCM_____" fill="black">Accidents / Injuries</text>
      </g>
      <g>
        <line x1="312" y1="340.25" x2="387" y2="285.5" stroke="#cccccc" stroke-width="3"/>
        <circle cx="387" cy="285.5" r="5.220153254455275" stroke="#cccccc" stroke-width="5" fill="#cccccc" fill-opacity="1"/>
        <text x="387" y="285.5" text-anchor="middle" dominant-baseline="middle" font-size="19.5" font-family="TCM_____" fill="black">Disappearance</text>
      </g>
      <g>
        <line x1="312" y1="285.5" x2="387" y2="340.25" stroke="#ccc" stroke-width="3"/>
        <circle cx="387" cy="340.25" r="5.1478150704935" stroke="#ccc" stroke-width="5" fill="#ccc" fill-opacity="1"/>
      </g>
      <g>
        <line x1="312" y1="395.0" x2="387" y2="395.0" stroke="#f00" stroke-width="3"/>
        <circle cx="387" cy="395.0" r="4.743416490252569" stroke="#f00" stroke-width="5" fill="#f00" fill-opacity="1"/>
      </g>
      <g>
        <line x1="312" y1="559.25" x2="387" y2="449.75" stroke="#080" stroke-width="3"/>
        <circle cx="387" cy="449.75" r="3.872983346207417" stroke="#080" stroke-width="5" fill="#080" fill-opacity="1"/>
      </g>
      <g>
        <line x1="312" y1="449.75" x2="387" y2="504.5" stroke="#08f" stroke-width="3"/>
        <circle cx="387" cy="504.5" r="3.427827300200522" stroke="#08f" stroke-width="5" fill="#08f" fill-opacity="1"/>
      </g>
      <g>
        <line x1="312" y1="504.5" x2="387" y2="559.25" stroke="#888" stroke-width="3"/>
        <circle cx="387" cy="559.25" r="3.082207001484488" stroke="#888" stroke-width="5" fill="#888" fill-opacity="1"/>
      </g>
      <g>
        <line x1="312" y1="614.0" x2="387" y2="614.0" stroke="#f80" stroke-width="3"/>
        <circle cx="387" cy="614.0" r="2.7386127875258306" stroke="#f80" stroke-width="5" fill="#f80" fill-opacity="1"/>
      </g>
      <g>
        <line x1="312" y1="723.5" x2="387" y2="668.75" stroke="#fc0" stroke-width="3"/>
        <circle cx="387" cy="668.75" r="2.449489742783178" stroke="#fc0" stroke-width="5" fill="#fc0" fill-opacity="1"/>
      </g>
      <g>
        <line x1="237" y1="668.75" x2="387" y2="723.5" stroke="#8f0" stroke-width="3"/>
        <circle cx="387" cy="723.5" r="2.345207879911715" stroke="#8f0" stroke-width="5" fill="#8f0" fill-opacity="1"/>
      </g>
      <g>
        <circle cx="387" cy="778.25" r="3.7416573867739413" stroke="#ccc" stroke-width="5" fill="#ccc" fill-opacity="1"/>
      </g>
    </g>
    <g>
      <text x="462" y="176" text-anchor="middle" dominant-baseline="middle" font-size="19.5" font-family="TCM_____" fill="#444">25-29</text>
      <g>
        <line x1="387" y1="230.75" x2="462" y2="230.75" stroke="#000" stroke-width="3"/>
        <circle cx="462" cy="230.75" r="20.37154878746336" stroke="#000" stroke-width="5" fill="#000" fill-opacity="1"/>
      </g>
      <g>
        <line x1="387" y1="395.0" x2="462" y2="285.5" stroke="#f00" stroke-width="3"/>
        <circle cx="462" cy="285.5" r="5.338539126015656" stroke="#f00" stroke-width="5" fill="#f00" fill-opacity="1"/>
      </g>
      <g>
        <line x1="387" y1="340.25" x2="462" y2="340.25" stroke="#ccc" stroke-width="3"/>
        <circle cx="462" cy="340.25" r="5.049752469181039" stroke="#ccc" stroke-width="5" fill="#ccc" fill-opacity="1"/>
      </g>
      <g>
        <line x1="387" y1="285.5" x2="462" y2="395.0" stroke="#cccccc" stroke-width="3"/>
        <circle cx="462" cy="395.0" r="4.847679857416329" stroke="#cccccc" stroke-width="5" fill="#cccccc" fill-opacity="1"/>
      </g>
      <g>
        <line x1="387" y1="723.5" x2="462" y2="449.75" stroke="#8f0" stroke-width="3"/>
        <circle cx="462" cy="449.75" r="4.031128874149275" stroke="#8f0" stroke-width="5" fill="#8f0" fill-opacity="1"/>
      </g>
      <g>
        <line x1="387" y1="504.5" x2="462" y2="504.5" stroke="#08f" stroke-width="3"/>
        <circle cx="462" cy="504.5" r="3.3541019662496847" stroke="#08f" stroke-width="5" fill="#08f" fill-opacity="1"/>
      </g>
      <g>
        <line x1="387" y1="559.25" x2="462" y2="559.25" stroke="#888" stroke-width="3"/>
        <circle cx="462" cy="559.25" r="3.3541019662496847" stroke="#888" stroke-width="5" fill="#888" fill-opacity="1"/>
      </g>
      <g>
        <line x1="387" y1="449.75" x2="462" y2="614.0" stroke="#080" stroke-width="3"/>
        <circle cx="462" cy="614.0" r="3.278719262151" stroke="#080" stroke-width="5" fill="#080" fill-opacity="1"/>
      </g>
      <g>
        <line x1="387" y1="614.0" x2="462" y2="668.75" stroke="#f80" stroke-width="3"/>
        <circle cx="462" cy="668.75" r="2.9154759474226504" stroke="#f80" stroke-width="5" fill="#f80" fill-opacity="1"/>
      </g>
      <g>
        <line x1="387" y1="668.75" x2="462" y2="723.5" stroke="#fc0" stroke-width="3"/>
        <circle cx="462" cy="723.5" r="2.5" stroke="#fc0" stroke-width="5" fill="#fc0" fill-opacity="1"/>
      </g>
      <g>
        <circle cx="462" cy="778.25" r="3.3541019662496847" stroke="#ccc" stroke-width="5" fill="#ccc" fill-opacity="1"/>
      </g>
    </g>
    <g>
      <text x="537" y="176" text-anchor="middle" dominant-baseline="middle" font-size="19.5" font-family="TCM_____" fill="#444">30-34</text>
      <g>
        <line x1="462" y1="230.75" x2="537" y2="230.75" stroke="#000" stroke-width="3"/>
        <circle cx="537" cy="230.75" r="17.76935564391686" stroke="#000" stroke-width="5" fill="#000" fill-opacity="1"/>
      </g>
      <g>
        <line x1="462" y1="449.75" x2="537" y2="285.5" stroke="#8f0" stroke-width="3"/>
        <circle cx="537" cy="285.5" r="7.433034373659253" stroke="#8f0" stroke-width="5" fill="#8f0" fill-opacity="1"/>
      </g>
      <g>
        <line x1="462" y1="285.5" x2="537" y2="340.25" stroke="#f00" stroke-width="3"/>
        <circle cx="537" cy="340.25" r="6.461423991660043" stroke="#f00" stroke-width="5" fill="#f00" fill-opacity="1"/>
      </g>
      <g>
        <line x1="462" y1="340.25" x2="537" y2="395.0" stroke="#ccc" stroke-width="3"/>
        <circle cx="537" cy="395.0" r="6.383572667401852" stroke="#ccc" stroke-width="5" fill="#ccc" fill-opacity="1"/>
      </g>
      <g>
        <line x1="462" y1="395.0" x2="537" y2="449.75" stroke="#cccccc" stroke-width="3"/>
        <circle cx="537" cy="449.75" r="4.769696007084728" stroke="#cccccc" stroke-width="5" fill="#cccccc" fill-opacity="1"/>
      </g>
      <g>
        <line x1="462" y1="614.0" x2="537" y2="504.5" stroke="#080" stroke-width="3"/>
        <circle cx="537" cy="504.5" r="4.6097722286464435" stroke="#080" stroke-width="5" fill="#080" fill-opacity="1"/>
      </g>
      <g>
        <line x1="462" y1="559.25" x2="537" y2="559.25" stroke="#888" stroke-width="3"/>
        <circle cx="537" cy="559.25" r="4.153311931459037" stroke="#888" stroke-width="5" fill="#888" fill-opacity="1"/>
      </g>
      <g>
        <line x1="462" y1="504.5" x2="537" y2="614.0" stroke="#08f" stroke-width="3"/>
        <circle cx="537" cy="614.0" r="3.774917217635375" stroke="#08f" stroke-width="5" fill="#08f" fill-opacity="1"/>
      </g>
      <g>
        <circle cx="537" cy="668.75" r="3.278719262151" stroke="#cccccc" stroke-width="5" fill="#cccccc" fill-opacity="1"/>
      </g>
      <g>
        <line x1="462" y1="668.75" x2="537" y2="723.5" stroke="#f80" stroke-width="3"/>
        <circle cx="537" cy="723.5" r="3.24037034920393" stroke="#f80" stroke-width="5" fill="#f80" fill-opacity="1"/>
      </g>
      <g>
        <circle cx="537" cy="778.25" r="3.7080992435478315" stroke="#ccc" stroke-width="5" fill="#ccc" fill-opacity="1"/>
      </g>
    </g>
    <g>
      <text x="612" y="176" text-anchor="middle" dominant-baseline="middle" font-size="19.5" font-family="TCM_____" fill="#444">35-39</text>
      <g>
        <line x1="537" y1="230.75" x2="612" y2="230.75" stroke="#000" stroke-width="3"/>
        <circle cx="612" cy="230.75" r="17.109938632268673" stroke="#000" stroke-width="5" fill="#000" fill-opacity="1"/>
      </g>
      <g>
        <line x1="537" y1="285.5" x2="612" y2="285.5" stroke="#8f0" stroke-width="3"/>
        <circle cx="612" cy="285.5" r="10.380269746013347" stroke="#8f0" stroke-width="5" fill="#8f0" fill-opacity="1"/>
      </g>
      <g>
        <line x1="537" y1="340.25" x2="612" y2="340.25" stroke="#f00" stroke-width="3"/>
        <circle cx="612" cy="340.25" r="8.902246907382429" stroke="#f00" stroke-width="5" fill="#f00" fill-opacity="1"/>
      </g>
      <g>
        <line x1="537" y1="395.0" x2="612" y2="395.0" stroke="#ccc" stroke-width="3"/>
        <circle cx="612" cy="395.0" r="7.697402159170326" stroke="#ccc" stroke-width="5" fill="#ccc" fill-opacity="1"/>
      </g>
      <g>
        <line x1="537" y1="559.25" x2="612" y2="449.75" stroke="#888" stroke-width="3"/>
        <circle cx="612" cy="449.75" r="5.958187643906492" stroke="#888" stroke-width="5" fill="#888" fill-opacity="1"/>
      </g>
      <g>
        <line x1="537" y1="504.5" x2="612" y2="504.5" stroke="#080" stroke-width="3"/>
        <circle cx="612" cy="504.5" r="5.916079783099616" stroke="#080" stroke-width="5" fill="#080" fill-opacity="1"/>
      </g>
      <g>
        <line x1="537" y1="668.75" x2="612" y2="559.25" stroke="#cccccc" stroke-width="3"/>
        <circle cx="612" cy="559.25" r="4.9749371855331" stroke="#cccccc" stroke-width="5" fill="#cccccc" fill-opacity="1"/>
      </g>
      <g>
        <line x1="537" y1="614.0" x2="612" y2="614.0" stroke="#08f" stroke-width="3"/>
        <circle cx="612" cy="614.0" r="4.636809247747852" stroke="#08f" stroke-width="5" fill="#08f" fill-opacity="1"/>
      </g>
      <g>
        <line x1="462" y1="723.5" x2="612" y2="668.75" stroke="#fc0" stroke-width="3"/>
        <circle cx="612" cy="668.75" r="4.123105625617661" stroke="#fc0" stroke-width="5" fill="#fc0" fill-opacity="1"/>
      </g>
      <g>
        <line x1="537" y1="449.75" x2="612" y2="723.5" stroke="#cccccc" stroke-width="3"/>
        <circle cx="612" cy="723.5" r="4.123105625617661" stroke="#cccccc" stroke-width="5" fill="#cccccc" fill-opacity="1"/>
      </g>
      <g>
        <circle cx="612" cy="778.25" r="5.07444578254611" stroke="#ccc" stroke-width="5" fill="#ccc" fill-opacity="1"/>
      </g>
    </g>
    <g>
      <text x="687" y="176" text-anchor="middle" dominant-baseline="middle" font-size="19.5" font-family="TCM_____" fill="#444">40-44</text>
      <g>
        <line x1="612" y1="230.75" x2="687" y2="230.75" stroke="#000" stroke-width="3"/>
        <circle cx="687" cy="230.75" r="15.921683328090658" stroke="#000" stroke-width="5" fill="#000" fill-opacity="1"/>
      </g>
      <g>
        <line x1="612" y1="340.25" x2="687" y2="285.5" stroke="#f00" stroke-width="3"/>
        <circle cx="687" cy="285.5" r="12.786711852544421" stroke="#f00" stroke-width="5" fill="#f00" fill-opacity="1"/>
      </g>
      <g>
        <line x1="612" y1="285.5" x2="687" y2="340.25" stroke="#8f0" stroke-width="3"/>
        <circle cx="687" cy="340.25" r="11.926860441876563" stroke="#8f0" stroke-width="5" fill="#8f0" fill-opacity="1"/>
      </g>
      <g>
        <line x1="612" y1="395.0" x2="687" y2="395.0" stroke="#ccc" stroke-width="3"/>
        <circle cx="687" cy="395.0" r="8.803408430829505" stroke="#ccc" stroke-width="5" fill="#ccc" fill-opacity="1"/>
      </g>
      <g>
        <line x1="612" y1="449.75" x2="687" y2="449.75" stroke="#888" stroke-width="3"/>
        <circle cx="687" cy="449.75" r="7.262919523166975" stroke="#888" stroke-width="5" fill="#888" fill-opacity="1"/>
      </g>
      <g>
        <line x1="612" y1="614.0" x2="687" y2="504.5" stroke="#08f" stroke-width="3"/>
        <circle cx="687" cy="504.5" r="6.745368781616021" stroke="#08f" stroke-width="5" fill="#08f" fill-opacity="1"/>
      </g>
      <g>
        <line x1="612" y1="504.5" x2="687" y2="559.25" stroke="#080" stroke-width="3"/>
        <circle cx="687" cy="559.25" r="6.652067347825035" stroke="#080" stroke-width="5" fill="#080" fill-opacity="1"/>
      </g>
      <g>
        <line x1="612" y1="559.25" x2="687" y2="614.0" stroke="#cccccc" stroke-width="3"/>
        <circle cx="687" cy="614.0" r="5.454356057317857" stroke="#cccccc" stroke-width="5" fill="#cccccc" fill-opacity="1"/>
      </g>
      <g>
        <line x1="612" y1="668.75" x2="687" y2="668.75" stroke="#fc0" stroke-width="3"/>
        <circle cx="687" cy="668.75" r="4.8218253804964775" stroke="#fc0" stroke-width="5" fill="#fc0" fill-opacity="1"/>
      </g>
      <g>
        <line x1="537" y1="723.5" x2="687" y2="723.5" stroke="#f80" stroke-width="3"/>
        <circle cx="687" cy="723.5" r="4.636809247747852" stroke="#f80" stroke-width="5" fill="#f80" fill-opacity="1"/>
      </g>
      <g>
        <circle cx="687" cy="778.25" r="4.847679857416329" stroke="#ccc" stroke-width="5" fill="#ccc" fill-opacity="1"/>
      </g>
    </g>
    <g>
      <text x="762" y="176" text-anchor="middle" dominant-baseline="middle" font-size="19.5" font-family="TCM_____" fill="#444">45-49</text>
      <g>
        <line x1="687" y1="230.75" x2="762" y2="230.75" stroke="#000" stroke-width="3"/>
        <circle cx="762" cy="230.75" r="15.0996688705415" stroke="#000" stroke-width="5" fill="#000" fill-opacity="1"/>
      </g>
      <g>
        <line x1="687" y1="285.5" x2="762" y2="285.5" stroke="#f00" stroke-width="3"/>
        <circle cx="762" cy="285.5" r="14.713938969562161" stroke="#f00" stroke-width="5" fill="#f00" fill-opacity="1"/>
      </g>
      <g>
        <line x1="687" y1="340.25" x2="762" y2="340.25" stroke="#8f0" stroke-width="3"/>
        <circle cx="762" cy="340.25" r="12.589678312014172" stroke="#8f0" stroke-width="5" fill="#8f0" fill-opacity="1"/>
      </g>
      <g>
        <line x1="687" y1="395.0" x2="762" y2="395.0" stroke="#ccc" stroke-width="3"/>
        <circle cx="762" cy="395.0" r="9.565563234854496" stroke="#ccc" stroke-width="5" fill="#ccc" fill-opacity="1"/>
      </g>
      <g>
        <line x1="687" y1="504.5" x2="762" y2="449.75" stroke="#08f" stroke-width="3"/>
        <circle cx="762" cy="449.75" r="8.411301920630361" stroke="#08f" stroke-width="5" fill="#08f" fill-opacity="1"/>
      </g>
      <g>
        <line x1="687" y1="449.75" x2="762" y2="504.5" stroke="#888" stroke-width="3"/>
        <circle cx="762" cy="504.5" r="7.874007874011811" stroke="#888" stroke-width="5" fill="#888" fill-opacity="1"/>
      </g>
      <g>
        <line x1="687" y1="559.25" x2="762" y2="559.25" stroke="#080" stroke-width="3"/>
        <circle cx="762" cy="559.25" r="6.819090848492928" stroke="#080" stroke-width="5" fill="#080" fill-opacity="1"/>
      </g>
      <g>
        <line x1="687" y1="668.75" x2="762" y2="614.0" stroke="#fc0" stroke-width="3"/>
        <circle cx="762" cy="614.0" r="5.787918451395113" stroke="#fc0" stroke-width="5" fill="#fc0" fill-opacity="1"/>
      </g>
      <g>
        <line x1="687" y1="614.0" x2="762" y2="668.75" stroke="#cccccc" stroke-width="3"/>
        <circle cx="762" cy="668.75" r="5.5677643628300215" stroke="#cccccc" stroke-width="5" fill="#cccccc" fill-opacity="1"/>
        <text x="762" y="668.75" text-anchor="middle" dominant-baseline="middle" font-size="19.5" font-family="TCM_____" fill="black">Mental</text>
      </g>
      <g>
        <line x1="687" y1="723.5" x2="762" y2="723.5" stroke="#f80" stroke-width="3"/>
        <circle cx="762" cy="723.5" r="4.873397172404482" stroke="#f80" stroke-width="5" fill="#f80" fill-opacity="1"/>
      </g>
      <g>
        <circle cx="762" cy="778.25" r="6.0" stroke="#ccc" stroke-width="5" fill="#ccc" fill-opacity="1"/>
      </g>
    </g>
    <g>
      <text x="837" y="176" text-anchor="middle" dominant-baseline="middle" font-size="19.5" font-family="TCM_____" fill="#444">50-54</text>
      <g>
        <line x1="762" y1="285.5" x2="837" y2="230.75" stroke="#f00" stroke-width="3"/>
        <circle cx="837" cy="230.75" r="19.183326093250876" stroke="#f00" stroke-width="5" fill="#f00" fill-opacity="1"/>
      </g>
      <g>
        <line x1="762" y1="230.75" x2="837" y2="285.5" stroke="#000" stroke-width="3"/>
        <circle cx="837" cy="285.5" r="13.991068579633222" stroke="#000" stroke-width="5" fill="#000" fill-opacity="1"/>
      </g>
      <g>
        <line x1="762" y1="340.25" x2="837" y2="340.25" stroke="#8f0" stroke-width="3"/>
        <circle cx="837" cy="340.25" r="13.133925536563698" stroke="#8f0" stroke-width="5" fill="#8f0" fill-opacity="1"/>
        <text x="837" y="340.25" text-anchor="middle" dominant-baseline="middle" font-size="19.5" font-family="TCM_____" fill="black">Digestive</text>
      </g>
      <g>
        <line x1="762" y1="395.0" x2="837" y2="395.0" stroke="#ccc" stroke-width="3"/>
        <circle cx="837" cy="395.0" r="11.800423721205947" stroke="#ccc" stroke-width="5" fill="#ccc" fill-opacity="1"/>
      </g>
      <g>
        <line x1="762" y1="449.75" x2="837" y2="449.75" stroke="#08f" stroke-width="3"/>
        <circle cx="837" cy="449.75" r="11.090536506409418" stroke="#08f" stroke-width="5" fill="#08f" fill-opacity="1"/>
      </g>
      <g>
        <line x1="762" y1="504.5" x2="837" y2="504.5" stroke="#888" stroke-width="3"/>
        <circle cx="837" cy="504.5" r="9.987492177719089" stroke="#888" stroke-width="5" fill="#888" fill-opacity="1"/>
      </g>
      <g>
        <line x1="762" y1="559.25" x2="837" y2="559.25" stroke="#080" stroke-width="3"/>
        <circle cx="837" cy="559.25" r="8.381527307120106" stroke="#080" stroke-width="5" fill="#080" fill-opacity="1"/>
        <text x="837" y="559.25" text-anchor="middle" dominant-baseline="middle" font-size="19.5" font-family="TCM_____" fill="black">Infectious</text>
      </g>
      <g>
        <line x1="762" y1="723.5" x2="837" y2="614.0" stroke="#f80" stroke-width="3"/>
        <circle cx="837" cy="614.0" r="6.304760106459246" stroke="#f80" stroke-width="5" fill="#f80" fill-opacity="1"/>
      </g>
      <g>
        <line x1="762" y1="614.0" x2="837" y2="668.75" stroke="#fc0" stroke-width="3"/>
        <circle cx="837" cy="668.75" r="6.224949798994366" stroke="#fc0" stroke-width="5" fill="#fc0" fill-opacity="1"/>
      </g>
      <g>
        <circle cx="837" cy="723.5" r="5.852349955359813" stroke="#f08" stroke-width="5" fill="#f08" fill-opacity="1"/>
      </g>
      <g>
        <circle cx="837" cy="778.25" r="6.461423991660043" stroke="#ccc" stroke-width="5" fill="#ccc" fill-opacity="1"/>
      </g>
    </g>
    <g>
      <text x="912" y="176" text-anchor="middle" dominant-baseline="middle" font-size="19.5" font-family="TCM_____" fill="#444">55-59</text>
      <g>
        <line x1="837" y1="230.75" x2="912" y2="230.75" stroke="#f00" stroke-width="3"/>
        <circle cx="912" cy="230.75" r="20.22992832414391" stroke="#f00" stroke-width="5" fill="#f00" fill-opacity="1"/>
      </g>
      <g>
        <line x1="837" y1="285.5" x2="912" y2="285.5" stroke="#000" stroke-width="3"/>
        <circle cx="912" cy="285.5" r="12.010412149464313" stroke="#000" stroke-width="5" fill="#000" fill-opacity="1"/>
      </g>
      <g>
        <line x1="837" y1="395.0" x2="912" y2="340.25" stroke="#ccc" stroke-width="3"/>
        <circle cx="912" cy="340.25" r="12.0" stroke="#ccc" stroke-width="5" fill="#ccc" fill-opacity="1"/>
      </g>
      <g>
        <line x1="837" y1="340.25" x2="912" y2="395.0" stroke="#8f0" stroke-width="3"/>
        <circle cx="912" cy="395.0" r="11.346805717910216" stroke="#8f0" stroke-width="5" fill="#8f0" fill-opacity="1"/>
      </g>
      <g>
        <line x1="837" y1="449.75" x2="912" y2="449.75" stroke="#08f" stroke-width="3"/>
        <circle cx="912" cy="449.75" r="11.180339887498949" stroke="#08f" stroke-width="5" fill="#08f" fill-opacity="1"/>
      </g>
      <g>
        <line x1="837" y1="504.5" x2="912" y2="504.5" stroke="#888" stroke-width="3"/>
        <circle cx="912" cy="504.5" r="11.146748404803978" stroke="#888" stroke-width="5" fill="#888" fill-opacity="1"/>
      </g>
      <g>
        <line x1="837" y1="559.25" x2="912" y2="559.25" stroke="#080" stroke-width="3"/>
        <circle cx="912" cy="559.25" r="7.5" stroke="#080" stroke-width="5" fill="#080" fill-opacity="1"/>
      </g>
      <g>
        <line x1="837" y1="614.0" x2="912" y2="614.0" stroke="#f80" stroke-width="3"/>
        <circle cx="912" cy="614.0" r="7.466592261534039" stroke="#f80" stroke-width="5" fill="#f80" fill-opacity="1"/>
      </g>
      <g>
        <line x1="837" y1="723.5" x2="912" y2="668.75" stroke="#f08" stroke-width="3"/>
        <circle cx="912" cy="668.75" r="5.916079783099616" stroke="#f08" stroke-width="5" fill="#f08" fill-opacity="1"/>
      </g>
      <g>
        <line x1="837" y1="668.75" x2="912" y2="723.5" stroke="#fc0" stroke-width="3"/>
        <circle cx="912" cy="723.5" r="5.916079783099616" stroke="#fc0" stroke-width="5" fill="#fc0" fill-opacity="1"/>
      </g>
      <g>
        <circle cx="912" cy="778.25" r="6.020797289396148" stroke="#ccc" stroke-width="5" fill="#ccc" fill-opacity="1"/>
      </g>
    </g>
    <g>
      <text x="987" y="176" text-anchor="middle" dominant-baseline="middle" font-size="19.5" font-family="TCM_____" fill="#444">60-64</text>
      <g>
        <line x1="912" y1="230.75" x2="987" y2="230.75" stroke="#f00" stroke-width="3"/>
        <circle cx="987" cy="230.75" r="21.639085008382402" stroke="#f00" stroke-width="5" fill="#f00" fill-opacity="1"/>
      </g>
      <g>
        <line x1="912" y1="340.25" x2="987" y2="285.5" stroke="#ccc" stroke-width="3"/>
        <circle cx="987" cy="285.5" r="14.150971698084906" stroke="#ccc" stroke-width="5" fill="#ccc" fill-opacity="1"/>
      </g>
      <g>
        <line x1="912" y1="449.75" x2="987" y2="340.25" stroke="#08f" stroke-width="3"/>
        <circle cx="987" cy="340.25" r="12.227019260637483" stroke="#08f" stroke-width="5" fill="#08f" fill-opacity="1"/>
      </g>
      <g>
        <line x1="912" y1="504.5" x2="987" y2="395.0" stroke="#888" stroke-width="3"/>
        <circle cx="987" cy="395.0" r="12.031209415515965" stroke="#888" stroke-width="5" fill="#888" fill-opacity="1"/>
      </g>
      <g>
        <line x1="912" y1="285.5" x2="987" y2="449.75" stroke="#000" stroke-width="3"/>
        <circle cx="987" cy="449.75" r="10.111874208078342" stroke="#000" stroke-width="5" fill="#000" fill-opacity="1"/>
      </g>
      <g>
        <line x1="912" y1="395.0" x2="987" y2="504.5" stroke="#8f0" stroke-width="3"/>
        <circle cx="987" cy="504.5" r="9.810708435174291" stroke="#8f0" stroke-width="5" fill="#8f0" fill-opacity="1"/>
      </g>
      <g>
        <line x1="912" y1="614.0" x2="987" y2="559.25" stroke="#f80" stroke-width="3"/>
        <circle cx="987" cy="559.25" r="9.394147114027968" stroke="#f80" stroke-width="5" fill="#f80" fill-opacity="1"/>
      </g>
      <g>
        <line x1="912" y1="559.25" x2="987" y2="614.0" stroke="#080" stroke-width="3"/>
        <circle cx="987" cy="614.0" r="7.516648189186454" stroke="#080" stroke-width="5" fill="#080" fill-opacity="1"/>
      </g>
      <g>
        <line x1="912" y1="668.75" x2="987" y2="668.75" stroke="#f08" stroke-width="3"/>
        <circle cx="987" cy="668.75" r="7.035623639735144" stroke="#f08" stroke-width="5" fill="#f08" fill-opacity="1"/>
      </g>
      <g>
        <line x1="912" y1="723.5" x2="987" y2="723.5" stroke="#fc0" stroke-width="3"/>
        <circle cx="987" cy="723.5" r="6.670832032063167" stroke="#fc0" stroke-width="5" fill="#fc0" fill-opacity="1"/>
      </g>
      <g>
        <circle cx="987" cy="778.25" r="5.787918451395113" stroke="#ccc" stroke-width="5" fill="#ccc" fill-opacity="1"/>
      </g>
    </g>
    <g>
      <text x="1062" y="176" text-anchor="middle" dominant-baseline="middle" font-size="19.5" font-family="TCM_____" fill="#444">65-69</text>
      <g>
        <line x1="987" y1="230.75" x2="1062" y2="230.75" stroke="#f00" stroke-width="3"/>
        <circle cx="1062" cy="230.75" r="22.787057730211682" stroke="#f00" stroke-width="5" fill="#f00" fill-opacity="1"/>
      </g>
      <g>
        <line x1="987" y1="285.5" x2="1062" y2="285.5" stroke="#ccc" stroke-width="3"/>
        <circle cx="1062" cy="285.5" r="16.9336942218761" stroke="#ccc" stroke-width="5" fill="#ccc" fill-opacity="1"/>
      </g>
      <g>
        <line x1="987" y1="395.0" x2="1062" y2="340.25" stroke="#888" stroke-width="3"/>
        <circle cx="1062" cy="340.25" r="13.6106575888162" stroke="#888" stroke-width="5" fill="#888" fill-opacity="1"/>
      </g>
      <g>
        <line x1="987" y1="340.25" x2="1062" y2="395.0" stroke="#08f" stroke-width="3"/>
        <circle cx="1062" cy="395.0" r="12.288205727444508" stroke="#08f" stroke-width="5" fill="#08f" fill-opacity="1"/>
      </g>
      <g>
        <line x1="987" y1="559.25" x2="1062" y2="449.75" stroke="#f80" stroke-width="3"/>
        <circle cx="1062" cy="449.75" r="11.715374513859981" stroke="#f80" stroke-width="5" fill="#f80" fill-opacity="1"/>
      </g>
      <g>
        <line x1="987" y1="449.75" x2="1062" y2="504.5" stroke="#000" stroke-width="3"/>
        <circle cx="1062" cy="504.5" r="9.539392014169456" stroke="#000" stroke-width="5" fill="#000" fill-opacity="1"/>
      </g>
      <g>
        <line x1="987" y1="504.5" x2="1062" y2="559.25" stroke="#8f0" stroke-width="3"/>
        <circle cx="1062" cy="559.25" r="8.351646544245034" stroke="#8f0" stroke-width="5" fill="#8f0" fill-opacity="1"/>
      </g>
      <g>
        <line x1="987" y1="614.0" x2="1062" y2="614.0" stroke="#080" stroke-width="3"/>
        <circle cx="1062" cy="614.0" r="7.433034373659253" stroke="#080" stroke-width="5" fill="#080" fill-opacity="1"/>
      </g>
      <g>
        <line x1="987" y1="668.75" x2="1062" y2="668.75" stroke="#f08" stroke-width="3"/>
        <circle cx="1062" cy="668.75" r="7.158910531638177" stroke="#f08" stroke-width="5" fill="#f08" fill-opacity="1"/>
      </g>
      <g>
        <line x1="987" y1="723.5" x2="1062" y2="723.5" stroke="#fc0" stroke-width="3"/>
        <circle cx="1062" cy="723.5" r="6.689544080129826" stroke="#fc0" stroke-width="5" fill="#fc0" fill-opacity="1"/>
      </g>
      <g>
        <circle cx="1062" cy="778.25" r="6.244997998398398" stroke="#ccc" stroke-width="5" fill="#ccc" fill-opacity="1"/>
      </g>
    </g>
    <g>
      <text x="1137" y="176" text-anchor="middle" dominant-baseline="middle" font-size="19.5" font-family="TCM_____" fill="#444">70-74</text>
      <g>
        <line x1="1062" y1="230.75" x2="1137" y2="230.75" stroke="#f00" stroke-width="3"/>
        <circle cx="1137" cy="230.75" r="23.355941428253324" stroke="#f00" stroke-width="5" fill="#f00" fill-opacity="1"/>
        <text x="1137" y="230.75" text-anchor="middle" dominant-baseline="middle" font-size="19.5" font-family="TCM_____" fill="black">Heart</text>
      </g>
      <g>
        <line x1="1062" y1="285.5" x2="1137" y2="285.5" stroke="#ccc" stroke-width="3"/>
        <circle cx="1137" cy="285.5" r="21.760055146988943" stroke="#ccc" stroke-width="5" fill="#ccc" fill-opacity="1"/>
      </g>
      <g>
        <line x1="1062" y1="340.25" x2="1137" y2="340.25" stroke="#888" stroke-width="3"/>
        <circle cx="1137" cy="340.25" r="14.38749456993816" stroke="#888" stroke-width="5" fill="#888" fill-opacity="1"/>
        <text x="1137" y="340.25" text-anchor="middle" dominant-baseline="middle" font-size="19.5" font-family="TCM_____" fill="black">Respiratory</text>
      </g>
      <g>
        <line x1="1062" y1="449.75" x2="1137" y2="395.0" stroke="#f80" stroke-width="3"/>
        <circle cx="1137" cy="395.0" r="14.062361110425233" stroke="#f80" stroke-width="5" fill="#f80" fill-opacity="1"/>
        <text x="1137" y="395.0" text-anchor="middle" dominant-baseline="middle" font-size="19.5" font-family="TCM_____" fill="black">Nervous</text>
      </g>
      <g>
        <line x1="1062" y1="395.0" x2="1137" y2="449.75" stroke="#08f" stroke-width="3"/>
        <circle cx="1137" cy="449.75" r="12.338962679253067" stroke="#08f" stroke-width="5" fill="#08f" fill-opacity="1"/>
        <text x="1137" y="449.75" text-anchor="middle" dominant-baseline="middle" font-size="19.5" font-family="TCM_____" fill="black">Cancers</text>
      </g>
      <g>
        <line x1="1062" y1="504.5" x2="1137" y2="504.5" stroke="#000" stroke-width="3"/>
        <circle cx="1137" cy="504.5" r="9.656603957913983" stroke="#000" stroke-width="5" fill="#000" fill-opacity="1"/>
      </g>
      <g>
        <line x1="1062" y1="614.0" x2="1137" y2="559.25" stroke="#080" stroke-width="3"/>
        <circle cx="1137" cy="559.25" r="7.842193570679061" stroke="#080" stroke-width="5" fill="#080" fill-opacity="1"/>
      </g>
      <g>
        <line x1="1062" y1="668.75" x2="1137" y2="614.0" stroke="#f08" stroke-width="3"/>
        <circle cx="1137" cy="614.0" r="7.3484692283495345" stroke="#f08" stroke-width="5" fill="#f08" fill-opacity="1"/>
        <text x="1137" y="614.0" text-anchor="middle" dominant-baseline="middle" font-size="19.5" font-family="TCM_____" fill="black">Metabolic</text>
      </g>
      <g>
        <line x1="1062" y1="559.25" x2="1137" y2="668.75" stroke="#8f0" stroke-width="3"/>
        <circle cx="1137" cy="668.75" r="7.211102550927978" stroke="#8f0" stroke-width="5" fill="#8f0" fill-opacity="1"/>
      </g>
      <g>
        <line x1="1062" y1="723.5" x2="1137" y2="723.5" stroke="#fc0" stroke-width="3"/>
        <circle cx="1137" cy="723.5" r="6.98212002188447" stroke="#fc0" stroke-width="5" fill="#fc0" fill-opacity="1"/>
        <text x="1137" y="723.5" text-anchor="middle" dominant-baseline="middle" font-size="19.5" font-family="TCM_____" fill="black">Genito-urinary</text>
      </g>
      <g>
        <circle cx="1137" cy="778.25" r="6.519202405202649" stroke="#ccc" stroke-width="5" fill="#ccc" fill-opacity="1"/>
      </g>
    </g>
    <g>
      <text x="1212" y="176" text-anchor="middle" dominant-baseline="middle" font-size="19.5" font-family="TCM_____" fill="#444">75-79</text>
      <g>
        <line x1="1137" y1="285.5" x2="1212" y2="230.75" stroke="#ccc" stroke-width="3"/>
        <circle cx="1212" cy="230.75" r="22.44437568746344" stroke="#ccc" stroke-width="5" fill="#ccc" fill-opacity="1"/>
      </g>
      <g>
        <line x1="1137" y1="230.75" x2="1212" y2="285.5" stroke="#f00" stroke-width="3"/>
        <circle cx="1212" cy="285.5" r="20.554804791094465" stroke="#f00" stroke-width="5" fill="#f00" fill-opacity="1"/>
      </g>
      <g>
        <line x1="1137" y1="395.0" x2="1212" y2="340.25" stroke="#f80" stroke-width="3"/>
        <circle cx="1212" cy="340.25" r="13.665650368716449" stroke="#f80" stroke-width="5" fill="#f80" fill-opacity="1"/>
      </g>
      <g>
        <line x1="1137" y1="340.25" x2="1212" y2="395.0" stroke="#888" stroke-width="3"/>
        <circle cx="1212" cy="395.0" r="12.708265027138834" stroke="#888" stroke-width="5" fill="#888" fill-opacity="1"/>
      </g>
      <g>
        <line x1="1137" y1="449.75" x2="1212" y2="449.75" stroke="#08f" stroke-width="3"/>
        <circle cx="1212" cy="449.75" r="9.848857801796104" stroke="#08f" stroke-width="5" fill="#08f" fill-opacity="1"/>
      </g>
      <g>
        <line x1="1137" y1="504.5" x2="1212" y2="504.5" stroke="#000" stroke-width="3"/>
        <circle cx="1212" cy="504.5" r="7.44983221287567" stroke="#000" stroke-width="5" fill="#000" fill-opacity="1"/>
      </g>
      <g>
        <line x1="1137" y1="614.0" x2="1212" y2="559.25" stroke="#f08" stroke-width="3"/>
        <circle cx="1212" cy="559.25" r="7.19374728496908" stroke="#f08" stroke-width="5" fill="#f08" fill-opacity="1"/>
      </g>
      <g>
        <line x1="1137" y1="559.25" x2="1212" y2="614.0" stroke="#080" stroke-width="3"/>
        <circle cx="1212" cy="614.0" r="6.224949798994366" stroke="#080" stroke-width="5" fill="#080" fill-opacity="1"/>
      </g>
      <g>
        <line x1="1137" y1="723.5" x2="1212" y2="668.75" stroke="#fc0" stroke-width="3"/>
        <circle cx="1212" cy="668.75" r="5.830951894845301" stroke="#fc0" stroke-width="5" fill="#fc0" fill-opacity="1"/>
      </g>
      <g>
        <line x1="1137" y1="668.75" x2="1212" y2="723.5" stroke="#8f0" stroke-width="3"/>
        <circle cx="1212" cy="723.5" r="5.634713834792322" stroke="#8f0" stroke-width="5" fill="#8f0" fill-opacity="1"/>
      </g>
      <g>
        <circle cx="1212" cy="778.25" r="5.852349955359813" stroke="#ccc" stroke-width="5" fill="#ccc" fill-opacity="1"/>
      </g>
    </g>
    <g>
      <text x="1287" y="176" text-anchor="middle" dominant-baseline="middle" font-size="19.5" font-family="TCM_____" fill="#444">80-84</text>
      <g>
        <line x1="1212" y1="230.75" x2="1287" y2="230.75" stroke="#ccc" stroke-width="3"/>
        <circle cx="1287" cy="230.75" r="25.079872407968907" stroke="#ccc" stroke-width="5" fill="#ccc" fill-opacity="1"/>
      </g>
      <g>
        <line x1="1212" y1="285.5" x2="1287" y2="285.5" stroke="#f00" stroke-width="3"/>
        <circle cx="1287" cy="285.5" r="17.613914953808536" stroke="#f00" stroke-width="5" fill="#f00" fill-opacity="1"/>
      </g>
      <g>
        <line x1="1212" y1="340.25" x2="1287" y2="340.25" stroke="#f80" stroke-width="3"/>
        <circle cx="1287" cy="340.25" r="12.922847983320086" stroke="#f80" stroke-width="5" fill="#f80" fill-opacity="1"/>
      </g>
      <g>
        <line x1="1212" y1="395.0" x2="1287" y2="395.0" stroke="#888" stroke-width="3"/>
        <circle cx="1287" cy="395.0" r="10.111874208078342" stroke="#888" stroke-width="5" fill="#888" fill-opacity="1"/>
      </g>
      <g>
        <line x1="1212" y1="449.75" x2="1287" y2="449.75" stroke="#08f" stroke-width="3"/>
        <circle cx="1287" cy="449.75" r="7.088723439378913" stroke="#08f" stroke-width="5" fill="#08f" fill-opacity="1"/>
      </g>
      <g>
        <line x1="1212" y1="504.5" x2="1287" y2="504.5" stroke="#000" stroke-width="3"/>
        <circle cx="1287" cy="504.5" r="6.855654600401044" stroke="#000" stroke-width="5" fill="#000" fill-opacity="1"/>
      </g>
      <g>
        <line x1="1212" y1="559.25" x2="1287" y2="559.25" stroke="#f08" stroke-width="3"/>
        <circle cx="1287" cy="559.25" r="5.979130371550699" stroke="#f08" stroke-width="5" fill="#f08" fill-opacity="1"/>
      </g>
      <g>
        <line x1="1212" y1="614.0" x2="1287" y2="614.0" stroke="#080" stroke-width="3"/>
        <circle cx="1287" cy="614.0" r="5.830951894845301" stroke="#080" stroke-width="5" fill="#080" fill-opacity="1"/>
      </g>
      <g>
        <line x1="1212" y1="668.75" x2="1287" y2="668.75" stroke="#fc0" stroke-width="3"/>
        <circle cx="1287" cy="668.75" r="5.291502622129181" stroke="#fc0" stroke-width="5" fill="#fc0" fill-opacity="1"/>
      </g>
      <g>
        <line x1="1212" y1="723.5" x2="1287" y2="723.5" stroke="#8f0" stroke-width="3"/>
        <circle cx="1287" cy="723.5" r="4.358898943540674" stroke="#8f0" stroke-width="5" fill="#8f0" fill-opacity="1"/>
      </g>
      <g>
        <circle cx="1287" cy="778.25" r="5.477225575051661" stroke="#ccc" stroke-width="5" fill="#ccc" fill-opacity="1"/>
      </g>
    </g>
    <g>
      <text x="1362" y="176" text-anchor="middle" dominant-baseline="middle" font-size="19.5" font-family="TCM_____" fill="#444">85-120</text>
      <g>
        <text x="1437.047619047619" y="230.75" text-anchor="middle" dominant-baseline="middle" font-size="19.5" font-family="TCM_____" fill="#444">Top</text>
        <line x1="1287" y1="230.75" x2="1362" y2="230.75" stroke="#ccc" stroke-width="3"/>
        <circle cx="1362" cy="230.75" r="30.28200785945344" stroke="#ccc" stroke-width="5" fill="#ccc" fill-opacity="1"/>
        <text x="1362" y="230.75" text-anchor="middle" dominant-baseline="middle" font-size="19.5" font-family="TCM_____" fill="black">Unspecified</text>
      </g>
      <g>
        <text x="1437.047619047619" y="285.5" text-anchor="middle" dominant-baseline="middle" font-size="19.5" font-family="TCM_____" fill="#444">2nd</text>
        <line x1="1287" y1="285.5" x2="1362" y2="285.5" stroke="#f00" stroke-width="3"/>
        <circle cx="1362" cy="285.5" r="14.815532390029054" stroke="#f00" stroke-width="5" fill="#f00" fill-opacity="1"/>
      </g>
      <g>
        <text x="1437.047619047619" y="340.25" text-anchor="middle" dominant-baseline="middle" font-size="19.5" font-family="TCM_____" fill="#444">3rd</text>
        <line x1="1287" y1="340.25" x2="1362" y2="340.25" stroke="#f80" stroke-width="3"/>
        <circle cx="1362" cy="340.25" r="11.757976016304847" stroke="#f80" stroke-width="5" fill="#f80" fill-opacity="1"/>
      </g>
      <g>
        <text x="1437.047619047619" y="395.0" text-anchor="middle" dominant-baseline="middle" font-size="19.5" font-family="TCM_____" fill="#444">4th</text>
        <line x1="1287" y1="395.0" x2="1362" y2="395.0" stroke="#888" stroke-width="3"/>
        <circle cx="1362" cy="395.0" r="8.930285549745875" stroke="#888" stroke-width="5" fill="#888" fill-opacity="1"/>
      </g>
      <g>
        <text x="1437.047619047619" y="449.75" text-anchor="middle" dominant-baseline="middle" font-size="19.5" font-family="TCM_____" fill="#444">5th</text>
        <line x1="1287" y1="449.75" x2="1362" y2="449.75" stroke="#08f" stroke-width="3"/>
        <circle cx="1362" cy="449.75" r="5.431390245600108" stroke="#08f" stroke-width="5" fill="#08f" fill-opacity="1"/>
      </g>
      <g>
        <text x="1437.047619047619" y="504.5" text-anchor="middle" dominant-baseline="middle" font-size="19.5" font-family="TCM_____" fill="#444">6th</text>
        <line x1="1287" y1="504.5" x2="1362" y2="504.5" stroke="#000" stroke-width="3"/>
        <circle cx="1362" cy="504.5" r="5.385164807134504" stroke="#000" stroke-width="5" fill="#000" fill-opacity="1"/>
      </g>
      <g>
        <text x="1437.047619047619" y="559.25" text-anchor="middle" dominant-baseline="middle" font-size="19.5" font-family="TCM_____" fill="#444">7th</text>
        <line x1="1287" y1="559.25" x2="1362" y2="559.25" stroke="#f08" stroke-width="3"/>
        <circle cx="1362" cy="559.25" r="4.847679857416329" stroke="#f08" stroke-width="5" fill="#f08" fill-opacity="1"/>
      </g>
      <g>
        <text x="1437.047619047619" y="614.0" text-anchor="middle" dominant-baseline="middle" font-size="19.5" font-family="TCM_____" fill="#444">8th</text>
        <line x1="1287" y1="614.0" x2="1362" y2="614.0" stroke="#080" stroke-width="3"/>
        <circle cx="1362" cy="614.0" r="4.8218253804964775" stroke="#080" stroke-width="5" fill="#080" fill-opacity="1"/>
      </g>
      <g>
        <text x="1437.047619047619" y="668.75" text-anchor="middle" dominant-baseline="middle" font-size="19.5" font-family="TCM_____" fill="#444">9th</text>
        <line x1="1287" y1="668.75" x2="1362" y2="668.75" stroke="#fc0" stroke-width="3"/>
        <circle cx="1362" cy="668.75" r="4.663689526544408" stroke="#fc0" stroke-width="5" fill="#fc0" fill-opacity="1"/>
      </g>
      <g>
        <text x="1437.047619047619" y="723.5" text-anchor="middle" dominant-baseline="middle" font-size="19.5" font-family="TCM_____" fill="#444">10th</text>
        <line x1="1287" y1="723.5" x2="1362" y2="723.5" stroke="#8f0" stroke-width="3"/>
        <circle cx="1362" cy="723.5" r="4.242640687119285" stroke="#8f0" stroke-width="5" fill="#8f0" fill-opacity="1"/>
      </g>
      <g>
        <circle cx="1362" cy="778.25" r="5.678908345800274" stroke="#ccc" stroke-width="5" fill="#ccc" fill-opacity="1"/>
      </g>
    </g>
  </g>
  <g>
    <text x="800" y="833.25" text-anchor="middle" dominant-baseline="middle" font-size="26" font-family="TCM_____" fill="#888">Data by The Department of Census and Statistics, Sri Lanka · Visualization by @nuuuwan</text>
  </g>
</svg>
