<?xml version="1.0" ?>
<svg xmlns="http://www.w3.org/2000/svg" width="1600" height="900">
  <g>
    <text x="800" y="109.5" text-anchor="middle" font-size="39" font-family="TCM_____" fill="black">Top 10 Causes of Death in Males by Age-Group (Sri Lanka)</text>
    <text x="1509" y="122.5" text-anchor="end" font-size="91" font-family="consola" fill="#f00">2014</text>
  </g>
  <g>
    <g>
      <text x="162" y="176" text-anchor="middle" dominant-baseline="middle" font-size="19.5" font-family="TCM_____" fill="#444">1-4</text>
      <g>
        <text x="86.95238095238096" y="230.75" text-anchor="middle" dominant-baseline="middle" font-size="19.5" font-family="TCM_____" fill="#444">Top</text>
        <circle cx="162" cy="230.75" r="5.431390245600108" stroke="#000" stroke-width="5" fill="#000" fill-opacity="1"/>
      </g>
      <g>
        <text x="86.95238095238096" y="285.5" text-anchor="middle" dominant-baseline="middle" font-size="19.5" font-family="TCM_____" fill="#444">2nd</text>
        <circle cx="162" cy="285.5" r="5.196152422706632" stroke="#00f" stroke-width="5" fill="#00f" fill-opacity="1"/>
        <text x="162" y="285.5" text-anchor="middle" dominant-baseline="middle" font-size="19.5" font-family="TCM_____" fill="black">Birth Defects</text>
      </g>
      <g>
        <text x="86.95238095238096" y="340.25" text-anchor="middle" dominant-baseline="middle" font-size="19.5" font-family="TCM_____" fill="#444">3rd</text>
        <circle cx="162" cy="340.25" r="3.8078865529319543" stroke="#08f" stroke-width="5" fill="#08f" fill-opacity="1"/>
      </g>
      <g>
        <text x="86.95238095238096" y="395.0" text-anchor="middle" dominant-baseline="middle" font-size="19.5" font-family="TCM_____" fill="#444">4th</text>
        <circle cx="162" cy="395.0" r="3.7080992435478315" stroke="#f80" stroke-width="5" fill="#f80" fill-opacity="1"/>
      </g>
      <g>
        <text x="86.95238095238096" y="449.75" text-anchor="middle" dominant-baseline="middle" font-size="19.5" font-family="TCM_____" fill="#444">5th</text>
        <circle cx="162" cy="449.75" r="3.605551275463989" stroke="#080" stroke-width="5" fill="#080" fill-opacity="1"/>
      </g>
      <g>
        <text x="86.95238095238096" y="504.5" text-anchor="middle" dominant-baseline="middle" font-size="19.5" font-family="TCM_____" fill="#444">6th</text>
        <circle cx="162" cy="504.5" r="3.5355339059327378" stroke="#888" stroke-width="5" fill="#888" fill-opacity="1"/>
      </g>
      <g>
        <text x="86.95238095238096" y="559.25" text-anchor="middle" dominant-baseline="middle" font-size="19.5" font-family="TCM_____" fill="#444">7th</text>
        <circle cx="162" cy="559.25" r="2.598076211353316" stroke="#f00" stroke-width="5" fill="#f00" fill-opacity="1"/>
      </g>
      <g>
        <text x="86.95238095238096" y="614.0" text-anchor="middle" dominant-baseline="middle" font-size="19.5" font-family="TCM_____" fill="#444">8th</text>
        <circle cx="162" cy="614.0" r="2.449489742783178" stroke="#ccc" stroke-width="5" fill="#ccc" fill-opacity="1"/>
      </g>
      <g>
        <text x="86.95238095238096" y="668.75" text-anchor="middle" dominant-baseline="middle" font-size="19.5" font-family="TCM_____" fill="#444">9th</text>
        <circle cx="162" cy="668.75" r="1.6583123951777" stroke="#8f0" stroke-width="5" fill="#8f0" fill-opacity="1"/>
      </g>
      <g>
        <text x="86.95238095238096" y="723.5" text-anchor="middle" dominant-baseline="middle" font-size="19.5" font-family="TCM_____" fill="#444">10th</text>
        <circle cx="162" cy="723.5" r="1.3228756555322954" stroke="#cccccc" stroke-width="5" fill="#cccccc" fill-opacity="1"/>
      </g>
      <g>
        <text x="86.95238095238096" y="778.25" text-anchor="middle" dominant-baseline="middle" font-size="19.5" font-family="TCM_____" fill="#444">All Others</text>
        <circle cx="162" cy="778.25" r="1.6583123951777" stroke="#ccc" stroke-width="5" fill="#ccc" fill-opacity="1"/>
      </g>
    </g>
    <g>
      <text x="237" y="176" text-anchor="middle" dominant-baseline="middle" font-size="19.5" font-family="TCM_____" fill="#444">5-9</text>
      <g>
        <line x1="162" y1="230.75" x2="237" y2="230.75" stroke="#000" stroke-width="3"/>
        <circle cx="237" cy="230.75" r="4.153311931459037" stroke="#000" stroke-width="5" fill="#000" fill-opacity="1"/>
      </g>
      <g>
        <line x1="162" y1="340.25" x2="237" y2="285.5" stroke="#08f" stroke-width="3"/>
        <circle cx="237" cy="285.5" r="3.122498999199199" stroke="#08f" stroke-width="5" fill="#08f" fill-opacity="1"/>
      </g>
      <g>
        <line x1="162" y1="504.5" x2="237" y2="340.25" stroke="#888" stroke-width="3"/>
        <circle cx="237" cy="340.25" r="2.5495097567963922" stroke="#888" stroke-width="5" fill="#888" fill-opacity="1"/>
      </g>
      <g>
        <line x1="162" y1="285.5" x2="237" y2="395.0" stroke="#00f" stroke-width="3"/>
        <circle cx="237" cy="395.0" r="2.179449471770337" stroke="#00f" stroke-width="5" fill="#00f" fill-opacity="1"/>
      </g>
      <g>
        <line x1="162" y1="449.75" x2="237" y2="449.75" stroke="#080" stroke-width="3"/>
        <circle cx="237" cy="449.75" r="2.1213203435596424" stroke="#080" stroke-width="5" fill="#080" fill-opacity="1"/>
      </g>
      <g>
        <line x1="162" y1="395.0" x2="237" y2="504.5" stroke="#f80" stroke-width="3"/>
        <circle cx="237" cy="504.5" r="2.0615528128088303" stroke="#f80" stroke-width="5" fill="#f80" fill-opacity="1"/>
      </g>
      <g>
        <line x1="162" y1="559.25" x2="237" y2="559.25" stroke="#f00" stroke-width="3"/>
        <circle cx="237" cy="559.25" r="2.0" stroke="#f00" stroke-width="5" fill="#f00" fill-opacity="1"/>
      </g>
      <g>
        <line x1="162" y1="614.0" x2="237" y2="614.0" stroke="#ccc" stroke-width="3"/>
        <circle cx="237" cy="614.0" r="1.4142135623730951" stroke="#ccc" stroke-width="5" fill="#ccc" fill-opacity="1"/>
      </g>
      <g>
        <circle cx="237" cy="668.75" r="1.224744871391589" stroke="#cccccc" stroke-width="5" fill="#cccccc" fill-opacity="1"/>
      </g>
      <g>
        <line x1="162" y1="723.5" x2="237" y2="723.5" stroke="#cccccc" stroke-width="3"/>
        <circle cx="237" cy="723.5" r="1.0" stroke="#cccccc" stroke-width="5" fill="#cccccc" fill-opacity="1"/>
      </g>
      <g>
        <circle cx="237" cy="778.25" r="1.5" stroke="#ccc" stroke-width="5" fill="#ccc" fill-opacity="1"/>
      </g>
    </g>
    <g>
      <text x="312" y="176" text-anchor="middle" dominant-baseline="middle" font-size="19.5" font-family="TCM_____" fill="#444">15-19</text>
      <g>
        <line x1="237" y1="230.75" x2="312" y2="230.75" stroke="#000" stroke-width="3"/>
        <circle cx="312" cy="230.75" r="9.137833441248533" stroke="#000" stroke-width="5" fill="#000" fill-opacity="1"/>
      </g>
      <g>
        <line x1="237" y1="668.75" x2="312" y2="285.5" stroke="#cccccc" stroke-width="3"/>
        <circle cx="312" cy="285.5" r="3.640054944640259" stroke="#cccccc" stroke-width="5" fill="#cccccc" fill-opacity="1"/>
        <text x="312" y="285.5" text-anchor="middle" dominant-baseline="middle" font-size="19.5" font-family="TCM_____" fill="black">Disappearance</text>
      </g>
      <g>
        <line x1="237" y1="285.5" x2="312" y2="340.25" stroke="#08f" stroke-width="3"/>
        <circle cx="312" cy="340.25" r="3.3166247903554" stroke="#08f" stroke-width="5" fill="#08f" fill-opacity="1"/>
      </g>
      <g>
        <line x1="237" y1="559.25" x2="312" y2="395.0" stroke="#f00" stroke-width="3"/>
        <circle cx="312" cy="395.0" r="2.9154759474226504" stroke="#f00" stroke-width="5" fill="#f00" fill-opacity="1"/>
      </g>
      <g>
        <line x1="237" y1="504.5" x2="312" y2="449.75" stroke="#f80" stroke-width="3"/>
        <circle cx="312" cy="449.75" r="2.692582403567252" stroke="#f80" stroke-width="5" fill="#f80" fill-opacity="1"/>
      </g>
      <g>
        <line x1="237" y1="340.25" x2="312" y2="504.5" stroke="#888" stroke-width="3"/>
        <circle cx="312" cy="504.5" r="2.692582403567252" stroke="#888" stroke-width="5" fill="#888" fill-opacity="1"/>
      </g>
      <g>
        <line x1="237" y1="449.75" x2="312" y2="559.25" stroke="#080" stroke-width="3"/>
        <circle cx="312" cy="559.25" r="2.345207879911715" stroke="#080" stroke-width="5" fill="#080" fill-opacity="1"/>
      </g>
      <g>
        <line x1="237" y1="614.0" x2="312" y2="614.0" stroke="#ccc" stroke-width="3"/>
        <circle cx="312" cy="614.0" r="2.23606797749979" stroke="#ccc" stroke-width="5" fill="#ccc" fill-opacity="1"/>
      </g>
      <g>
        <line x1="237" y1="395.0" x2="312" y2="668.75" stroke="#00f" stroke-width="3"/>
        <circle cx="312" cy="668.75" r="2.179449471770337" stroke="#00f" stroke-width="5" fill="#00f" fill-opacity="1"/>
      </g>
      <g>
        <circle cx="312" cy="723.5" r="1.5811388300841898" stroke="#fc0" stroke-width="5" fill="#fc0" fill-opacity="1"/>
      </g>
      <g>
        <circle cx="312" cy="778.25" r="2.0615528128088303" stroke="#ccc" stroke-width="5" fill="#ccc" fill-opacity="1"/>
      </g>
    </g>
    <g>
      <text x="387" y="176" text-anchor="middle" dominant-baseline="middle" font-size="19.5" font-family="TCM_____" fill="#444">20-24</text>
      <g>
        <line x1="312" y1="230.75" x2="387" y2="230.75" stroke="#000" stroke-width="3"/>
        <circle cx="387" cy="230.75" r="11.157956802210698" stroke="#000" stroke-width="5" fill="#000" fill-opacity="1"/>
      </g>
      <g>
        <line x1="312" y1="395.0" x2="387" y2="285.5" stroke="#f00" stroke-width="3"/>
        <circle cx="387" cy="285.5" r="3.840572873934304" stroke="#f00" stroke-width="5" fill="#f00" fill-opacity="1"/>
      </g>
      <g>
        <line x1="312" y1="340.25" x2="387" y2="340.25" stroke="#08f" stroke-width="3"/>
        <circle cx="387" cy="340.25" r="3.6742346141747673" stroke="#08f" stroke-width="5" fill="#08f" fill-opacity="1"/>
      </g>
      <g>
        <line x1="312" y1="285.5" x2="387" y2="395.0" stroke="#cccccc" stroke-width="3"/>
        <circle cx="387" cy="395.0" r="3.5" stroke="#cccccc" stroke-width="5" fill="#cccccc" fill-opacity="1"/>
      </g>
      <g>
        <line x1="312" y1="504.5" x2="387" y2="449.75" stroke="#888" stroke-width="3"/>
        <circle cx="387" cy="449.75" r="2.9154759474226504" stroke="#888" stroke-width="5" fill="#888" fill-opacity="1"/>
      </g>
      <g>
        <line x1="312" y1="559.25" x2="387" y2="504.5" stroke="#080" stroke-width="3"/>
        <circle cx="387" cy="504.5" r="2.8722813232690143" stroke="#080" stroke-width="5" fill="#080" fill-opacity="1"/>
      </g>
      <g>
        <line x1="312" y1="668.75" x2="387" y2="559.25" stroke="#00f" stroke-width="3"/>
        <circle cx="387" cy="559.25" r="2.598076211353316" stroke="#00f" stroke-width="5" fill="#00f" fill-opacity="1"/>
      </g>
      <g>
        <line x1="312" y1="614.0" x2="387" y2="614.0" stroke="#ccc" stroke-width="3"/>
        <circle cx="387" cy="614.0" r="2.5495097567963922" stroke="#ccc" stroke-width="5" fill="#ccc" fill-opacity="1"/>
      </g>
      <g>
        <line x1="312" y1="449.75" x2="387" y2="668.75" stroke="#f80" stroke-width="3"/>
        <circle cx="387" cy="668.75" r="2.345207879911715" stroke="#f80" stroke-width="5" fill="#f80" fill-opacity="1"/>
      </g>
      <g>
        <line x1="312" y1="723.5" x2="387" y2="723.5" stroke="#fc0" stroke-width="3"/>
        <circle cx="387" cy="723.5" r="1.5811388300841898" stroke="#fc0" stroke-width="5" fill="#fc0" fill-opacity="1"/>
      </g>
      <g>
        <circle cx="387" cy="778.25" r="2.5" stroke="#ccc" stroke-width="5" fill="#ccc" fill-opacity="1"/>
      </g>
    </g>
    <g>
      <text x="462" y="176" text-anchor="middle" dominant-baseline="middle" font-size="19.5" font-family="TCM_____" fill="#444">25-29</text>
      <g>
        <line x1="387" y1="230.75" x2="462" y2="230.75" stroke="#000" stroke-width="3"/>
        <circle cx="462" cy="230.75" r="11.379806676741042" stroke="#000" stroke-width="5" fill="#000" fill-opacity="1"/>
      </g>
      <g>
        <line x1="387" y1="285.5" x2="462" y2="285.5" stroke="#f00" stroke-width="3"/>
        <circle cx="462" cy="285.5" r="5.1478150704935" stroke="#f00" stroke-width="5" fill="#f00" fill-opacity="1"/>
      </g>
      <g>
        <line x1="387" y1="340.25" x2="462" y2="340.25" stroke="#08f" stroke-width="3"/>
        <circle cx="462" cy="340.25" r="3.5" stroke="#08f" stroke-width="5" fill="#08f" fill-opacity="1"/>
      </g>
      <g>
        <line x1="387" y1="395.0" x2="462" y2="395.0" stroke="#cccccc" stroke-width="3"/>
        <circle cx="462" cy="395.0" r="3.1622776601683795" stroke="#cccccc" stroke-width="5" fill="#cccccc" fill-opacity="1"/>
      </g>
      <g>
        <line x1="387" y1="504.5" x2="462" y2="449.75" stroke="#080" stroke-width="3"/>
        <circle cx="462" cy="449.75" r="2.8722813232690143" stroke="#080" stroke-width="5" fill="#080" fill-opacity="1"/>
      </g>
      <g>
        <line x1="387" y1="614.0" x2="462" y2="504.5" stroke="#ccc" stroke-width="3"/>
        <circle cx="462" cy="504.5" r="2.6457513110645907" stroke="#ccc" stroke-width="5" fill="#ccc" fill-opacity="1"/>
      </g>
      <g>
        <line x1="387" y1="449.75" x2="462" y2="559.25" stroke="#888" stroke-width="3"/>
        <circle cx="462" cy="559.25" r="2.345207879911715" stroke="#888" stroke-width="5" fill="#888" fill-opacity="1"/>
      </g>
      <g>
        <line x1="387" y1="723.5" x2="462" y2="614.0" stroke="#fc0" stroke-width="3"/>
        <circle cx="462" cy="614.0" r="2.345207879911715" stroke="#fc0" stroke-width="5" fill="#fc0" fill-opacity="1"/>
      </g>
      <g>
        <line x1="162" y1="668.75" x2="462" y2="668.75" stroke="#8f0" stroke-width="3"/>
        <circle cx="462" cy="668.75" r="2.0" stroke="#8f0" stroke-width="5" fill="#8f0" fill-opacity="1"/>
      </g>
      <g>
        <line x1="387" y1="668.75" x2="462" y2="723.5" stroke="#f80" stroke-width="3"/>
        <circle cx="462" cy="723.5" r="1.8708286933869707" stroke="#f80" stroke-width="5" fill="#f80" fill-opacity="1"/>
      </g>
      <g>
        <circle cx="462" cy="778.25" r="2.29128784747792" stroke="#ccc" stroke-width="5" fill="#ccc" fill-opacity="1"/>
      </g>
    </g>
    <g>
      <text x="537" y="176" text-anchor="middle" dominant-baseline="middle" font-size="19.5" font-family="TCM_____" fill="#444">30-34</text>
      <g>
        <line x1="462" y1="230.75" x2="537" y2="230.75" stroke="#000" stroke-width="3"/>
        <circle cx="537" cy="230.75" r="12.103718436910205" stroke="#000" stroke-width="5" fill="#000" fill-opacity="1"/>
      </g>
      <g>
        <line x1="462" y1="285.5" x2="537" y2="285.5" stroke="#f00" stroke-width="3"/>
        <circle cx="537" cy="285.5" r="6.06217782649107" stroke="#f00" stroke-width="5" fill="#f00" fill-opacity="1"/>
      </g>
      <g>
        <line x1="462" y1="340.25" x2="537" y2="340.25" stroke="#08f" stroke-width="3"/>
        <circle cx="537" cy="340.25" r="4.6097722286464435" stroke="#08f" stroke-width="5" fill="#08f" fill-opacity="1"/>
      </g>
      <g>
        <line x1="462" y1="449.75" x2="537" y2="395.0" stroke="#080" stroke-width="3"/>
        <circle cx="537" cy="395.0" r="4.06201920231798" stroke="#080" stroke-width="5" fill="#080" fill-opacity="1"/>
      </g>
      <g>
        <line x1="462" y1="559.25" x2="537" y2="449.75" stroke="#888" stroke-width="3"/>
        <circle cx="537" cy="449.75" r="3.122498999199199" stroke="#888" stroke-width="5" fill="#888" fill-opacity="1"/>
      </g>
      <g>
        <line x1="462" y1="504.5" x2="537" y2="504.5" stroke="#ccc" stroke-width="3"/>
        <circle cx="537" cy="504.5" r="3.122498999199199" stroke="#ccc" stroke-width="5" fill="#ccc" fill-opacity="1"/>
      </g>
      <g>
        <line x1="462" y1="723.5" x2="537" y2="559.25" stroke="#f80" stroke-width="3"/>
        <circle cx="537" cy="559.25" r="2.8284271247461903" stroke="#f80" stroke-width="5" fill="#f80" fill-opacity="1"/>
      </g>
      <g>
        <line x1="462" y1="614.0" x2="537" y2="614.0" stroke="#fc0" stroke-width="3"/>
        <circle cx="537" cy="614.0" r="2.8284271247461903" stroke="#fc0" stroke-width="5" fill="#fc0" fill-opacity="1"/>
      </g>
      <g>
        <line x1="462" y1="668.75" x2="537" y2="668.75" stroke="#8f0" stroke-width="3"/>
        <circle cx="537" cy="668.75" r="2.7386127875258306" stroke="#8f0" stroke-width="5" fill="#8f0" fill-opacity="1"/>
      </g>
      <g>
        <line x1="462" y1="395.0" x2="537" y2="723.5" stroke="#cccccc" stroke-width="3"/>
        <circle cx="537" cy="723.5" r="2.5" stroke="#cccccc" stroke-width="5" fill="#cccccc" fill-opacity="1"/>
      </g>
      <g>
        <circle cx="537" cy="778.25" r="3.0413812651491097" stroke="#ccc" stroke-width="5" fill="#ccc" fill-opacity="1"/>
      </g>
    </g>
    <g>
      <text x="612" y="176" text-anchor="middle" dominant-baseline="middle" font-size="19.5" font-family="TCM_____" fill="#444">35-39</text>
      <g>
        <line x1="537" y1="230.75" x2="612" y2="230.75" stroke="#000" stroke-width="3"/>
        <circle cx="612" cy="230.75" r="11.543396380615196" stroke="#000" stroke-width="5" fill="#000" fill-opacity="1"/>
      </g>
      <g>
        <line x1="537" y1="285.5" x2="612" y2="285.5" stroke="#f00" stroke-width="3"/>
        <circle cx="612" cy="285.5" r="7.54983443527075" stroke="#f00" stroke-width="5" fill="#f00" fill-opacity="1"/>
      </g>
      <g>
        <line x1="537" y1="340.25" x2="612" y2="340.25" stroke="#08f" stroke-width="3"/>
        <circle cx="612" cy="340.25" r="5.172040216394301" stroke="#08f" stroke-width="5" fill="#08f" fill-opacity="1"/>
      </g>
      <g>
        <line x1="537" y1="668.75" x2="612" y2="395.0" stroke="#8f0" stroke-width="3"/>
        <circle cx="612" cy="395.0" r="4.743416490252569" stroke="#8f0" stroke-width="5" fill="#8f0" fill-opacity="1"/>
      </g>
      <g>
        <line x1="537" y1="395.0" x2="612" y2="449.75" stroke="#080" stroke-width="3"/>
        <circle cx="612" cy="449.75" r="4.387482193696061" stroke="#080" stroke-width="5" fill="#080" fill-opacity="1"/>
      </g>
      <g>
        <line x1="537" y1="614.0" x2="612" y2="504.5" stroke="#fc0" stroke-width="3"/>
        <circle cx="612" cy="504.5" r="4.272001872658765" stroke="#fc0" stroke-width="5" fill="#fc0" fill-opacity="1"/>
      </g>
      <g>
        <line x1="537" y1="449.75" x2="612" y2="559.25" stroke="#888" stroke-width="3"/>
        <circle cx="612" cy="559.25" r="3.872983346207417" stroke="#888" stroke-width="5" fill="#888" fill-opacity="1"/>
      </g>
      <g>
        <line x1="537" y1="504.5" x2="612" y2="614.0" stroke="#ccc" stroke-width="3"/>
        <circle cx="612" cy="614.0" r="3.082207001484488" stroke="#ccc" stroke-width="5" fill="#ccc" fill-opacity="1"/>
      </g>
      <g>
        <line x1="537" y1="559.25" x2="612" y2="668.75" stroke="#f80" stroke-width="3"/>
        <circle cx="612" cy="668.75" r="2.9154759474226504" stroke="#f80" stroke-width="5" fill="#f80" fill-opacity="1"/>
      </g>
      <g>
        <circle cx="612" cy="723.5" r="2.8722813232690143" stroke="#f08" stroke-width="5" fill="#f08" fill-opacity="1"/>
      </g>
      <g>
        <circle cx="612" cy="778.25" r="3.4641016151377544" stroke="#ccc" stroke-width="5" fill="#ccc" fill-opacity="1"/>
      </g>
    </g>
    <g>
      <text x="687" y="176" text-anchor="middle" dominant-baseline="middle" font-size="19.5" font-family="TCM_____" fill="#444">40-44</text>
      <g>
        <line x1="612" y1="230.75" x2="687" y2="230.75" stroke="#000" stroke-width="3"/>
        <circle cx="687" cy="230.75" r="11.324751652906125" stroke="#000" stroke-width="5" fill="#000" fill-opacity="1"/>
      </g>
      <g>
        <line x1="612" y1="285.5" x2="687" y2="285.5" stroke="#f00" stroke-width="3"/>
        <circle cx="687" cy="285.5" r="10.331989159885913" stroke="#f00" stroke-width="5" fill="#f00" fill-opacity="1"/>
      </g>
      <g>
        <line x1="612" y1="340.25" x2="687" y2="340.25" stroke="#08f" stroke-width="3"/>
        <circle cx="687" cy="340.25" r="6.96419413859206" stroke="#08f" stroke-width="5" fill="#08f" fill-opacity="1"/>
      </g>
      <g>
        <line x1="612" y1="395.0" x2="687" y2="395.0" stroke="#8f0" stroke-width="3"/>
        <circle cx="687" cy="395.0" r="6.304760106459246" stroke="#8f0" stroke-width="5" fill="#8f0" fill-opacity="1"/>
      </g>
      <g>
        <line x1="612" y1="559.25" x2="687" y2="449.75" stroke="#888" stroke-width="3"/>
        <circle cx="687" cy="449.75" r="5.385164807134504" stroke="#888" stroke-width="5" fill="#888" fill-opacity="1"/>
      </g>
      <g>
        <line x1="612" y1="449.75" x2="687" y2="504.5" stroke="#080" stroke-width="3"/>
        <circle cx="687" cy="504.5" r="4.636809247747852" stroke="#080" stroke-width="5" fill="#080" fill-opacity="1"/>
      </g>
      <g>
        <line x1="612" y1="504.5" x2="687" y2="559.25" stroke="#fc0" stroke-width="3"/>
        <circle cx="687" cy="559.25" r="4.6097722286464435" stroke="#fc0" stroke-width="5" fill="#fc0" fill-opacity="1"/>
      </g>
      <g>
        <line x1="612" y1="723.5" x2="687" y2="614.0" stroke="#f08" stroke-width="3"/>
        <circle cx="687" cy="614.0" r="4.2130748865881795" stroke="#f08" stroke-width="5" fill="#f08" fill-opacity="1"/>
      </g>
      <g>
        <line x1="612" y1="614.0" x2="687" y2="668.75" stroke="#ccc" stroke-width="3"/>
        <circle cx="687" cy="668.75" r="4.123105625617661" stroke="#ccc" stroke-width="5" fill="#ccc" fill-opacity="1"/>
      </g>
      <g>
        <line x1="612" y1="668.75" x2="687" y2="723.5" stroke="#f80" stroke-width="3"/>
        <circle cx="687" cy="723.5" r="3.1622776601683795" stroke="#f80" stroke-width="5" fill="#f80" fill-opacity="1"/>
      </g>
      <g>
        <circle cx="687" cy="778.25" r="3.391164991562634" stroke="#ccc" stroke-width="5" fill="#ccc" fill-opacity="1"/>
      </g>
    </g>
    <g>
      <text x="762" y="176" text-anchor="middle" dominant-baseline="middle" font-size="19.5" font-family="TCM_____" fill="#444">45-49</text>
      <g>
        <line x1="687" y1="285.5" x2="762" y2="230.75" stroke="#f00" stroke-width="3"/>
        <circle cx="762" cy="230.75" r="14.568802284333465" stroke="#f00" stroke-width="5" fill="#f00" fill-opacity="1"/>
      </g>
      <g>
        <line x1="687" y1="230.75" x2="762" y2="285.5" stroke="#000" stroke-width="3"/>
        <circle cx="762" cy="285.5" r="12.439855304624729" stroke="#000" stroke-width="5" fill="#000" fill-opacity="1"/>
      </g>
      <g>
        <line x1="687" y1="340.25" x2="762" y2="340.25" stroke="#08f" stroke-width="3"/>
        <circle cx="762" cy="340.25" r="9.836157786453" stroke="#08f" stroke-width="5" fill="#08f" fill-opacity="1"/>
      </g>
      <g>
        <line x1="687" y1="395.0" x2="762" y2="395.0" stroke="#8f0" stroke-width="3"/>
        <circle cx="762" cy="395.0" r="8.04673846971554" stroke="#8f0" stroke-width="5" fill="#8f0" fill-opacity="1"/>
      </g>
      <g>
        <line x1="687" y1="449.75" x2="762" y2="449.75" stroke="#888" stroke-width="3"/>
        <circle cx="762" cy="449.75" r="6.557438524302" stroke="#888" stroke-width="5" fill="#888" fill-opacity="1"/>
      </g>
      <g>
        <line x1="687" y1="614.0" x2="762" y2="504.5" stroke="#f08" stroke-width="3"/>
        <circle cx="762" cy="504.5" r="6.48074069840786" stroke="#f08" stroke-width="5" fill="#f08" fill-opacity="1"/>
      </g>
      <g>
        <line x1="687" y1="559.25" x2="762" y2="559.25" stroke="#fc0" stroke-width="3"/>
        <circle cx="762" cy="559.25" r="6.144102863722254" stroke="#fc0" stroke-width="5" fill="#fc0" fill-opacity="1"/>
      </g>
      <g>
        <line x1="687" y1="504.5" x2="762" y2="614.0" stroke="#080" stroke-width="3"/>
        <circle cx="762" cy="614.0" r="6.0" stroke="#080" stroke-width="5" fill="#080" fill-opacity="1"/>
      </g>
      <g>
        <line x1="687" y1="668.75" x2="762" y2="668.75" stroke="#ccc" stroke-width="3"/>
        <circle cx="762" cy="668.75" r="4.873397172404482" stroke="#ccc" stroke-width="5" fill="#ccc" fill-opacity="1"/>
      </g>
      <g>
        <line x1="687" y1="723.5" x2="762" y2="723.5" stroke="#f80" stroke-width="3"/>
        <circle cx="762" cy="723.5" r="4.8218253804964775" stroke="#f80" stroke-width="5" fill="#f80" fill-opacity="1"/>
      </g>
      <g>
        <circle cx="762" cy="778.25" r="3.840572873934304" stroke="#ccc" stroke-width="5" fill="#ccc" fill-opacity="1"/>
      </g>
    </g>
    <g>
      <text x="837" y="176" text-anchor="middle" dominant-baseline="middle" font-size="19.5" font-family="TCM_____" fill="#444">50-54</text>
      <g>
        <line x1="762" y1="230.75" x2="837" y2="230.75" stroke="#f00" stroke-width="3"/>
        <circle cx="837" cy="230.75" r="18.688231591030757" stroke="#f00" stroke-width="5" fill="#f00" fill-opacity="1"/>
      </g>
      <g>
        <line x1="762" y1="340.25" x2="837" y2="285.5" stroke="#08f" stroke-width="3"/>
        <circle cx="837" cy="285.5" r="12.913171570144957" stroke="#08f" stroke-width="5" fill="#08f" fill-opacity="1"/>
      </g>
      <g>
        <line x1="762" y1="285.5" x2="837" y2="340.25" stroke="#000" stroke-width="3"/>
        <circle cx="837" cy="340.25" r="12.216791722870616" stroke="#000" stroke-width="5" fill="#000" fill-opacity="1"/>
      </g>
      <g>
        <line x1="762" y1="449.75" x2="837" y2="395.0" stroke="#888" stroke-width="3"/>
        <circle cx="837" cy="395.0" r="9.205976319760984" stroke="#888" stroke-width="5" fill="#888" fill-opacity="1"/>
      </g>
      <g>
        <line x1="762" y1="395.0" x2="837" y2="449.75" stroke="#8f0" stroke-width="3"/>
        <circle cx="837" cy="449.75" r="9.205976319760984" stroke="#8f0" stroke-width="5" fill="#8f0" fill-opacity="1"/>
      </g>
      <g>
        <line x1="762" y1="504.5" x2="837" y2="504.5" stroke="#f08" stroke-width="3"/>
        <circle cx="837" cy="504.5" r="9.096702699330127" stroke="#f08" stroke-width="5" fill="#f08" fill-opacity="1"/>
      </g>
      <g>
        <line x1="762" y1="559.25" x2="837" y2="559.25" stroke="#fc0" stroke-width="3"/>
        <circle cx="837" cy="559.25" r="8.170067319184096" stroke="#fc0" stroke-width="5" fill="#fc0" fill-opacity="1"/>
      </g>
      <g>
        <line x1="762" y1="614.0" x2="837" y2="614.0" stroke="#080" stroke-width="3"/>
        <circle cx="837" cy="614.0" r="7.158910531638177" stroke="#080" stroke-width="5" fill="#080" fill-opacity="1"/>
      </g>
      <g>
        <line x1="762" y1="668.75" x2="837" y2="668.75" stroke="#ccc" stroke-width="3"/>
        <circle cx="837" cy="668.75" r="6.224949798994366" stroke="#ccc" stroke-width="5" fill="#ccc" fill-opacity="1"/>
      </g>
      <g>
        <line x1="762" y1="723.5" x2="837" y2="723.5" stroke="#f80" stroke-width="3"/>
        <circle cx="837" cy="723.5" r="5.894913061275798" stroke="#f80" stroke-width="5" fill="#f80" fill-opacity="1"/>
      </g>
      <g>
        <circle cx="837" cy="778.25" r="3.3541019662496847" stroke="#ccc" stroke-width="5" fill="#ccc" fill-opacity="1"/>
      </g>
    </g>
    <g>
      <text x="912" y="176" text-anchor="middle" dominant-baseline="middle" font-size="19.5" font-family="TCM_____" fill="#444">55-59</text>
      <g>
        <line x1="837" y1="230.75" x2="912" y2="230.75" stroke="#f00" stroke-width="3"/>
        <circle cx="912" cy="230.75" r="21.453437952924933" stroke="#f00" stroke-width="5" fill="#f00" fill-opacity="1"/>
      </g>
      <g>
        <line x1="837" y1="285.5" x2="912" y2="285.5" stroke="#08f" stroke-width="3"/>
        <circle cx="912" cy="285.5" r="14.823967080373594" stroke="#08f" stroke-width="5" fill="#08f" fill-opacity="1"/>
      </g>
      <g>
        <line x1="837" y1="340.25" x2="912" y2="340.25" stroke="#000" stroke-width="3"/>
        <circle cx="912" cy="340.25" r="13.152946437965905" stroke="#000" stroke-width="5" fill="#000" fill-opacity="1"/>
        <text x="912" y="340.25" text-anchor="middle" dominant-baseline="middle" font-size="19.5" font-family="TCM_____" fill="black">Accidents / Injuries</text>
      </g>
      <g>
        <line x1="837" y1="504.5" x2="912" y2="395.0" stroke="#f08" stroke-width="3"/>
        <circle cx="912" cy="395.0" r="11.390785749894517" stroke="#f08" stroke-width="5" fill="#f08" fill-opacity="1"/>
      </g>
      <g>
        <line x1="837" y1="395.0" x2="912" y2="449.75" stroke="#888" stroke-width="3"/>
        <circle cx="912" cy="449.75" r="10.571187255932987" stroke="#888" stroke-width="5" fill="#888" fill-opacity="1"/>
      </g>
      <g>
        <line x1="837" y1="449.75" x2="912" y2="504.5" stroke="#8f0" stroke-width="3"/>
        <circle cx="912" cy="504.5" r="9.460443964212251" stroke="#8f0" stroke-width="5" fill="#8f0" fill-opacity="1"/>
      </g>
      <g>
        <line x1="837" y1="559.25" x2="912" y2="559.25" stroke="#fc0" stroke-width="3"/>
        <circle cx="912" cy="559.25" r="9.460443964212251" stroke="#fc0" stroke-width="5" fill="#fc0" fill-opacity="1"/>
      </g>
      <g>
        <line x1="837" y1="614.0" x2="912" y2="614.0" stroke="#080" stroke-width="3"/>
        <circle cx="912" cy="614.0" r="7.874007874011811" stroke="#080" stroke-width="5" fill="#080" fill-opacity="1"/>
      </g>
      <g>
        <line x1="837" y1="723.5" x2="912" y2="668.75" stroke="#f80" stroke-width="3"/>
        <circle cx="912" cy="668.75" r="7.314369419163897" stroke="#f80" stroke-width="5" fill="#f80" fill-opacity="1"/>
      </g>
      <g>
        <line x1="837" y1="668.75" x2="912" y2="723.5" stroke="#ccc" stroke-width="3"/>
        <circle cx="912" cy="723.5" r="6.800735254367722" stroke="#ccc" stroke-width="5" fill="#ccc" fill-opacity="1"/>
      </g>
      <g>
        <circle cx="912" cy="778.25" r="3.840572873934304" stroke="#ccc" stroke-width="5" fill="#ccc" fill-opacity="1"/>
      </g>
    </g>
    <g>
      <text x="987" y="176" text-anchor="middle" dominant-baseline="middle" font-size="19.5" font-family="TCM_____" fill="#444">60-64</text>
      <g>
        <line x1="912" y1="230.75" x2="987" y2="230.75" stroke="#f00" stroke-width="3"/>
        <circle cx="987" cy="230.75" r="25.004999500099974" stroke="#f00" stroke-width="5" fill="#f00" fill-opacity="1"/>
      </g>
      <g>
        <line x1="912" y1="285.5" x2="987" y2="285.5" stroke="#08f" stroke-width="3"/>
        <circle cx="987" cy="285.5" r="17.52141546793523" stroke="#08f" stroke-width="5" fill="#08f" fill-opacity="1"/>
        <text x="987" y="285.5" text-anchor="middle" dominant-baseline="middle" font-size="19.5" font-family="TCM_____" fill="black">Cancers</text>
      </g>
      <g>
        <line x1="912" y1="449.75" x2="987" y2="340.25" stroke="#888" stroke-width="3"/>
        <circle cx="987" cy="340.25" r="13.619838471876236" stroke="#888" stroke-width="5" fill="#888" fill-opacity="1"/>
      </g>
      <g>
        <line x1="912" y1="395.0" x2="987" y2="395.0" stroke="#f08" stroke-width="3"/>
        <circle cx="987" cy="395.0" r="13.095800853708795" stroke="#f08" stroke-width="5" fill="#f08" fill-opacity="1"/>
      </g>
      <g>
        <line x1="912" y1="340.25" x2="987" y2="449.75" stroke="#000" stroke-width="3"/>
        <circle cx="987" cy="449.75" r="11.565033506220377" stroke="#000" stroke-width="5" fill="#000" fill-opacity="1"/>
      </g>
      <g>
        <line x1="912" y1="559.25" x2="987" y2="504.5" stroke="#fc0" stroke-width="3"/>
        <circle cx="987" cy="504.5" r="10.594810050208546" stroke="#fc0" stroke-width="5" fill="#fc0" fill-opacity="1"/>
      </g>
      <g>
        <line x1="912" y1="668.75" x2="987" y2="559.25" stroke="#f80" stroke-width="3"/>
        <circle cx="987" cy="559.25" r="10.173494974687902" stroke="#f80" stroke-width="5" fill="#f80" fill-opacity="1"/>
      </g>
      <g>
        <line x1="912" y1="504.5" x2="987" y2="614.0" stroke="#8f0" stroke-width="3"/>
        <circle cx="987" cy="614.0" r="9.486832980505138" stroke="#8f0" stroke-width="5" fill="#8f0" fill-opacity="1"/>
        <text x="987" y="614.0" text-anchor="middle" dominant-baseline="middle" font-size="19.5" font-family="TCM_____" fill="black">Digestive</text>
      </g>
      <g>
        <line x1="912" y1="614.0" x2="987" y2="668.75" stroke="#080" stroke-width="3"/>
        <circle cx="987" cy="668.75" r="8.972179222463181" stroke="#080" stroke-width="5" fill="#080" fill-opacity="1"/>
        <text x="987" y="668.75" text-anchor="middle" dominant-baseline="middle" font-size="19.5" font-family="TCM_____" fill="black">Infectious</text>
      </g>
      <g>
        <line x1="912" y1="723.5" x2="987" y2="723.5" stroke="#ccc" stroke-width="3"/>
        <circle cx="987" cy="723.5" r="8.972179222463181" stroke="#ccc" stroke-width="5" fill="#ccc" fill-opacity="1"/>
      </g>
      <g>
        <circle cx="987" cy="778.25" r="3.774917217635375" stroke="#ccc" stroke-width="5" fill="#ccc" fill-opacity="1"/>
      </g>
    </g>
    <g>
      <text x="1062" y="176" text-anchor="middle" dominant-baseline="middle" font-size="19.5" font-family="TCM_____" fill="#444">65-69</text>
      <g>
        <line x1="987" y1="230.75" x2="1062" y2="230.75" stroke="#f00" stroke-width="3"/>
        <circle cx="1062" cy="230.75" r="26.462237244798484" stroke="#f00" stroke-width="5" fill="#f00" fill-opacity="1"/>
        <text x="1062" y="230.75" text-anchor="middle" dominant-baseline="middle" font-size="19.5" font-family="TCM_____" fill="black">Heart</text>
      </g>
      <g>
        <line x1="987" y1="285.5" x2="1062" y2="285.5" stroke="#08f" stroke-width="3"/>
        <circle cx="1062" cy="285.5" r="17.131841699011815" stroke="#08f" stroke-width="5" fill="#08f" fill-opacity="1"/>
      </g>
      <g>
        <line x1="987" y1="340.25" x2="1062" y2="340.25" stroke="#888" stroke-width="3"/>
        <circle cx="1062" cy="340.25" r="15.231546211727817" stroke="#888" stroke-width="5" fill="#888" fill-opacity="1"/>
      </g>
      <g>
        <line x1="987" y1="395.0" x2="1062" y2="395.0" stroke="#f08" stroke-width="3"/>
        <circle cx="1062" cy="395.0" r="14.99166435056495" stroke="#f08" stroke-width="5" fill="#f08" fill-opacity="1"/>
        <text x="1062" y="395.0" text-anchor="middle" dominant-baseline="middle" font-size="19.5" font-family="TCM_____" fill="black">Metabolic</text>
      </g>
      <g>
        <line x1="987" y1="559.25" x2="1062" y2="449.75" stroke="#f80" stroke-width="3"/>
        <circle cx="1062" cy="449.75" r="13.047988350699889" stroke="#f80" stroke-width="5" fill="#f80" fill-opacity="1"/>
      </g>
      <g>
        <line x1="987" y1="723.5" x2="1062" y2="504.5" stroke="#ccc" stroke-width="3"/>
        <circle cx="1062" cy="504.5" r="11.779218989389747" stroke="#ccc" stroke-width="5" fill="#ccc" fill-opacity="1"/>
      </g>
      <g>
        <line x1="987" y1="504.5" x2="1062" y2="559.25" stroke="#fc0" stroke-width="3"/>
        <circle cx="1062" cy="559.25" r="10.988630487917955" stroke="#fc0" stroke-width="5" fill="#fc0" fill-opacity="1"/>
        <text x="1062" y="559.25" text-anchor="middle" dominant-baseline="middle" font-size="19.5" font-family="TCM_____" fill="black">Genito-urinary</text>
      </g>
      <g>
        <line x1="987" y1="449.75" x2="1062" y2="614.0" stroke="#000" stroke-width="3"/>
        <circle cx="1062" cy="614.0" r="10.862780491200215" stroke="#000" stroke-width="5" fill="#000" fill-opacity="1"/>
      </g>
      <g>
        <line x1="987" y1="668.75" x2="1062" y2="668.75" stroke="#080" stroke-width="3"/>
        <circle cx="1062" cy="668.75" r="8.817596044274199" stroke="#080" stroke-width="5" fill="#080" fill-opacity="1"/>
      </g>
      <g>
        <line x1="987" y1="614.0" x2="1062" y2="723.5" stroke="#8f0" stroke-width="3"/>
        <circle cx="1062" cy="723.5" r="8.514693182963201" stroke="#8f0" stroke-width="5" fill="#8f0" fill-opacity="1"/>
      </g>
      <g>
        <circle cx="1062" cy="778.25" r="3.774917217635375" stroke="#ccc" stroke-width="5" fill="#ccc" fill-opacity="1"/>
      </g>
    </g>
    <g>
      <text x="1137" y="176" text-anchor="middle" dominant-baseline="middle" font-size="19.5" font-family="TCM_____" fill="#444">70-74</text>
      <g>
        <line x1="1062" y1="230.75" x2="1137" y2="230.75" stroke="#f00" stroke-width="3"/>
        <circle cx="1137" cy="230.75" r="25.768197453450252" stroke="#f00" stroke-width="5" fill="#f00" fill-opacity="1"/>
      </g>
      <g>
        <line x1="1062" y1="340.25" x2="1137" y2="285.5" stroke="#888" stroke-width="3"/>
        <circle cx="1137" cy="285.5" r="17.08800749063506" stroke="#888" stroke-width="5" fill="#888" fill-opacity="1"/>
        <text x="1137" y="285.5" text-anchor="middle" dominant-baseline="middle" font-size="19.5" font-family="TCM_____" fill="black">Respiratory</text>
      </g>
      <g>
        <line x1="1062" y1="504.5" x2="1137" y2="340.25" stroke="#ccc" stroke-width="3"/>
        <circle cx="1137" cy="340.25" r="16.484841521834536" stroke="#ccc" stroke-width="5" fill="#ccc" fill-opacity="1"/>
      </g>
      <g>
        <line x1="1062" y1="285.5" x2="1137" y2="395.0" stroke="#08f" stroke-width="3"/>
        <circle cx="1137" cy="395.0" r="16.015617378046965" stroke="#08f" stroke-width="5" fill="#08f" fill-opacity="1"/>
      </g>
      <g>
        <line x1="1062" y1="449.75" x2="1137" y2="449.75" stroke="#f80" stroke-width="3"/>
        <circle cx="1137" cy="449.75" r="15.443445211480501" stroke="#f80" stroke-width="5" fill="#f80" fill-opacity="1"/>
      </g>
      <g>
        <line x1="1062" y1="395.0" x2="1137" y2="504.5" stroke="#f08" stroke-width="3"/>
        <circle cx="1137" cy="504.5" r="14.713938969562161" stroke="#f08" stroke-width="5" fill="#f08" fill-opacity="1"/>
      </g>
      <g>
        <line x1="1062" y1="559.25" x2="1137" y2="559.25" stroke="#fc0" stroke-width="3"/>
        <circle cx="1137" cy="559.25" r="10.618380290797651" stroke="#fc0" stroke-width="5" fill="#fc0" fill-opacity="1"/>
      </g>
      <g>
        <line x1="1062" y1="614.0" x2="1137" y2="614.0" stroke="#000" stroke-width="3"/>
        <circle cx="1137" cy="614.0" r="9.151502608861563" stroke="#000" stroke-width="5" fill="#000" fill-opacity="1"/>
      </g>
      <g>
        <line x1="1062" y1="668.75" x2="1137" y2="668.75" stroke="#080" stroke-width="3"/>
        <circle cx="1137" cy="668.75" r="8.470537173048708" stroke="#080" stroke-width="5" fill="#080" fill-opacity="1"/>
      </g>
      <g>
        <line x1="1062" y1="723.5" x2="1137" y2="723.5" stroke="#8f0" stroke-width="3"/>
        <circle cx="1137" cy="723.5" r="7.3824115301167" stroke="#8f0" stroke-width="5" fill="#8f0" fill-opacity="1"/>
      </g>
      <g>
        <circle cx="1137" cy="778.25" r="3.5" stroke="#ccc" stroke-width="5" fill="#ccc" fill-opacity="1"/>
      </g>
    </g>
    <g>
      <text x="1212" y="176" text-anchor="middle" dominant-baseline="middle" font-size="19.5" font-family="TCM_____" fill="#444">75-79</text>
      <g>
        <line x1="1137" y1="230.75" x2="1212" y2="230.75" stroke="#f00" stroke-width="3"/>
        <circle cx="1212" cy="230.75" r="24.36698586202241" stroke="#f00" stroke-width="5" fill="#f00" fill-opacity="1"/>
      </g>
      <g>
        <line x1="1137" y1="340.25" x2="1212" y2="285.5" stroke="#ccc" stroke-width="3"/>
        <circle cx="1212" cy="285.5" r="18.627936010197157" stroke="#ccc" stroke-width="5" fill="#ccc" fill-opacity="1"/>
      </g>
      <g>
        <line x1="1137" y1="285.5" x2="1212" y2="340.25" stroke="#888" stroke-width="3"/>
        <circle cx="1212" cy="340.25" r="16.881943016134134" stroke="#888" stroke-width="5" fill="#888" fill-opacity="1"/>
      </g>
      <g>
        <line x1="1137" y1="449.75" x2="1212" y2="395.0" stroke="#f80" stroke-width="3"/>
        <circle cx="1212" cy="395.0" r="15.992185591719476" stroke="#f80" stroke-width="5" fill="#f80" fill-opacity="1"/>
      </g>
      <g>
        <line x1="1137" y1="395.0" x2="1212" y2="449.75" stroke="#08f" stroke-width="3"/>
        <circle cx="1212" cy="449.75" r="13.2664991614216" stroke="#08f" stroke-width="5" fill="#08f" fill-opacity="1"/>
      </g>
      <g>
        <line x1="1137" y1="504.5" x2="1212" y2="504.5" stroke="#f08" stroke-width="3"/>
        <circle cx="1212" cy="504.5" r="13.019216566291536" stroke="#f08" stroke-width="5" fill="#f08" fill-opacity="1"/>
      </g>
      <g>
        <line x1="1137" y1="559.25" x2="1212" y2="559.25" stroke="#fc0" stroke-width="3"/>
        <circle cx="1212" cy="559.25" r="9.394147114027968" stroke="#fc0" stroke-width="5" fill="#fc0" fill-opacity="1"/>
      </g>
      <g>
        <line x1="1137" y1="668.75" x2="1212" y2="614.0" stroke="#080" stroke-width="3"/>
        <circle cx="1212" cy="614.0" r="8.261355820929152" stroke="#080" stroke-width="5" fill="#080" fill-opacity="1"/>
      </g>
      <g>
        <line x1="1137" y1="614.0" x2="1212" y2="668.75" stroke="#000" stroke-width="3"/>
        <circle cx="1212" cy="668.75" r="7.842193570679061" stroke="#000" stroke-width="5" fill="#000" fill-opacity="1"/>
      </g>
      <g>
        <line x1="1137" y1="723.5" x2="1212" y2="723.5" stroke="#8f0" stroke-width="3"/>
        <circle cx="1212" cy="723.5" r="6.103277807866851" stroke="#8f0" stroke-width="5" fill="#8f0" fill-opacity="1"/>
      </g>
      <g>
        <circle cx="1212" cy="778.25" r="3.640054944640259" stroke="#ccc" stroke-width="5" fill="#ccc" fill-opacity="1"/>
      </g>
    </g>
    <g>
      <text x="1287" y="176" text-anchor="middle" dominant-baseline="middle" font-size="19.5" font-family="TCM_____" fill="#444">80-84</text>
      <g>
        <line x1="1212" y1="285.5" x2="1287" y2="230.75" stroke="#ccc" stroke-width="3"/>
        <circle cx="1287" cy="230.75" r="22.847319317591726" stroke="#ccc" stroke-width="5" fill="#ccc" fill-opacity="1"/>
      </g>
      <g>
        <line x1="1212" y1="230.75" x2="1287" y2="285.5" stroke="#f00" stroke-width="3"/>
        <circle cx="1287" cy="285.5" r="21.66217902243447" stroke="#f00" stroke-width="5" fill="#f00" fill-opacity="1"/>
      </g>
      <g>
        <line x1="1212" y1="340.25" x2="1287" y2="340.25" stroke="#888" stroke-width="3"/>
        <circle cx="1287" cy="340.25" r="16.232683080747925" stroke="#888" stroke-width="5" fill="#888" fill-opacity="1"/>
      </g>
      <g>
        <line x1="1212" y1="395.0" x2="1287" y2="395.0" stroke="#f80" stroke-width="3"/>
        <circle cx="1287" cy="395.0" r="15.628499608087784" stroke="#f80" stroke-width="5" fill="#f80" fill-opacity="1"/>
      </g>
      <g>
        <line x1="1212" y1="504.5" x2="1287" y2="449.75" stroke="#f08" stroke-width="3"/>
        <circle cx="1287" cy="449.75" r="11.412712210513327" stroke="#f08" stroke-width="5" fill="#f08" fill-opacity="1"/>
      </g>
      <g>
        <line x1="1212" y1="449.75" x2="1287" y2="504.5" stroke="#08f" stroke-width="3"/>
        <circle cx="1287" cy="504.5" r="10.641898326896381" stroke="#08f" stroke-width="5" fill="#08f" fill-opacity="1"/>
      </g>
      <g>
        <line x1="1212" y1="559.25" x2="1287" y2="559.25" stroke="#fc0" stroke-width="3"/>
        <circle cx="1287" cy="559.25" r="8.789197915623474" stroke="#fc0" stroke-width="5" fill="#fc0" fill-opacity="1"/>
      </g>
      <g>
        <line x1="1212" y1="614.0" x2="1287" y2="614.0" stroke="#080" stroke-width="3"/>
        <circle cx="1287" cy="614.0" r="7.245688373094719" stroke="#080" stroke-width="5" fill="#080" fill-opacity="1"/>
      </g>
      <g>
        <line x1="1212" y1="668.75" x2="1287" y2="668.75" stroke="#000" stroke-width="3"/>
        <circle cx="1287" cy="668.75" r="6.670832032063167" stroke="#000" stroke-width="5" fill="#000" fill-opacity="1"/>
      </g>
      <g>
        <line x1="1212" y1="723.5" x2="1287" y2="723.5" stroke="#8f0" stroke-width="3"/>
        <circle cx="1287" cy="723.5" r="4.444097208657794" stroke="#8f0" stroke-width="5" fill="#8f0" fill-opacity="1"/>
      </g>
      <g>
        <circle cx="1287" cy="778.25" r="3.3166247903554" stroke="#ccc" stroke-width="5" fill="#ccc" fill-opacity="1"/>
      </g>
    </g>
    <g>
      <text x="1362" y="176" text-anchor="middle" dominant-baseline="middle" font-size="19.5" font-family="TCM_____" fill="#444">85-120</text>
      <g>
        <text x="1437.047619047619" y="230.75" text-anchor="middle" dominant-baseline="middle" font-size="19.5" font-family="TCM_____" fill="#444">Top</text>
        <line x1="1287" y1="230.75" x2="1362" y2="230.75" stroke="#ccc" stroke-width="3"/>
        <circle cx="1362" cy="230.75" r="29.038767191463208" stroke="#ccc" stroke-width="5" fill="#ccc" fill-opacity="1"/>
        <text x="1362" y="230.75" text-anchor="middle" dominant-baseline="middle" font-size="19.5" font-family="TCM_____" fill="black">Unspecified</text>
      </g>
      <g>
        <text x="1437.047619047619" y="285.5" text-anchor="middle" dominant-baseline="middle" font-size="19.5" font-family="TCM_____" fill="#444">2nd</text>
        <line x1="1287" y1="285.5" x2="1362" y2="285.5" stroke="#f00" stroke-width="3"/>
        <circle cx="1362" cy="285.5" r="21.295539439046856" stroke="#f00" stroke-width="5" fill="#f00" fill-opacity="1"/>
      </g>
      <g>
        <text x="1437.047619047619" y="340.25" text-anchor="middle" dominant-baseline="middle" font-size="19.5" font-family="TCM_____" fill="#444">3rd</text>
        <line x1="1287" y1="340.25" x2="1362" y2="340.25" stroke="#888" stroke-width="3"/>
        <circle cx="1362" cy="340.25" r="16.673332000533065" stroke="#888" stroke-width="5" fill="#888" fill-opacity="1"/>
      </g>
      <g>
        <text x="1437.047619047619" y="395.0" text-anchor="middle" dominant-baseline="middle" font-size="19.5" font-family="TCM_____" fill="#444">4th</text>
        <line x1="1287" y1="395.0" x2="1362" y2="395.0" stroke="#f80" stroke-width="3"/>
        <circle cx="1362" cy="395.0" r="16.3707055437449" stroke="#f80" stroke-width="5" fill="#f80" fill-opacity="1"/>
        <text x="1362" y="395.0" text-anchor="middle" dominant-baseline="middle" font-size="19.5" font-family="TCM_____" fill="black">Nervous</text>
      </g>
      <g>
        <text x="1437.047619047619" y="449.75" text-anchor="middle" dominant-baseline="middle" font-size="19.5" font-family="TCM_____" fill="#444">5th</text>
        <line x1="1287" y1="449.75" x2="1362" y2="449.75" stroke="#f08" stroke-width="3"/>
        <circle cx="1362" cy="449.75" r="10.712142642814275" stroke="#f08" stroke-width="5" fill="#f08" fill-opacity="1"/>
      </g>
      <g>
        <text x="1437.047619047619" y="504.5" text-anchor="middle" dominant-baseline="middle" font-size="19.5" font-family="TCM_____" fill="#444">6th</text>
        <line x1="1287" y1="504.5" x2="1362" y2="504.5" stroke="#08f" stroke-width="3"/>
        <circle cx="1362" cy="504.5" r="8.689073598491383" stroke="#08f" stroke-width="5" fill="#08f" fill-opacity="1"/>
      </g>
      <g>
        <text x="1437.047619047619" y="559.25" text-anchor="middle" dominant-baseline="middle" font-size="19.5" font-family="TCM_____" fill="#444">7th</text>
        <line x1="1287" y1="559.25" x2="1362" y2="559.25" stroke="#fc0" stroke-width="3"/>
        <circle cx="1362" cy="559.25" r="8.54400374531753" stroke="#fc0" stroke-width="5" fill="#fc0" fill-opacity="1"/>
      </g>
      <g>
        <text x="1437.047619047619" y="614.0" text-anchor="middle" dominant-baseline="middle" font-size="19.5" font-family="TCM_____" fill="#444">8th</text>
        <line x1="1287" y1="614.0" x2="1362" y2="614.0" stroke="#080" stroke-width="3"/>
        <circle cx="1362" cy="614.0" r="7.648529270389178" stroke="#080" stroke-width="5" fill="#080" fill-opacity="1"/>
      </g>
      <g>
        <text x="1437.047619047619" y="668.75" text-anchor="middle" dominant-baseline="middle" font-size="19.5" font-family="TCM_____" fill="#444">9th</text>
        <line x1="1287" y1="668.75" x2="1362" y2="668.75" stroke="#000" stroke-width="3"/>
        <circle cx="1362" cy="668.75" r="6.576473218982953" stroke="#000" stroke-width="5" fill="#000" fill-opacity="1"/>
      </g>
      <g>
        <text x="1437.047619047619" y="723.5" text-anchor="middle" dominant-baseline="middle" font-size="19.5" font-family="TCM_____" fill="#444">10th</text>
        <line x1="1287" y1="723.5" x2="1362" y2="723.5" stroke="#8f0" stroke-width="3"/>
        <circle cx="1362" cy="723.5" r="4.743416490252569" stroke="#8f0" stroke-width="5" fill="#8f0" fill-opacity="1"/>
      </g>
      <g>
        <circle cx="1362" cy="778.25" r="3.5" stroke="#ccc" stroke-width="5" fill="#ccc" fill-opacity="1"/>
      </g>
    </g>
  </g>
  <g>
    <text x="800" y="833.25" text-anchor="middle" dominant-baseline="middle" font-size="26" font-family="TCM_____" fill="#888">Data by The Department of Census and Statistics, Sri Lanka · Visualization by @nuuuwan</text>
  </g>
</svg>
