<?xml version="1.0" ?>
<svg xmlns="http://www.w3.org/2000/svg" width="1600" height="900">
  <g>
    <text x="800" y="109.5" text-anchor="middle" font-size="39" font-family="TCM_____" fill="black">Top 10 Causes of Death in Males by Age-Group (Sri Lanka)</text>
    <text x="1509" y="122.5" text-anchor="end" font-size="91" font-family="consola" fill="#f00">2000</text>
  </g>
  <g>
    <g>
      <text x="162" y="176" text-anchor="middle" dominant-baseline="middle" font-size="19.5" font-family="TCM_____" fill="#444">1-4</text>
      <g>
        <text x="86.95238095238096" y="230.75" text-anchor="middle" dominant-baseline="middle" font-size="19.5" font-family="TCM_____" fill="#444">Top</text>
        <circle cx="162" cy="230.75" r="8.18535277187245" stroke="#000" stroke-width="5" fill="#000" fill-opacity="1"/>
      </g>
      <g>
        <text x="86.95238095238096" y="285.5" text-anchor="middle" dominant-baseline="middle" font-size="19.5" font-family="TCM_____" fill="#444">2nd</text>
        <circle cx="162" cy="285.5" r="5.1478150704935" stroke="#888" stroke-width="5" fill="#888" fill-opacity="1"/>
      </g>
      <g>
        <text x="86.95238095238096" y="340.25" text-anchor="middle" dominant-baseline="middle" font-size="19.5" font-family="TCM_____" fill="#444">3rd</text>
        <circle cx="162" cy="340.25" r="5.049752469181039" stroke="#00f" stroke-width="5" fill="#00f" fill-opacity="1"/>
        <text x="162" y="340.25" text-anchor="middle" dominant-baseline="middle" font-size="19.5" font-family="TCM_____" fill="black">Birth Defects</text>
      </g>
      <g>
        <text x="86.95238095238096" y="395.0" text-anchor="middle" dominant-baseline="middle" font-size="19.5" font-family="TCM_____" fill="#444">4th</text>
        <circle cx="162" cy="395.0" r="4.898979485566356" stroke="#080" stroke-width="5" fill="#080" fill-opacity="1"/>
      </g>
      <g>
        <text x="86.95238095238096" y="449.75" text-anchor="middle" dominant-baseline="middle" font-size="19.5" font-family="TCM_____" fill="#444">5th</text>
        <circle cx="162" cy="449.75" r="4.301162633521313" stroke="#08f" stroke-width="5" fill="#08f" fill-opacity="1"/>
      </g>
      <g>
        <text x="86.95238095238096" y="504.5" text-anchor="middle" dominant-baseline="middle" font-size="19.5" font-family="TCM_____" fill="#444">6th</text>
        <circle cx="162" cy="504.5" r="4.2130748865881795" stroke="#f80" stroke-width="5" fill="#f80" fill-opacity="1"/>
      </g>
      <g>
        <text x="86.95238095238096" y="559.25" text-anchor="middle" dominant-baseline="middle" font-size="19.5" font-family="TCM_____" fill="#444">7th</text>
        <circle cx="162" cy="559.25" r="3.1622776601683795" stroke="#f00" stroke-width="5" fill="#f00" fill-opacity="1"/>
      </g>
      <g>
        <text x="86.95238095238096" y="614.0" text-anchor="middle" dominant-baseline="middle" font-size="19.5" font-family="TCM_____" fill="#444">8th</text>
        <circle cx="162" cy="614.0" r="3.0413812651491097" stroke="#ccc" stroke-width="5" fill="#ccc" fill-opacity="1"/>
      </g>
      <g>
        <text x="86.95238095238096" y="668.75" text-anchor="middle" dominant-baseline="middle" font-size="19.5" font-family="TCM_____" fill="#444">9th</text>
        <circle cx="162" cy="668.75" r="2.449489742783178" stroke="#8f0" stroke-width="5" fill="#8f0" fill-opacity="1"/>
      </g>
      <g>
        <text x="86.95238095238096" y="723.5" text-anchor="middle" dominant-baseline="middle" font-size="19.5" font-family="TCM_____" fill="#444">10th</text>
        <circle cx="162" cy="723.5" r="1.8708286933869707" stroke="#fc0" stroke-width="5" fill="#fc0" fill-opacity="1"/>
      </g>
      <g>
        <text x="86.95238095238096" y="778.25" text-anchor="middle" dominant-baseline="middle" font-size="19.5" font-family="TCM_____" fill="#444">All Others</text>
        <circle cx="162" cy="778.25" r="1.6583123951777" stroke="#ccc" stroke-width="5" fill="#ccc" fill-opacity="1"/>
      </g>
    </g>
    <g>
      <text x="237" y="176" text-anchor="middle" dominant-baseline="middle" font-size="19.5" font-family="TCM_____" fill="#444">5-9</text>
      <g>
        <line x1="162" y1="230.75" x2="237" y2="230.75" stroke="#000" stroke-width="3"/>
        <circle cx="237" cy="230.75" r="6.164414002968976" stroke="#000" stroke-width="5" fill="#000" fill-opacity="1"/>
      </g>
      <g>
        <line x1="162" y1="340.25" x2="237" y2="285.5" stroke="#00f" stroke-width="3"/>
        <circle cx="237" cy="285.5" r="3.0" stroke="#00f" stroke-width="5" fill="#00f" fill-opacity="1"/>
      </g>
      <g>
        <line x1="162" y1="449.75" x2="237" y2="340.25" stroke="#08f" stroke-width="3"/>
        <circle cx="237" cy="340.25" r="2.9154759474226504" stroke="#08f" stroke-width="5" fill="#08f" fill-opacity="1"/>
      </g>
      <g>
        <line x1="162" y1="559.25" x2="237" y2="395.0" stroke="#f00" stroke-width="3"/>
        <circle cx="237" cy="395.0" r="2.6457513110645907" stroke="#f00" stroke-width="5" fill="#f00" fill-opacity="1"/>
      </g>
      <g>
        <line x1="162" y1="395.0" x2="237" y2="449.75" stroke="#080" stroke-width="3"/>
        <circle cx="237" cy="449.75" r="2.449489742783178" stroke="#080" stroke-width="5" fill="#080" fill-opacity="1"/>
      </g>
      <g>
        <line x1="162" y1="285.5" x2="237" y2="504.5" stroke="#888" stroke-width="3"/>
        <circle cx="237" cy="504.5" r="2.3979157616563596" stroke="#888" stroke-width="5" fill="#888" fill-opacity="1"/>
      </g>
      <g>
        <line x1="162" y1="504.5" x2="237" y2="559.25" stroke="#f80" stroke-width="3"/>
        <circle cx="237" cy="559.25" r="2.1213203435596424" stroke="#f80" stroke-width="5" fill="#f80" fill-opacity="1"/>
      </g>
      <g>
        <line x1="162" y1="614.0" x2="237" y2="614.0" stroke="#ccc" stroke-width="3"/>
        <circle cx="237" cy="614.0" r="1.7320508075688772" stroke="#ccc" stroke-width="5" fill="#ccc" fill-opacity="1"/>
      </g>
      <g>
        <line x1="162" y1="723.5" x2="237" y2="668.75" stroke="#fc0" stroke-width="3"/>
        <circle cx="237" cy="668.75" r="1.4142135623730951" stroke="#fc0" stroke-width="5" fill="#fc0" fill-opacity="1"/>
      </g>
      <g>
        <line x1="162" y1="668.75" x2="237" y2="723.5" stroke="#8f0" stroke-width="3"/>
        <circle cx="237" cy="723.5" r="1.224744871391589" stroke="#8f0" stroke-width="5" fill="#8f0" fill-opacity="1"/>
      </g>
      <g>
        <circle cx="237" cy="778.25" r="1.5811388300841898" stroke="#ccc" stroke-width="5" fill="#ccc" fill-opacity="1"/>
      </g>
    </g>
    <g>
      <text x="312" y="176" text-anchor="middle" dominant-baseline="middle" font-size="19.5" font-family="TCM_____" fill="#444">15-19</text>
      <g>
        <line x1="237" y1="230.75" x2="312" y2="230.75" stroke="#000" stroke-width="3"/>
        <circle cx="312" cy="230.75" r="17.029386365926403" stroke="#000" stroke-width="5" fill="#000" fill-opacity="1"/>
      </g>
      <g>
        <line x1="237" y1="340.25" x2="312" y2="285.5" stroke="#08f" stroke-width="3"/>
        <circle cx="312" cy="285.5" r="3.5355339059327378" stroke="#08f" stroke-width="5" fill="#08f" fill-opacity="1"/>
      </g>
      <g>
        <line x1="237" y1="395.0" x2="312" y2="340.25" stroke="#f00" stroke-width="3"/>
        <circle cx="312" cy="340.25" r="3.3166247903554" stroke="#f00" stroke-width="5" fill="#f00" fill-opacity="1"/>
      </g>
      <g>
        <line x1="237" y1="504.5" x2="312" y2="395.0" stroke="#888" stroke-width="3"/>
        <circle cx="312" cy="395.0" r="3.3166247903554" stroke="#888" stroke-width="5" fill="#888" fill-opacity="1"/>
      </g>
      <g>
        <line x1="237" y1="449.75" x2="312" y2="449.75" stroke="#080" stroke-width="3"/>
        <circle cx="312" cy="449.75" r="3.24037034920393" stroke="#080" stroke-width="5" fill="#080" fill-opacity="1"/>
      </g>
      <g>
        <line x1="237" y1="285.5" x2="312" y2="504.5" stroke="#00f" stroke-width="3"/>
        <circle cx="312" cy="504.5" r="2.9154759474226504" stroke="#00f" stroke-width="5" fill="#00f" fill-opacity="1"/>
      </g>
      <g>
        <line x1="237" y1="559.25" x2="312" y2="559.25" stroke="#f80" stroke-width="3"/>
        <circle cx="312" cy="559.25" r="2.5495097567963922" stroke="#f80" stroke-width="5" fill="#f80" fill-opacity="1"/>
      </g>
      <g>
        <line x1="237" y1="614.0" x2="312" y2="614.0" stroke="#ccc" stroke-width="3"/>
        <circle cx="312" cy="614.0" r="2.29128784747792" stroke="#ccc" stroke-width="5" fill="#ccc" fill-opacity="1"/>
      </g>
      <g>
        <line x1="237" y1="668.75" x2="312" y2="668.75" stroke="#fc0" stroke-width="3"/>
        <circle cx="312" cy="668.75" r="2.0615528128088303" stroke="#fc0" stroke-width="5" fill="#fc0" fill-opacity="1"/>
      </g>
      <g>
        <line x1="237" y1="723.5" x2="312" y2="723.5" stroke="#8f0" stroke-width="3"/>
        <circle cx="312" cy="723.5" r="1.5811388300841898" stroke="#8f0" stroke-width="5" fill="#8f0" fill-opacity="1"/>
      </g>
      <g>
        <circle cx="312" cy="778.25" r="1.9364916731037085" stroke="#ccc" stroke-width="5" fill="#ccc" fill-opacity="1"/>
      </g>
    </g>
    <g>
      <text x="387" y="176" text-anchor="middle" dominant-baseline="middle" font-size="19.5" font-family="TCM_____" fill="#444">20-24</text>
      <g>
        <line x1="312" y1="230.75" x2="387" y2="230.75" stroke="#000" stroke-width="3"/>
        <circle cx="387" cy="230.75" r="24.984995497297973" stroke="#000" stroke-width="5" fill="#000" fill-opacity="1"/>
        <text x="387" y="230.75" text-anchor="middle" dominant-baseline="middle" font-size="19.5" font-family="TCM_____" fill="black">Accidents / Injuries</text>
      </g>
      <g>
        <line x1="312" y1="340.25" x2="387" y2="285.5" stroke="#f00" stroke-width="3"/>
        <circle cx="387" cy="285.5" r="4.153311931459037" stroke="#f00" stroke-width="5" fill="#f00" fill-opacity="1"/>
      </g>
      <g>
        <line x1="312" y1="285.5" x2="387" y2="340.25" stroke="#08f" stroke-width="3"/>
        <circle cx="387" cy="340.25" r="4.123105625617661" stroke="#08f" stroke-width="5" fill="#08f" fill-opacity="1"/>
      </g>
      <g>
        <line x1="312" y1="449.75" x2="387" y2="395.0" stroke="#080" stroke-width="3"/>
        <circle cx="387" cy="395.0" r="3.605551275463989" stroke="#080" stroke-width="5" fill="#080" fill-opacity="1"/>
      </g>
      <g>
        <line x1="312" y1="395.0" x2="387" y2="449.75" stroke="#888" stroke-width="3"/>
        <circle cx="387" cy="449.75" r="3.278719262151" stroke="#888" stroke-width="5" fill="#888" fill-opacity="1"/>
      </g>
      <g>
        <line x1="312" y1="559.25" x2="387" y2="504.5" stroke="#f80" stroke-width="3"/>
        <circle cx="387" cy="504.5" r="3.1622776601683795" stroke="#f80" stroke-width="5" fill="#f80" fill-opacity="1"/>
      </g>
      <g>
        <line x1="312" y1="614.0" x2="387" y2="559.25" stroke="#ccc" stroke-width="3"/>
        <circle cx="387" cy="559.25" r="2.598076211353316" stroke="#ccc" stroke-width="5" fill="#ccc" fill-opacity="1"/>
      </g>
      <g>
        <line x1="312" y1="504.5" x2="387" y2="614.0" stroke="#00f" stroke-width="3"/>
        <circle cx="387" cy="614.0" r="2.0615528128088303" stroke="#00f" stroke-width="5" fill="#00f" fill-opacity="1"/>
      </g>
      <g>
        <line x1="312" y1="668.75" x2="387" y2="668.75" stroke="#fc0" stroke-width="3"/>
        <circle cx="387" cy="668.75" r="1.9364916731037085" stroke="#fc0" stroke-width="5" fill="#fc0" fill-opacity="1"/>
      </g>
      <g>
        <line x1="312" y1="723.5" x2="387" y2="723.5" stroke="#8f0" stroke-width="3"/>
        <circle cx="387" cy="723.5" r="1.8027756377319946" stroke="#8f0" stroke-width="5" fill="#8f0" fill-opacity="1"/>
      </g>
      <g>
        <circle cx="387" cy="778.25" r="1.9364916731037085" stroke="#ccc" stroke-width="5" fill="#ccc" fill-opacity="1"/>
      </g>
    </g>
    <g>
      <text x="462" y="176" text-anchor="middle" dominant-baseline="middle" font-size="19.5" font-family="TCM_____" fill="#444">25-29</text>
      <g>
        <line x1="387" y1="230.75" x2="462" y2="230.75" stroke="#000" stroke-width="3"/>
        <circle cx="462" cy="230.75" r="20.566963801203133" stroke="#000" stroke-width="5" fill="#000" fill-opacity="1"/>
      </g>
      <g>
        <line x1="387" y1="285.5" x2="462" y2="285.5" stroke="#f00" stroke-width="3"/>
        <circle cx="462" cy="285.5" r="5.0990195135927845" stroke="#f00" stroke-width="5" fill="#f00" fill-opacity="1"/>
      </g>
      <g>
        <line x1="387" y1="395.0" x2="462" y2="340.25" stroke="#080" stroke-width="3"/>
        <circle cx="462" cy="340.25" r="3.968626966596886" stroke="#080" stroke-width="5" fill="#080" fill-opacity="1"/>
      </g>
      <g>
        <line x1="387" y1="340.25" x2="462" y2="395.0" stroke="#08f" stroke-width="3"/>
        <circle cx="462" cy="395.0" r="3.640054944640259" stroke="#08f" stroke-width="5" fill="#08f" fill-opacity="1"/>
      </g>
      <g>
        <line x1="387" y1="449.75" x2="462" y2="449.75" stroke="#888" stroke-width="3"/>
        <circle cx="462" cy="449.75" r="3.3541019662496847" stroke="#888" stroke-width="5" fill="#888" fill-opacity="1"/>
      </g>
      <g>
        <line x1="387" y1="559.25" x2="462" y2="504.5" stroke="#ccc" stroke-width="3"/>
        <circle cx="462" cy="504.5" r="3.278719262151" stroke="#ccc" stroke-width="5" fill="#ccc" fill-opacity="1"/>
      </g>
      <g>
        <line x1="387" y1="504.5" x2="462" y2="559.25" stroke="#f80" stroke-width="3"/>
        <circle cx="462" cy="559.25" r="3.0" stroke="#f80" stroke-width="5" fill="#f80" fill-opacity="1"/>
      </g>
      <g>
        <line x1="387" y1="668.75" x2="462" y2="614.0" stroke="#fc0" stroke-width="3"/>
        <circle cx="462" cy="614.0" r="2.7838821814150108" stroke="#fc0" stroke-width="5" fill="#fc0" fill-opacity="1"/>
      </g>
      <g>
        <line x1="387" y1="723.5" x2="462" y2="668.75" stroke="#8f0" stroke-width="3"/>
        <circle cx="462" cy="668.75" r="2.7386127875258306" stroke="#8f0" stroke-width="5" fill="#8f0" fill-opacity="1"/>
      </g>
      <g>
        <circle cx="462" cy="723.5" r="2.449489742783178" stroke="#f08" stroke-width="5" fill="#f08" fill-opacity="1"/>
      </g>
      <g>
        <circle cx="462" cy="778.25" r="2.0615528128088303" stroke="#ccc" stroke-width="5" fill="#ccc" fill-opacity="1"/>
      </g>
    </g>
    <g>
      <text x="537" y="176" text-anchor="middle" dominant-baseline="middle" font-size="19.5" font-family="TCM_____" fill="#444">30-34</text>
      <g>
        <line x1="462" y1="230.75" x2="537" y2="230.75" stroke="#000" stroke-width="3"/>
        <circle cx="537" cy="230.75" r="18.145247311624054" stroke="#000" stroke-width="5" fill="#000" fill-opacity="1"/>
      </g>
      <g>
        <line x1="462" y1="285.5" x2="537" y2="285.5" stroke="#f00" stroke-width="3"/>
        <circle cx="537" cy="285.5" r="6.324555320336759" stroke="#f00" stroke-width="5" fill="#f00" fill-opacity="1"/>
      </g>
      <g>
        <line x1="462" y1="395.0" x2="537" y2="340.25" stroke="#08f" stroke-width="3"/>
        <circle cx="537" cy="340.25" r="4.444097208657794" stroke="#08f" stroke-width="5" fill="#08f" fill-opacity="1"/>
      </g>
      <g>
        <line x1="462" y1="668.75" x2="537" y2="395.0" stroke="#8f0" stroke-width="3"/>
        <circle cx="537" cy="395.0" r="4.301162633521313" stroke="#8f0" stroke-width="5" fill="#8f0" fill-opacity="1"/>
      </g>
      <g>
        <line x1="462" y1="449.75" x2="537" y2="449.75" stroke="#888" stroke-width="3"/>
        <circle cx="537" cy="449.75" r="4.0" stroke="#888" stroke-width="5" fill="#888" fill-opacity="1"/>
      </g>
      <g>
        <line x1="462" y1="340.25" x2="537" y2="504.5" stroke="#080" stroke-width="3"/>
        <circle cx="537" cy="504.5" r="3.872983346207417" stroke="#080" stroke-width="5" fill="#080" fill-opacity="1"/>
      </g>
      <g>
        <line x1="462" y1="504.5" x2="537" y2="559.25" stroke="#ccc" stroke-width="3"/>
        <circle cx="537" cy="559.25" r="3.427827300200522" stroke="#ccc" stroke-width="5" fill="#ccc" fill-opacity="1"/>
      </g>
      <g>
        <line x1="462" y1="559.25" x2="537" y2="614.0" stroke="#f80" stroke-width="3"/>
        <circle cx="537" cy="614.0" r="3.1622776601683795" stroke="#f80" stroke-width="5" fill="#f80" fill-opacity="1"/>
      </g>
      <g>
        <line x1="462" y1="614.0" x2="537" y2="668.75" stroke="#fc0" stroke-width="3"/>
        <circle cx="537" cy="668.75" r="3.0413812651491097" stroke="#fc0" stroke-width="5" fill="#fc0" fill-opacity="1"/>
      </g>
      <g>
        <line x1="462" y1="723.5" x2="537" y2="723.5" stroke="#f08" stroke-width="3"/>
        <circle cx="537" cy="723.5" r="2.345207879911715" stroke="#f08" stroke-width="5" fill="#f08" fill-opacity="1"/>
      </g>
      <g>
        <circle cx="537" cy="778.25" r="2.692582403567252" stroke="#ccc" stroke-width="5" fill="#ccc" fill-opacity="1"/>
      </g>
    </g>
    <g>
      <text x="612" y="176" text-anchor="middle" dominant-baseline="middle" font-size="19.5" font-family="TCM_____" fill="#444">35-39</text>
      <g>
        <line x1="537" y1="230.75" x2="612" y2="230.75" stroke="#000" stroke-width="3"/>
        <circle cx="612" cy="230.75" r="16.27114009527298" stroke="#000" stroke-width="5" fill="#000" fill-opacity="1"/>
      </g>
      <g>
        <line x1="537" y1="285.5" x2="612" y2="285.5" stroke="#f00" stroke-width="3"/>
        <circle cx="612" cy="285.5" r="8.170067319184096" stroke="#f00" stroke-width="5" fill="#f00" fill-opacity="1"/>
      </g>
      <g>
        <line x1="537" y1="395.0" x2="612" y2="340.25" stroke="#8f0" stroke-width="3"/>
        <circle cx="612" cy="340.25" r="6.363961030678928" stroke="#8f0" stroke-width="5" fill="#8f0" fill-opacity="1"/>
      </g>
      <g>
        <line x1="537" y1="504.5" x2="612" y2="395.0" stroke="#080" stroke-width="3"/>
        <circle cx="612" cy="395.0" r="5.172040216394301" stroke="#080" stroke-width="5" fill="#080" fill-opacity="1"/>
      </g>
      <g>
        <line x1="537" y1="340.25" x2="612" y2="449.75" stroke="#08f" stroke-width="3"/>
        <circle cx="612" cy="449.75" r="4.769696007084728" stroke="#08f" stroke-width="5" fill="#08f" fill-opacity="1"/>
      </g>
      <g>
        <line x1="537" y1="449.75" x2="612" y2="504.5" stroke="#888" stroke-width="3"/>
        <circle cx="612" cy="504.5" r="4.69041575982343" stroke="#888" stroke-width="5" fill="#888" fill-opacity="1"/>
      </g>
      <g>
        <line x1="537" y1="668.75" x2="612" y2="559.25" stroke="#fc0" stroke-width="3"/>
        <circle cx="612" cy="559.25" r="3.872983346207417" stroke="#fc0" stroke-width="5" fill="#fc0" fill-opacity="1"/>
      </g>
      <g>
        <line x1="537" y1="559.25" x2="612" y2="614.0" stroke="#ccc" stroke-width="3"/>
        <circle cx="612" cy="614.0" r="3.872983346207417" stroke="#ccc" stroke-width="5" fill="#ccc" fill-opacity="1"/>
      </g>
      <g>
        <line x1="537" y1="614.0" x2="612" y2="668.75" stroke="#f80" stroke-width="3"/>
        <circle cx="612" cy="668.75" r="3.3166247903554" stroke="#f80" stroke-width="5" fill="#f80" fill-opacity="1"/>
      </g>
      <g>
        <line x1="537" y1="723.5" x2="612" y2="723.5" stroke="#f08" stroke-width="3"/>
        <circle cx="612" cy="723.5" r="3.0413812651491097" stroke="#f08" stroke-width="5" fill="#f08" fill-opacity="1"/>
      </g>
      <g>
        <circle cx="612" cy="778.25" r="2.7838821814150108" stroke="#ccc" stroke-width="5" fill="#ccc" fill-opacity="1"/>
      </g>
    </g>
    <g>
      <text x="687" y="176" text-anchor="middle" dominant-baseline="middle" font-size="19.5" font-family="TCM_____" fill="#444">40-44</text>
      <g>
        <line x1="612" y1="230.75" x2="687" y2="230.75" stroke="#000" stroke-width="3"/>
        <circle cx="687" cy="230.75" r="15.280706789936126" stroke="#000" stroke-width="5" fill="#000" fill-opacity="1"/>
      </g>
      <g>
        <line x1="612" y1="285.5" x2="687" y2="285.5" stroke="#f00" stroke-width="3"/>
        <circle cx="687" cy="285.5" r="11.291589790636214" stroke="#f00" stroke-width="5" fill="#f00" fill-opacity="1"/>
      </g>
      <g>
        <line x1="612" y1="340.25" x2="687" y2="340.25" stroke="#8f0" stroke-width="3"/>
        <circle cx="687" cy="340.25" r="8.817596044274199" stroke="#8f0" stroke-width="5" fill="#8f0" fill-opacity="1"/>
      </g>
      <g>
        <line x1="612" y1="449.75" x2="687" y2="395.0" stroke="#08f" stroke-width="3"/>
        <circle cx="687" cy="395.0" r="6.819090848492928" stroke="#08f" stroke-width="5" fill="#08f" fill-opacity="1"/>
      </g>
      <g>
        <line x1="612" y1="504.5" x2="687" y2="449.75" stroke="#888" stroke-width="3"/>
        <circle cx="687" cy="449.75" r="6.224949798994366" stroke="#888" stroke-width="5" fill="#888" fill-opacity="1"/>
      </g>
      <g>
        <line x1="612" y1="395.0" x2="687" y2="504.5" stroke="#080" stroke-width="3"/>
        <circle cx="687" cy="504.5" r="5.873670062235365" stroke="#080" stroke-width="5" fill="#080" fill-opacity="1"/>
      </g>
      <g>
        <line x1="612" y1="559.25" x2="687" y2="559.25" stroke="#fc0" stroke-width="3"/>
        <circle cx="687" cy="559.25" r="5.315072906367325" stroke="#fc0" stroke-width="5" fill="#fc0" fill-opacity="1"/>
      </g>
      <g>
        <line x1="612" y1="723.5" x2="687" y2="614.0" stroke="#f08" stroke-width="3"/>
        <circle cx="687" cy="614.0" r="5.196152422706632" stroke="#f08" stroke-width="5" fill="#f08" fill-opacity="1"/>
      </g>
      <g>
        <line x1="612" y1="614.0" x2="687" y2="668.75" stroke="#ccc" stroke-width="3"/>
        <circle cx="687" cy="668.75" r="4.444097208657794" stroke="#ccc" stroke-width="5" fill="#ccc" fill-opacity="1"/>
      </g>
      <g>
        <line x1="612" y1="668.75" x2="687" y2="723.5" stroke="#f80" stroke-width="3"/>
        <circle cx="687" cy="723.5" r="4.123105625617661" stroke="#f80" stroke-width="5" fill="#f80" fill-opacity="1"/>
      </g>
      <g>
        <circle cx="687" cy="778.25" r="3.0413812651491097" stroke="#ccc" stroke-width="5" fill="#ccc" fill-opacity="1"/>
      </g>
    </g>
    <g>
      <text x="762" y="176" text-anchor="middle" dominant-baseline="middle" font-size="19.5" font-family="TCM_____" fill="#444">45-49</text>
      <g>
        <line x1="687" y1="230.75" x2="762" y2="230.75" stroke="#000" stroke-width="3"/>
        <circle cx="762" cy="230.75" r="15.716233645501712" stroke="#000" stroke-width="5" fill="#000" fill-opacity="1"/>
      </g>
      <g>
        <line x1="687" y1="285.5" x2="762" y2="285.5" stroke="#f00" stroke-width="3"/>
        <circle cx="762" cy="285.5" r="15.56438241627338" stroke="#f00" stroke-width="5" fill="#f00" fill-opacity="1"/>
      </g>
      <g>
        <line x1="687" y1="340.25" x2="762" y2="340.25" stroke="#8f0" stroke-width="3"/>
        <circle cx="762" cy="340.25" r="10.571187255932987" stroke="#8f0" stroke-width="5" fill="#8f0" fill-opacity="1"/>
      </g>
      <g>
        <line x1="687" y1="395.0" x2="762" y2="395.0" stroke="#08f" stroke-width="3"/>
        <circle cx="762" cy="395.0" r="9.591663046625438" stroke="#08f" stroke-width="5" fill="#08f" fill-opacity="1"/>
      </g>
      <g>
        <line x1="687" y1="449.75" x2="762" y2="449.75" stroke="#888" stroke-width="3"/>
        <circle cx="762" cy="449.75" r="7.729812416870153" stroke="#888" stroke-width="5" fill="#888" fill-opacity="1"/>
      </g>
      <g>
        <line x1="687" y1="504.5" x2="762" y2="504.5" stroke="#080" stroke-width="3"/>
        <circle cx="762" cy="504.5" r="7.14142842854285" stroke="#080" stroke-width="5" fill="#080" fill-opacity="1"/>
      </g>
      <g>
        <line x1="687" y1="614.0" x2="762" y2="559.25" stroke="#f08" stroke-width="3"/>
        <circle cx="762" cy="559.25" r="6.946221994724902" stroke="#f08" stroke-width="5" fill="#f08" fill-opacity="1"/>
      </g>
      <g>
        <line x1="687" y1="559.25" x2="762" y2="614.0" stroke="#fc0" stroke-width="3"/>
        <circle cx="762" cy="614.0" r="6.5" stroke="#fc0" stroke-width="5" fill="#fc0" fill-opacity="1"/>
      </g>
      <g>
        <line x1="687" y1="668.75" x2="762" y2="668.75" stroke="#ccc" stroke-width="3"/>
        <circle cx="762" cy="668.75" r="4.924428900898052" stroke="#ccc" stroke-width="5" fill="#ccc" fill-opacity="1"/>
      </g>
      <g>
        <line x1="687" y1="723.5" x2="762" y2="723.5" stroke="#f80" stroke-width="3"/>
        <circle cx="762" cy="723.5" r="4.387482193696061" stroke="#f80" stroke-width="5" fill="#f80" fill-opacity="1"/>
      </g>
      <g>
        <circle cx="762" cy="778.25" r="4.415880433163924" stroke="#ccc" stroke-width="5" fill="#ccc" fill-opacity="1"/>
      </g>
    </g>
    <g>
      <text x="837" y="176" text-anchor="middle" dominant-baseline="middle" font-size="19.5" font-family="TCM_____" fill="#444">50-54</text>
      <g>
        <line x1="762" y1="285.5" x2="837" y2="230.75" stroke="#f00" stroke-width="3"/>
        <circle cx="837" cy="230.75" r="19.019726601610234" stroke="#f00" stroke-width="5" fill="#f00" fill-opacity="1"/>
      </g>
      <g>
        <line x1="762" y1="230.75" x2="837" y2="285.5" stroke="#000" stroke-width="3"/>
        <circle cx="837" cy="285.5" r="14.739402972983676" stroke="#000" stroke-width="5" fill="#000" fill-opacity="1"/>
      </g>
      <g>
        <line x1="762" y1="395.0" x2="837" y2="340.25" stroke="#08f" stroke-width="3"/>
        <circle cx="837" cy="340.25" r="12.083045973594572" stroke="#08f" stroke-width="5" fill="#08f" fill-opacity="1"/>
      </g>
      <g>
        <line x1="762" y1="340.25" x2="837" y2="395.0" stroke="#8f0" stroke-width="3"/>
        <circle cx="837" cy="395.0" r="10.464224768228174" stroke="#8f0" stroke-width="5" fill="#8f0" fill-opacity="1"/>
      </g>
      <g>
        <line x1="762" y1="449.75" x2="837" y2="449.75" stroke="#888" stroke-width="3"/>
        <circle cx="837" cy="449.75" r="9.433981132056603" stroke="#888" stroke-width="5" fill="#888" fill-opacity="1"/>
      </g>
      <g>
        <line x1="762" y1="559.25" x2="837" y2="504.5" stroke="#f08" stroke-width="3"/>
        <circle cx="837" cy="504.5" r="8.817596044274199" stroke="#f08" stroke-width="5" fill="#f08" fill-opacity="1"/>
      </g>
      <g>
        <line x1="762" y1="504.5" x2="837" y2="559.25" stroke="#080" stroke-width="3"/>
        <circle cx="837" cy="559.25" r="7.762087348130012" stroke="#080" stroke-width="5" fill="#080" fill-opacity="1"/>
      </g>
      <g>
        <line x1="762" y1="614.0" x2="837" y2="614.0" stroke="#fc0" stroke-width="3"/>
        <circle cx="837" cy="614.0" r="7.681145747868608" stroke="#fc0" stroke-width="5" fill="#fc0" fill-opacity="1"/>
      </g>
      <g>
        <line x1="762" y1="668.75" x2="837" y2="668.75" stroke="#ccc" stroke-width="3"/>
        <circle cx="837" cy="668.75" r="5.937171043518958" stroke="#ccc" stroke-width="5" fill="#ccc" fill-opacity="1"/>
      </g>
      <g>
        <line x1="762" y1="723.5" x2="837" y2="723.5" stroke="#f80" stroke-width="3"/>
        <circle cx="837" cy="723.5" r="5.809475019311125" stroke="#f80" stroke-width="5" fill="#f80" fill-opacity="1"/>
      </g>
      <g>
        <circle cx="837" cy="778.25" r="3.8078865529319543" stroke="#ccc" stroke-width="5" fill="#ccc" fill-opacity="1"/>
      </g>
    </g>
    <g>
      <text x="912" y="176" text-anchor="middle" dominant-baseline="middle" font-size="19.5" font-family="TCM_____" fill="#444">55-59</text>
      <g>
        <line x1="837" y1="230.75" x2="912" y2="230.75" stroke="#f00" stroke-width="3"/>
        <circle cx="912" cy="230.75" r="22.643983748448505" stroke="#f00" stroke-width="5" fill="#f00" fill-opacity="1"/>
      </g>
      <g>
        <line x1="837" y1="340.25" x2="912" y2="285.5" stroke="#08f" stroke-width="3"/>
        <circle cx="912" cy="285.5" r="14.33527118683145" stroke="#08f" stroke-width="5" fill="#08f" fill-opacity="1"/>
      </g>
      <g>
        <line x1="837" y1="285.5" x2="912" y2="340.25" stroke="#000" stroke-width="3"/>
        <circle cx="912" cy="340.25" r="14.142135623730951" stroke="#000" stroke-width="5" fill="#000" fill-opacity="1"/>
      </g>
      <g>
        <line x1="837" y1="449.75" x2="912" y2="395.0" stroke="#888" stroke-width="3"/>
        <circle cx="912" cy="395.0" r="11.40175425099138" stroke="#888" stroke-width="5" fill="#888" fill-opacity="1"/>
      </g>
      <g>
        <line x1="837" y1="504.5" x2="912" y2="449.75" stroke="#f08" stroke-width="3"/>
        <circle cx="912" cy="449.75" r="11.034038245356955" stroke="#f08" stroke-width="5" fill="#f08" fill-opacity="1"/>
      </g>
      <g>
        <line x1="837" y1="395.0" x2="912" y2="504.5" stroke="#8f0" stroke-width="3"/>
        <circle cx="912" cy="504.5" r="10.723805294763608" stroke="#8f0" stroke-width="5" fill="#8f0" fill-opacity="1"/>
        <text x="912" y="504.5" text-anchor="middle" dominant-baseline="middle" font-size="19.5" font-family="TCM_____" fill="black">Digestive</text>
      </g>
      <g>
        <line x1="837" y1="614.0" x2="912" y2="559.25" stroke="#fc0" stroke-width="3"/>
        <circle cx="912" cy="559.25" r="8.602325267042627" stroke="#fc0" stroke-width="5" fill="#fc0" fill-opacity="1"/>
      </g>
      <g>
        <line x1="837" y1="723.5" x2="912" y2="614.0" stroke="#f80" stroke-width="3"/>
        <circle cx="912" cy="614.0" r="8.031189202104505" stroke="#f80" stroke-width="5" fill="#f80" fill-opacity="1"/>
      </g>
      <g>
        <line x1="837" y1="559.25" x2="912" y2="668.75" stroke="#080" stroke-width="3"/>
        <circle cx="912" cy="668.75" r="7.92148975887743" stroke="#080" stroke-width="5" fill="#080" fill-opacity="1"/>
        <text x="912" y="668.75" text-anchor="middle" dominant-baseline="middle" font-size="19.5" font-family="TCM_____" fill="black">Infectious</text>
      </g>
      <g>
        <line x1="837" y1="668.75" x2="912" y2="723.5" stroke="#ccc" stroke-width="3"/>
        <circle cx="912" cy="723.5" r="6.946221994724902" stroke="#ccc" stroke-width="5" fill="#ccc" fill-opacity="1"/>
      </g>
      <g>
        <circle cx="912" cy="778.25" r="4.123105625617661" stroke="#ccc" stroke-width="5" fill="#ccc" fill-opacity="1"/>
      </g>
    </g>
    <g>
      <text x="987" y="176" text-anchor="middle" dominant-baseline="middle" font-size="19.5" font-family="TCM_____" fill="#444">60-64</text>
      <g>
        <line x1="912" y1="230.75" x2="987" y2="230.75" stroke="#f00" stroke-width="3"/>
        <circle cx="987" cy="230.75" r="24.300205760445735" stroke="#f00" stroke-width="5" fill="#f00" fill-opacity="1"/>
      </g>
      <g>
        <line x1="912" y1="285.5" x2="987" y2="285.5" stroke="#08f" stroke-width="3"/>
        <circle cx="987" cy="285.5" r="14.849242404917497" stroke="#08f" stroke-width="5" fill="#08f" fill-opacity="1"/>
      </g>
      <g>
        <line x1="912" y1="395.0" x2="987" y2="340.25" stroke="#888" stroke-width="3"/>
        <circle cx="987" cy="340.25" r="14.053469322555197" stroke="#888" stroke-width="5" fill="#888" fill-opacity="1"/>
      </g>
      <g>
        <line x1="912" y1="449.75" x2="987" y2="395.0" stroke="#f08" stroke-width="3"/>
        <circle cx="987" cy="395.0" r="12.767145334803704" stroke="#f08" stroke-width="5" fill="#f08" fill-opacity="1"/>
      </g>
      <g>
        <line x1="912" y1="340.25" x2="987" y2="449.75" stroke="#000" stroke-width="3"/>
        <circle cx="987" cy="449.75" r="12.155245781143218" stroke="#000" stroke-width="5" fill="#000" fill-opacity="1"/>
      </g>
      <g>
        <line x1="912" y1="504.5" x2="987" y2="504.5" stroke="#8f0" stroke-width="3"/>
        <circle cx="987" cy="504.5" r="9.733961166965893" stroke="#8f0" stroke-width="5" fill="#8f0" fill-opacity="1"/>
      </g>
      <g>
        <line x1="912" y1="614.0" x2="987" y2="559.25" stroke="#f80" stroke-width="3"/>
        <circle cx="987" cy="559.25" r="9.513148795220223" stroke="#f80" stroke-width="5" fill="#f80" fill-opacity="1"/>
      </g>
      <g>
        <line x1="912" y1="559.25" x2="987" y2="614.0" stroke="#fc0" stroke-width="3"/>
        <circle cx="987" cy="614.0" r="8.831760866327848" stroke="#fc0" stroke-width="5" fill="#fc0" fill-opacity="1"/>
      </g>
      <g>
        <line x1="912" y1="668.75" x2="987" y2="668.75" stroke="#080" stroke-width="3"/>
        <circle cx="987" cy="668.75" r="7.92148975887743" stroke="#080" stroke-width="5" fill="#080" fill-opacity="1"/>
      </g>
      <g>
        <line x1="912" y1="723.5" x2="987" y2="723.5" stroke="#ccc" stroke-width="3"/>
        <circle cx="987" cy="723.5" r="7.858116822750856" stroke="#ccc" stroke-width="5" fill="#ccc" fill-opacity="1"/>
      </g>
      <g>
        <circle cx="987" cy="778.25" r="4.330127018922194" stroke="#ccc" stroke-width="5" fill="#ccc" fill-opacity="1"/>
      </g>
    </g>
    <g>
      <text x="1062" y="176" text-anchor="middle" dominant-baseline="middle" font-size="19.5" font-family="TCM_____" fill="#444">65-69</text>
      <g>
        <line x1="987" y1="230.75" x2="1062" y2="230.75" stroke="#f00" stroke-width="3"/>
        <circle cx="1062" cy="230.75" r="24.4489263567953" stroke="#f00" stroke-width="5" fill="#f00" fill-opacity="1"/>
      </g>
      <g>
        <line x1="987" y1="340.25" x2="1062" y2="285.5" stroke="#888" stroke-width="3"/>
        <circle cx="1062" cy="285.5" r="15.182226450688976" stroke="#888" stroke-width="5" fill="#888" fill-opacity="1"/>
      </g>
      <g>
        <line x1="987" y1="285.5" x2="1062" y2="340.25" stroke="#08f" stroke-width="3"/>
        <circle cx="1062" cy="340.25" r="15.008331019803634" stroke="#08f" stroke-width="5" fill="#08f" fill-opacity="1"/>
        <text x="1062" y="340.25" text-anchor="middle" dominant-baseline="middle" font-size="19.5" font-family="TCM_____" fill="black">Cancers</text>
      </g>
      <g>
        <line x1="987" y1="395.0" x2="1062" y2="395.0" stroke="#f08" stroke-width="3"/>
        <circle cx="1062" cy="395.0" r="13.592277219068187" stroke="#f08" stroke-width="5" fill="#f08" fill-opacity="1"/>
      </g>
      <g>
        <line x1="987" y1="559.25" x2="1062" y2="449.75" stroke="#f80" stroke-width="3"/>
        <circle cx="1062" cy="449.75" r="11.779218989389747" stroke="#f80" stroke-width="5" fill="#f80" fill-opacity="1"/>
      </g>
      <g>
        <line x1="987" y1="449.75" x2="1062" y2="504.5" stroke="#000" stroke-width="3"/>
        <circle cx="1062" cy="504.5" r="11.269427669584644" stroke="#000" stroke-width="5" fill="#000" fill-opacity="1"/>
      </g>
      <g>
        <line x1="987" y1="723.5" x2="1062" y2="559.25" stroke="#ccc" stroke-width="3"/>
        <circle cx="1062" cy="559.25" r="11.20267825120404" stroke="#ccc" stroke-width="5" fill="#ccc" fill-opacity="1"/>
      </g>
      <g>
        <line x1="987" y1="614.0" x2="1062" y2="614.0" stroke="#fc0" stroke-width="3"/>
        <circle cx="1062" cy="614.0" r="8.986100377805714" stroke="#fc0" stroke-width="5" fill="#fc0" fill-opacity="1"/>
        <text x="1062" y="614.0" text-anchor="middle" dominant-baseline="middle" font-size="19.5" font-family="TCM_____" fill="black">Genito-urinary</text>
      </g>
      <g>
        <line x1="987" y1="504.5" x2="1062" y2="668.75" stroke="#8f0" stroke-width="3"/>
        <circle cx="1062" cy="668.75" r="8.616843969807043" stroke="#8f0" stroke-width="5" fill="#8f0" fill-opacity="1"/>
      </g>
      <g>
        <line x1="987" y1="668.75" x2="1062" y2="723.5" stroke="#080" stroke-width="3"/>
        <circle cx="1062" cy="723.5" r="7.466592261534039" stroke="#080" stroke-width="5" fill="#080" fill-opacity="1"/>
      </g>
      <g>
        <circle cx="1062" cy="778.25" r="4.330127018922194" stroke="#ccc" stroke-width="5" fill="#ccc" fill-opacity="1"/>
      </g>
    </g>
    <g>
      <text x="1137" y="176" text-anchor="middle" dominant-baseline="middle" font-size="19.5" font-family="TCM_____" fill="#444">70-74</text>
      <g>
        <line x1="1062" y1="230.75" x2="1137" y2="230.75" stroke="#f00" stroke-width="3"/>
        <circle cx="1137" cy="230.75" r="25.09482018265921" stroke="#f00" stroke-width="5" fill="#f00" fill-opacity="1"/>
        <text x="1137" y="230.75" text-anchor="middle" dominant-baseline="middle" font-size="19.5" font-family="TCM_____" fill="black">Heart</text>
      </g>
      <g>
        <line x1="1062" y1="285.5" x2="1137" y2="285.5" stroke="#888" stroke-width="3"/>
        <circle cx="1137" cy="285.5" r="16.38596960817394" stroke="#888" stroke-width="5" fill="#888" fill-opacity="1"/>
      </g>
      <g>
        <line x1="1062" y1="559.25" x2="1137" y2="340.25" stroke="#ccc" stroke-width="3"/>
        <circle cx="1137" cy="340.25" r="15.890248582070704" stroke="#ccc" stroke-width="5" fill="#ccc" fill-opacity="1"/>
      </g>
      <g>
        <line x1="1062" y1="449.75" x2="1137" y2="395.0" stroke="#f80" stroke-width="3"/>
        <circle cx="1137" cy="395.0" r="14.33527118683145" stroke="#f80" stroke-width="5" fill="#f80" fill-opacity="1"/>
      </g>
      <g>
        <line x1="1062" y1="340.25" x2="1137" y2="449.75" stroke="#08f" stroke-width="3"/>
        <circle cx="1137" cy="449.75" r="13.910427743243556" stroke="#08f" stroke-width="5" fill="#08f" fill-opacity="1"/>
      </g>
      <g>
        <line x1="1062" y1="395.0" x2="1137" y2="504.5" stroke="#f08" stroke-width="3"/>
        <circle cx="1137" cy="504.5" r="13.619838471876236" stroke="#f08" stroke-width="5" fill="#f08" fill-opacity="1"/>
        <text x="1137" y="504.5" text-anchor="middle" dominant-baseline="middle" font-size="19.5" font-family="TCM_____" fill="black">Metabolic</text>
      </g>
      <g>
        <line x1="1062" y1="504.5" x2="1137" y2="559.25" stroke="#000" stroke-width="3"/>
        <circle cx="1137" cy="559.25" r="10.488088481701515" stroke="#000" stroke-width="5" fill="#000" fill-opacity="1"/>
      </g>
      <g>
        <line x1="1062" y1="614.0" x2="1137" y2="614.0" stroke="#fc0" stroke-width="3"/>
        <circle cx="1137" cy="614.0" r="8.916277250063503" stroke="#fc0" stroke-width="5" fill="#fc0" fill-opacity="1"/>
      </g>
      <g>
        <line x1="1062" y1="723.5" x2="1137" y2="668.75" stroke="#080" stroke-width="3"/>
        <circle cx="1137" cy="668.75" r="7.7781745930520225" stroke="#080" stroke-width="5" fill="#080" fill-opacity="1"/>
      </g>
      <g>
        <line x1="1062" y1="668.75" x2="1137" y2="723.5" stroke="#8f0" stroke-width="3"/>
        <circle cx="1137" cy="723.5" r="7.0710678118654755" stroke="#8f0" stroke-width="5" fill="#8f0" fill-opacity="1"/>
      </g>
      <g>
        <circle cx="1137" cy="778.25" r="3.640054944640259" stroke="#ccc" stroke-width="5" fill="#ccc" fill-opacity="1"/>
      </g>
    </g>
    <g>
      <text x="1212" y="176" text-anchor="middle" dominant-baseline="middle" font-size="19.5" font-family="TCM_____" fill="#444">75-79</text>
      <g>
        <line x1="1137" y1="230.75" x2="1212" y2="230.75" stroke="#f00" stroke-width="3"/>
        <circle cx="1212" cy="230.75" r="23.521266972678152" stroke="#f00" stroke-width="5" fill="#f00" fill-opacity="1"/>
      </g>
      <g>
        <line x1="1137" y1="340.25" x2="1212" y2="285.5" stroke="#ccc" stroke-width="3"/>
        <circle cx="1212" cy="285.5" r="18.934096228761486" stroke="#ccc" stroke-width="5" fill="#ccc" fill-opacity="1"/>
      </g>
      <g>
        <line x1="1137" y1="285.5" x2="1212" y2="340.25" stroke="#888" stroke-width="3"/>
        <circle cx="1212" cy="340.25" r="16.545392107774298" stroke="#888" stroke-width="5" fill="#888" fill-opacity="1"/>
        <text x="1212" y="340.25" text-anchor="middle" dominant-baseline="middle" font-size="19.5" font-family="TCM_____" fill="black">Respiratory</text>
      </g>
      <g>
        <line x1="1137" y1="395.0" x2="1212" y2="395.0" stroke="#f80" stroke-width="3"/>
        <circle cx="1212" cy="395.0" r="15.945218719101975" stroke="#f80" stroke-width="5" fill="#f80" fill-opacity="1"/>
        <text x="1212" y="395.0" text-anchor="middle" dominant-baseline="middle" font-size="19.5" font-family="TCM_____" fill="black">Nervous</text>
      </g>
      <g>
        <line x1="1137" y1="504.5" x2="1212" y2="449.75" stroke="#f08" stroke-width="3"/>
        <circle cx="1212" cy="449.75" r="13.038404810405298" stroke="#f08" stroke-width="5" fill="#f08" fill-opacity="1"/>
      </g>
      <g>
        <line x1="1137" y1="449.75" x2="1212" y2="504.5" stroke="#08f" stroke-width="3"/>
        <circle cx="1212" cy="504.5" r="11.863810517704673" stroke="#08f" stroke-width="5" fill="#08f" fill-opacity="1"/>
      </g>
      <g>
        <line x1="1137" y1="559.25" x2="1212" y2="559.25" stroke="#000" stroke-width="3"/>
        <circle cx="1212" cy="559.25" r="8.689073598491383" stroke="#000" stroke-width="5" fill="#000" fill-opacity="1"/>
      </g>
      <g>
        <line x1="1137" y1="614.0" x2="1212" y2="614.0" stroke="#fc0" stroke-width="3"/>
        <circle cx="1212" cy="614.0" r="8.108637370113428" stroke="#fc0" stroke-width="5" fill="#fc0" fill-opacity="1"/>
      </g>
      <g>
        <line x1="1137" y1="668.75" x2="1212" y2="668.75" stroke="#080" stroke-width="3"/>
        <circle cx="1212" cy="668.75" r="6.708203932499369" stroke="#080" stroke-width="5" fill="#080" fill-opacity="1"/>
      </g>
      <g>
        <line x1="1137" y1="723.5" x2="1212" y2="723.5" stroke="#8f0" stroke-width="3"/>
        <circle cx="1212" cy="723.5" r="5.830951894845301" stroke="#8f0" stroke-width="5" fill="#8f0" fill-opacity="1"/>
      </g>
      <g>
        <circle cx="1212" cy="778.25" r="3.391164991562634" stroke="#ccc" stroke-width="5" fill="#ccc" fill-opacity="1"/>
      </g>
    </g>
    <g>
      <text x="1287" y="176" text-anchor="middle" dominant-baseline="middle" font-size="19.5" font-family="TCM_____" fill="#444">80-84</text>
      <g>
        <line x1="1212" y1="285.5" x2="1287" y2="230.75" stroke="#ccc" stroke-width="3"/>
        <circle cx="1287" cy="230.75" r="21.621748310439653" stroke="#ccc" stroke-width="5" fill="#ccc" fill-opacity="1"/>
      </g>
      <g>
        <line x1="1212" y1="230.75" x2="1287" y2="285.5" stroke="#f00" stroke-width="3"/>
        <circle cx="1287" cy="285.5" r="21.10094784600919" stroke="#f00" stroke-width="5" fill="#f00" fill-opacity="1"/>
      </g>
      <g>
        <line x1="1212" y1="340.25" x2="1287" y2="340.25" stroke="#888" stroke-width="3"/>
        <circle cx="1287" cy="340.25" r="14.832396974191326" stroke="#888" stroke-width="5" fill="#888" fill-opacity="1"/>
      </g>
      <g>
        <line x1="1212" y1="395.0" x2="1287" y2="395.0" stroke="#f80" stroke-width="3"/>
        <circle cx="1287" cy="395.0" r="14.534441853748634" stroke="#f80" stroke-width="5" fill="#f80" fill-opacity="1"/>
      </g>
      <g>
        <line x1="1212" y1="449.75" x2="1287" y2="449.75" stroke="#f08" stroke-width="3"/>
        <circle cx="1287" cy="449.75" r="11.651180197731044" stroke="#f08" stroke-width="5" fill="#f08" fill-opacity="1"/>
      </g>
      <g>
        <line x1="1212" y1="504.5" x2="1287" y2="504.5" stroke="#08f" stroke-width="3"/>
        <circle cx="1287" cy="504.5" r="9.287087810503355" stroke="#08f" stroke-width="5" fill="#08f" fill-opacity="1"/>
      </g>
      <g>
        <line x1="1212" y1="559.25" x2="1287" y2="559.25" stroke="#000" stroke-width="3"/>
        <circle cx="1287" cy="559.25" r="7.599342076785332" stroke="#000" stroke-width="5" fill="#000" fill-opacity="1"/>
      </g>
      <g>
        <line x1="1212" y1="614.0" x2="1287" y2="614.0" stroke="#fc0" stroke-width="3"/>
        <circle cx="1287" cy="614.0" r="7.433034373659253" stroke="#fc0" stroke-width="5" fill="#fc0" fill-opacity="1"/>
      </g>
      <g>
        <line x1="1212" y1="668.75" x2="1287" y2="668.75" stroke="#080" stroke-width="3"/>
        <circle cx="1287" cy="668.75" r="6.020797289396148" stroke="#080" stroke-width="5" fill="#080" fill-opacity="1"/>
      </g>
      <g>
        <line x1="1212" y1="723.5" x2="1287" y2="723.5" stroke="#8f0" stroke-width="3"/>
        <circle cx="1287" cy="723.5" r="4.847679857416329" stroke="#8f0" stroke-width="5" fill="#8f0" fill-opacity="1"/>
      </g>
      <g>
        <circle cx="1287" cy="778.25" r="3.1622776601683795" stroke="#ccc" stroke-width="5" fill="#ccc" fill-opacity="1"/>
      </g>
    </g>
    <g>
      <text x="1362" y="176" text-anchor="middle" dominant-baseline="middle" font-size="19.5" font-family="TCM_____" fill="#444">85-120</text>
      <g>
        <text x="1437.047619047619" y="230.75" text-anchor="middle" dominant-baseline="middle" font-size="19.5" font-family="TCM_____" fill="#444">Top</text>
        <line x1="1287" y1="230.75" x2="1362" y2="230.75" stroke="#ccc" stroke-width="3"/>
        <circle cx="1362" cy="230.75" r="27.739863013360395" stroke="#ccc" stroke-width="5" fill="#ccc" fill-opacity="1"/>
        <text x="1362" y="230.75" text-anchor="middle" dominant-baseline="middle" font-size="19.5" font-family="TCM_____" fill="black">Unspecified</text>
      </g>
      <g>
        <text x="1437.047619047619" y="285.5" text-anchor="middle" dominant-baseline="middle" font-size="19.5" font-family="TCM_____" fill="#444">2nd</text>
        <line x1="1287" y1="285.5" x2="1362" y2="285.5" stroke="#f00" stroke-width="3"/>
        <circle cx="1362" cy="285.5" r="19.767397400770797" stroke="#f00" stroke-width="5" fill="#f00" fill-opacity="1"/>
      </g>
      <g>
        <text x="1437.047619047619" y="340.25" text-anchor="middle" dominant-baseline="middle" font-size="19.5" font-family="TCM_____" fill="#444">3rd</text>
        <line x1="1287" y1="340.25" x2="1362" y2="340.25" stroke="#888" stroke-width="3"/>
        <circle cx="1362" cy="340.25" r="14.603081866510234" stroke="#888" stroke-width="5" fill="#888" fill-opacity="1"/>
      </g>
      <g>
        <text x="1437.047619047619" y="395.0" text-anchor="middle" dominant-baseline="middle" font-size="19.5" font-family="TCM_____" fill="#444">4th</text>
        <line x1="1287" y1="395.0" x2="1362" y2="395.0" stroke="#f80" stroke-width="3"/>
        <circle cx="1362" cy="395.0" r="14.159802258506296" stroke="#f80" stroke-width="5" fill="#f80" fill-opacity="1"/>
      </g>
      <g>
        <text x="1437.047619047619" y="449.75" text-anchor="middle" dominant-baseline="middle" font-size="19.5" font-family="TCM_____" fill="#444">5th</text>
        <line x1="1287" y1="449.75" x2="1362" y2="449.75" stroke="#f08" stroke-width="3"/>
        <circle cx="1362" cy="449.75" r="9.974968671630002" stroke="#f08" stroke-width="5" fill="#f08" fill-opacity="1"/>
      </g>
      <g>
        <text x="1437.047619047619" y="504.5" text-anchor="middle" dominant-baseline="middle" font-size="19.5" font-family="TCM_____" fill="#444">6th</text>
        <line x1="1287" y1="504.5" x2="1362" y2="504.5" stroke="#08f" stroke-width="3"/>
        <circle cx="1362" cy="504.5" r="7.3484692283495345" stroke="#08f" stroke-width="5" fill="#08f" fill-opacity="1"/>
      </g>
      <g>
        <text x="1437.047619047619" y="559.25" text-anchor="middle" dominant-baseline="middle" font-size="19.5" font-family="TCM_____" fill="#444">7th</text>
        <line x1="1287" y1="559.25" x2="1362" y2="559.25" stroke="#000" stroke-width="3"/>
        <circle cx="1362" cy="559.25" r="6.837397165588672" stroke="#000" stroke-width="5" fill="#000" fill-opacity="1"/>
      </g>
      <g>
        <text x="1437.047619047619" y="614.0" text-anchor="middle" dominant-baseline="middle" font-size="19.5" font-family="TCM_____" fill="#444">8th</text>
        <line x1="1287" y1="614.0" x2="1362" y2="614.0" stroke="#fc0" stroke-width="3"/>
        <circle cx="1362" cy="614.0" r="6.819090848492928" stroke="#fc0" stroke-width="5" fill="#fc0" fill-opacity="1"/>
      </g>
      <g>
        <text x="1437.047619047619" y="668.75" text-anchor="middle" dominant-baseline="middle" font-size="19.5" font-family="TCM_____" fill="#444">9th</text>
        <line x1="1287" y1="668.75" x2="1362" y2="668.75" stroke="#080" stroke-width="3"/>
        <circle cx="1362" cy="668.75" r="6.18465843842649" stroke="#080" stroke-width="5" fill="#080" fill-opacity="1"/>
      </g>
      <g>
        <text x="1437.047619047619" y="723.5" text-anchor="middle" dominant-baseline="middle" font-size="19.5" font-family="TCM_____" fill="#444">10th</text>
        <line x1="1287" y1="723.5" x2="1362" y2="723.5" stroke="#8f0" stroke-width="3"/>
        <circle cx="1362" cy="723.5" r="4.272001872658765" stroke="#8f0" stroke-width="5" fill="#8f0" fill-opacity="1"/>
      </g>
      <g>
        <circle cx="1362" cy="778.25" r="3.082207001484488" stroke="#ccc" stroke-width="5" fill="#ccc" fill-opacity="1"/>
      </g>
    </g>
  </g>
  <g>
    <text x="800" y="833.25" text-anchor="middle" dominant-baseline="middle" font-size="26" font-family="TCM_____" fill="#888">Data by The Department of Census and Statistics, Sri Lanka · Visualization by @nuuuwan</text>
  </g>
</svg>
