<?xml version="1.0" ?>
<svg xmlns="http://www.w3.org/2000/svg" width="1600" height="900">
  <g>
    <text x="800" y="109.5" text-anchor="middle" font-size="39" font-family="TCM_____" fill="black">Top 10 Causes of Death in Males by Age-Group (Sri Lanka)</text>
    <text x="1509" y="122.5" text-anchor="end" font-size="91" font-family="consola" fill="#f00">2007</text>
  </g>
  <g>
    <g>
      <text x="162" y="176" text-anchor="middle" dominant-baseline="middle" font-size="19.5" font-family="TCM_____" fill="#444">1-4</text>
      <g>
        <text x="86.95238095238096" y="230.75" text-anchor="middle" dominant-baseline="middle" font-size="19.5" font-family="TCM_____" fill="#444">Top</text>
        <circle cx="162" cy="230.75" r="6.48074069840786" stroke="#000" stroke-width="5" fill="#000" fill-opacity="1"/>
      </g>
      <g>
        <text x="86.95238095238096" y="285.5" text-anchor="middle" dominant-baseline="middle" font-size="19.5" font-family="TCM_____" fill="#444">2nd</text>
        <circle cx="162" cy="285.5" r="4.636809247747852" stroke="#888" stroke-width="5" fill="#888" fill-opacity="1"/>
      </g>
      <g>
        <text x="86.95238095238096" y="340.25" text-anchor="middle" dominant-baseline="middle" font-size="19.5" font-family="TCM_____" fill="#444">3rd</text>
        <circle cx="162" cy="340.25" r="4.47213595499958" stroke="#00f" stroke-width="5" fill="#00f" fill-opacity="1"/>
        <text x="162" y="340.25" text-anchor="middle" dominant-baseline="middle" font-size="19.5" font-family="TCM_____" fill="black">Birth Defects</text>
      </g>
      <g>
        <text x="86.95238095238096" y="395.0" text-anchor="middle" dominant-baseline="middle" font-size="19.5" font-family="TCM_____" fill="#444">4th</text>
        <circle cx="162" cy="395.0" r="4.031128874149275" stroke="#f00" stroke-width="5" fill="#f00" fill-opacity="1"/>
      </g>
      <g>
        <text x="86.95238095238096" y="449.75" text-anchor="middle" dominant-baseline="middle" font-size="19.5" font-family="TCM_____" fill="#444">5th</text>
        <circle cx="162" cy="449.75" r="3.872983346207417" stroke="#ccc" stroke-width="5" fill="#ccc" fill-opacity="1"/>
      </g>
      <g>
        <text x="86.95238095238096" y="504.5" text-anchor="middle" dominant-baseline="middle" font-size="19.5" font-family="TCM_____" fill="#444">6th</text>
        <circle cx="162" cy="504.5" r="3.6742346141747673" stroke="#08f" stroke-width="5" fill="#08f" fill-opacity="1"/>
      </g>
      <g>
        <text x="86.95238095238096" y="559.25" text-anchor="middle" dominant-baseline="middle" font-size="19.5" font-family="TCM_____" fill="#444">7th</text>
        <circle cx="162" cy="559.25" r="3.5355339059327378" stroke="#080" stroke-width="5" fill="#080" fill-opacity="1"/>
      </g>
      <g>
        <text x="86.95238095238096" y="614.0" text-anchor="middle" dominant-baseline="middle" font-size="19.5" font-family="TCM_____" fill="#444">8th</text>
        <circle cx="162" cy="614.0" r="3.2015621187164243" stroke="#f80" stroke-width="5" fill="#f80" fill-opacity="1"/>
      </g>
      <g>
        <text x="86.95238095238096" y="668.75" text-anchor="middle" dominant-baseline="middle" font-size="19.5" font-family="TCM_____" fill="#444">9th</text>
        <circle cx="162" cy="668.75" r="2.29128784747792" stroke="#8f0" stroke-width="5" fill="#8f0" fill-opacity="1"/>
      </g>
      <g>
        <text x="86.95238095238096" y="723.5" text-anchor="middle" dominant-baseline="middle" font-size="19.5" font-family="TCM_____" fill="#444">10th</text>
        <circle cx="162" cy="723.5" r="2.179449471770337" stroke="#fc0" stroke-width="5" fill="#fc0" fill-opacity="1"/>
      </g>
      <g>
        <text x="86.95238095238096" y="778.25" text-anchor="middle" dominant-baseline="middle" font-size="19.5" font-family="TCM_____" fill="#444">All Others</text>
        <circle cx="162" cy="778.25" r="2.8722813232690143" stroke="#ccc" stroke-width="5" fill="#ccc" fill-opacity="1"/>
      </g>
    </g>
    <g>
      <text x="237" y="176" text-anchor="middle" dominant-baseline="middle" font-size="19.5" font-family="TCM_____" fill="#444">5-9</text>
      <g>
        <line x1="162" y1="230.75" x2="237" y2="230.75" stroke="#000" stroke-width="3"/>
        <circle cx="237" cy="230.75" r="5.244044240850758" stroke="#000" stroke-width="5" fill="#000" fill-opacity="1"/>
      </g>
      <g>
        <line x1="162" y1="395.0" x2="237" y2="285.5" stroke="#f00" stroke-width="3"/>
        <circle cx="237" cy="285.5" r="2.7838821814150108" stroke="#f00" stroke-width="5" fill="#f00" fill-opacity="1"/>
      </g>
      <g>
        <line x1="162" y1="614.0" x2="237" y2="340.25" stroke="#f80" stroke-width="3"/>
        <circle cx="237" cy="340.25" r="2.6457513110645907" stroke="#f80" stroke-width="5" fill="#f80" fill-opacity="1"/>
      </g>
      <g>
        <line x1="162" y1="504.5" x2="237" y2="395.0" stroke="#08f" stroke-width="3"/>
        <circle cx="237" cy="395.0" r="2.598076211353316" stroke="#08f" stroke-width="5" fill="#08f" fill-opacity="1"/>
      </g>
      <g>
        <line x1="162" y1="285.5" x2="237" y2="449.75" stroke="#888" stroke-width="3"/>
        <circle cx="237" cy="449.75" r="2.449489742783178" stroke="#888" stroke-width="5" fill="#888" fill-opacity="1"/>
      </g>
      <g>
        <line x1="162" y1="340.25" x2="237" y2="504.5" stroke="#00f" stroke-width="3"/>
        <circle cx="237" cy="504.5" r="2.23606797749979" stroke="#00f" stroke-width="5" fill="#00f" fill-opacity="1"/>
      </g>
      <g>
        <line x1="162" y1="449.75" x2="237" y2="559.25" stroke="#ccc" stroke-width="3"/>
        <circle cx="237" cy="559.25" r="2.1213203435596424" stroke="#ccc" stroke-width="5" fill="#ccc" fill-opacity="1"/>
      </g>
      <g>
        <line x1="162" y1="559.25" x2="237" y2="614.0" stroke="#080" stroke-width="3"/>
        <circle cx="237" cy="614.0" r="1.6583123951777" stroke="#080" stroke-width="5" fill="#080" fill-opacity="1"/>
      </g>
      <g>
        <circle cx="237" cy="668.75" r="1.224744871391589" stroke="#cccccc" stroke-width="5" fill="#cccccc" fill-opacity="1"/>
      </g>
      <g>
        <line x1="162" y1="723.5" x2="237" y2="723.5" stroke="#fc0" stroke-width="3"/>
        <circle cx="237" cy="723.5" r="1.224744871391589" stroke="#fc0" stroke-width="5" fill="#fc0" fill-opacity="1"/>
      </g>
      <g>
        <circle cx="237" cy="778.25" r="1.8708286933869707" stroke="#ccc" stroke-width="5" fill="#ccc" fill-opacity="1"/>
      </g>
    </g>
    <g>
      <text x="312" y="176" text-anchor="middle" dominant-baseline="middle" font-size="19.5" font-family="TCM_____" fill="#444">15-19</text>
      <g>
        <line x1="237" y1="230.75" x2="312" y2="230.75" stroke="#000" stroke-width="3"/>
        <circle cx="312" cy="230.75" r="11.213830746002902" stroke="#000" stroke-width="5" fill="#000" fill-opacity="1"/>
      </g>
      <g>
        <line x1="237" y1="285.5" x2="312" y2="285.5" stroke="#f00" stroke-width="3"/>
        <circle cx="312" cy="285.5" r="3.7416573867739413" stroke="#f00" stroke-width="5" fill="#f00" fill-opacity="1"/>
      </g>
      <g>
        <line x1="237" y1="449.75" x2="312" y2="340.25" stroke="#888" stroke-width="3"/>
        <circle cx="312" cy="340.25" r="3.0" stroke="#888" stroke-width="5" fill="#888" fill-opacity="1"/>
      </g>
      <g>
        <line x1="237" y1="395.0" x2="312" y2="395.0" stroke="#08f" stroke-width="3"/>
        <circle cx="312" cy="395.0" r="2.9154759474226504" stroke="#08f" stroke-width="5" fill="#08f" fill-opacity="1"/>
      </g>
      <g>
        <line x1="237" y1="340.25" x2="312" y2="449.75" stroke="#f80" stroke-width="3"/>
        <circle cx="312" cy="449.75" r="2.7838821814150108" stroke="#f80" stroke-width="5" fill="#f80" fill-opacity="1"/>
      </g>
      <g>
        <line x1="237" y1="504.5" x2="312" y2="504.5" stroke="#00f" stroke-width="3"/>
        <circle cx="312" cy="504.5" r="2.7838821814150108" stroke="#00f" stroke-width="5" fill="#00f" fill-opacity="1"/>
      </g>
      <g>
        <line x1="237" y1="559.25" x2="312" y2="559.25" stroke="#ccc" stroke-width="3"/>
        <circle cx="312" cy="559.25" r="2.6457513110645907" stroke="#ccc" stroke-width="5" fill="#ccc" fill-opacity="1"/>
      </g>
      <g>
        <line x1="237" y1="614.0" x2="312" y2="614.0" stroke="#080" stroke-width="3"/>
        <circle cx="312" cy="614.0" r="2.0" stroke="#080" stroke-width="5" fill="#080" fill-opacity="1"/>
      </g>
      <g>
        <line x1="237" y1="723.5" x2="312" y2="668.75" stroke="#fc0" stroke-width="3"/>
        <circle cx="312" cy="668.75" r="1.6583123951777" stroke="#fc0" stroke-width="5" fill="#fc0" fill-opacity="1"/>
      </g>
      <g>
        <circle cx="312" cy="723.5" r="1.5" stroke="#f08" stroke-width="5" fill="#f08" fill-opacity="1"/>
      </g>
      <g>
        <circle cx="312" cy="778.25" r="2.449489742783178" stroke="#ccc" stroke-width="5" fill="#ccc" fill-opacity="1"/>
      </g>
    </g>
    <g>
      <text x="387" y="176" text-anchor="middle" dominant-baseline="middle" font-size="19.5" font-family="TCM_____" fill="#444">20-24</text>
      <g>
        <line x1="312" y1="230.75" x2="387" y2="230.75" stroke="#000" stroke-width="3"/>
        <circle cx="387" cy="230.75" r="17.528548142958105" stroke="#000" stroke-width="5" fill="#000" fill-opacity="1"/>
        <text x="387" y="230.75" text-anchor="middle" dominant-baseline="middle" font-size="19.5" font-family="TCM_____" fill="black">Accidents / Injuries</text>
      </g>
      <g>
        <line x1="312" y1="285.5" x2="387" y2="285.5" stroke="#f00" stroke-width="3"/>
        <circle cx="387" cy="285.5" r="4.716990566028302" stroke="#f00" stroke-width="5" fill="#f00" fill-opacity="1"/>
      </g>
      <g>
        <line x1="312" y1="395.0" x2="387" y2="340.25" stroke="#08f" stroke-width="3"/>
        <circle cx="387" cy="340.25" r="3.7080992435478315" stroke="#08f" stroke-width="5" fill="#08f" fill-opacity="1"/>
      </g>
      <g>
        <line x1="312" y1="559.25" x2="387" y2="395.0" stroke="#ccc" stroke-width="3"/>
        <circle cx="387" cy="395.0" r="3.6742346141747673" stroke="#ccc" stroke-width="5" fill="#ccc" fill-opacity="1"/>
      </g>
      <g>
        <line x1="312" y1="340.25" x2="387" y2="449.75" stroke="#888" stroke-width="3"/>
        <circle cx="387" cy="449.75" r="3.278719262151" stroke="#888" stroke-width="5" fill="#888" fill-opacity="1"/>
      </g>
      <g>
        <circle cx="387" cy="504.5" r="2.8284271247461903" stroke="#cccccc" stroke-width="5" fill="#cccccc" fill-opacity="1"/>
        <text x="387" y="504.5" text-anchor="middle" dominant-baseline="middle" font-size="19.5" font-family="TCM_____" fill="black">Disappearance</text>
      </g>
      <g>
        <line x1="312" y1="449.75" x2="387" y2="559.25" stroke="#f80" stroke-width="3"/>
        <circle cx="387" cy="559.25" r="2.7838821814150108" stroke="#f80" stroke-width="5" fill="#f80" fill-opacity="1"/>
      </g>
      <g>
        <line x1="312" y1="614.0" x2="387" y2="614.0" stroke="#080" stroke-width="3"/>
        <circle cx="387" cy="614.0" r="2.7386127875258306" stroke="#080" stroke-width="5" fill="#080" fill-opacity="1"/>
      </g>
      <g>
        <line x1="312" y1="668.75" x2="387" y2="668.75" stroke="#fc0" stroke-width="3"/>
        <circle cx="387" cy="668.75" r="2.345207879911715" stroke="#fc0" stroke-width="5" fill="#fc0" fill-opacity="1"/>
      </g>
      <g>
        <line x1="312" y1="504.5" x2="387" y2="723.5" stroke="#00f" stroke-width="3"/>
        <circle cx="387" cy="723.5" r="2.345207879911715" stroke="#00f" stroke-width="5" fill="#00f" fill-opacity="1"/>
      </g>
      <g>
        <circle cx="387" cy="778.25" r="3.0" stroke="#ccc" stroke-width="5" fill="#ccc" fill-opacity="1"/>
      </g>
    </g>
    <g>
      <text x="462" y="176" text-anchor="middle" dominant-baseline="middle" font-size="19.5" font-family="TCM_____" fill="#444">25-29</text>
      <g>
        <line x1="387" y1="230.75" x2="462" y2="230.75" stroke="#000" stroke-width="3"/>
        <circle cx="462" cy="230.75" r="17.507141400011598" stroke="#000" stroke-width="5" fill="#000" fill-opacity="1"/>
      </g>
      <g>
        <line x1="387" y1="285.5" x2="462" y2="285.5" stroke="#f00" stroke-width="3"/>
        <circle cx="462" cy="285.5" r="5.220153254455275" stroke="#f00" stroke-width="5" fill="#f00" fill-opacity="1"/>
      </g>
      <g>
        <line x1="387" y1="340.25" x2="462" y2="340.25" stroke="#08f" stroke-width="3"/>
        <circle cx="462" cy="340.25" r="4.06201920231798" stroke="#08f" stroke-width="5" fill="#08f" fill-opacity="1"/>
      </g>
      <g>
        <line x1="387" y1="395.0" x2="462" y2="395.0" stroke="#ccc" stroke-width="3"/>
        <circle cx="462" cy="395.0" r="3.7416573867739413" stroke="#ccc" stroke-width="5" fill="#ccc" fill-opacity="1"/>
      </g>
      <g>
        <line x1="162" y1="668.75" x2="462" y2="449.75" stroke="#8f0" stroke-width="3"/>
        <circle cx="462" cy="449.75" r="3.427827300200522" stroke="#8f0" stroke-width="5" fill="#8f0" fill-opacity="1"/>
      </g>
      <g>
        <line x1="387" y1="449.75" x2="462" y2="504.5" stroke="#888" stroke-width="3"/>
        <circle cx="462" cy="504.5" r="3.3541019662496847" stroke="#888" stroke-width="5" fill="#888" fill-opacity="1"/>
      </g>
      <g>
        <line x1="387" y1="614.0" x2="462" y2="559.25" stroke="#080" stroke-width="3"/>
        <circle cx="462" cy="559.25" r="3.24037034920393" stroke="#080" stroke-width="5" fill="#080" fill-opacity="1"/>
      </g>
      <g>
        <line x1="387" y1="559.25" x2="462" y2="614.0" stroke="#f80" stroke-width="3"/>
        <circle cx="462" cy="614.0" r="3.082207001484488" stroke="#f80" stroke-width="5" fill="#f80" fill-opacity="1"/>
      </g>
      <g>
        <line x1="387" y1="668.75" x2="462" y2="668.75" stroke="#fc0" stroke-width="3"/>
        <circle cx="462" cy="668.75" r="2.958039891549808" stroke="#fc0" stroke-width="5" fill="#fc0" fill-opacity="1"/>
      </g>
      <g>
        <line x1="387" y1="504.5" x2="462" y2="723.5" stroke="#cccccc" stroke-width="3"/>
        <circle cx="462" cy="723.5" r="2.5" stroke="#cccccc" stroke-width="5" fill="#cccccc" fill-opacity="1"/>
      </g>
      <g>
        <circle cx="462" cy="778.25" r="3.4641016151377544" stroke="#ccc" stroke-width="5" fill="#ccc" fill-opacity="1"/>
      </g>
    </g>
    <g>
      <text x="537" y="176" text-anchor="middle" dominant-baseline="middle" font-size="19.5" font-family="TCM_____" fill="#444">30-34</text>
      <g>
        <line x1="462" y1="230.75" x2="537" y2="230.75" stroke="#000" stroke-width="3"/>
        <circle cx="537" cy="230.75" r="15.992185591719476" stroke="#000" stroke-width="5" fill="#000" fill-opacity="1"/>
      </g>
      <g>
        <line x1="462" y1="285.5" x2="537" y2="285.5" stroke="#f00" stroke-width="3"/>
        <circle cx="537" cy="285.5" r="6.422616289332565" stroke="#f00" stroke-width="5" fill="#f00" fill-opacity="1"/>
      </g>
      <g>
        <line x1="462" y1="449.75" x2="537" y2="340.25" stroke="#8f0" stroke-width="3"/>
        <circle cx="537" cy="340.25" r="4.795831523312719" stroke="#8f0" stroke-width="5" fill="#8f0" fill-opacity="1"/>
      </g>
      <g>
        <line x1="462" y1="340.25" x2="537" y2="395.0" stroke="#08f" stroke-width="3"/>
        <circle cx="537" cy="395.0" r="4.47213595499958" stroke="#08f" stroke-width="5" fill="#08f" fill-opacity="1"/>
      </g>
      <g>
        <line x1="462" y1="395.0" x2="537" y2="449.75" stroke="#ccc" stroke-width="3"/>
        <circle cx="537" cy="449.75" r="4.0" stroke="#ccc" stroke-width="5" fill="#ccc" fill-opacity="1"/>
      </g>
      <g>
        <line x1="462" y1="504.5" x2="537" y2="504.5" stroke="#888" stroke-width="3"/>
        <circle cx="537" cy="504.5" r="3.9370039370059056" stroke="#888" stroke-width="5" fill="#888" fill-opacity="1"/>
      </g>
      <g>
        <line x1="462" y1="559.25" x2="537" y2="559.25" stroke="#080" stroke-width="3"/>
        <circle cx="537" cy="559.25" r="3.5" stroke="#080" stroke-width="5" fill="#080" fill-opacity="1"/>
      </g>
      <g>
        <line x1="462" y1="614.0" x2="537" y2="614.0" stroke="#f80" stroke-width="3"/>
        <circle cx="537" cy="614.0" r="3.0413812651491097" stroke="#f80" stroke-width="5" fill="#f80" fill-opacity="1"/>
      </g>
      <g>
        <line x1="462" y1="668.75" x2="537" y2="668.75" stroke="#fc0" stroke-width="3"/>
        <circle cx="537" cy="668.75" r="3.0413812651491097" stroke="#fc0" stroke-width="5" fill="#fc0" fill-opacity="1"/>
      </g>
      <g>
        <line x1="312" y1="723.5" x2="537" y2="723.5" stroke="#f08" stroke-width="3"/>
        <circle cx="537" cy="723.5" r="2.598076211353316" stroke="#f08" stroke-width="5" fill="#f08" fill-opacity="1"/>
      </g>
      <g>
        <circle cx="537" cy="778.25" r="3.5" stroke="#ccc" stroke-width="5" fill="#ccc" fill-opacity="1"/>
      </g>
    </g>
    <g>
      <text x="612" y="176" text-anchor="middle" dominant-baseline="middle" font-size="19.5" font-family="TCM_____" fill="#444">35-39</text>
      <g>
        <line x1="537" y1="230.75" x2="612" y2="230.75" stroke="#000" stroke-width="3"/>
        <circle cx="612" cy="230.75" r="15.740076238697194" stroke="#000" stroke-width="5" fill="#000" fill-opacity="1"/>
      </g>
      <g>
        <line x1="537" y1="285.5" x2="612" y2="285.5" stroke="#f00" stroke-width="3"/>
        <circle cx="612" cy="285.5" r="9.082951062292475" stroke="#f00" stroke-width="5" fill="#f00" fill-opacity="1"/>
      </g>
      <g>
        <line x1="537" y1="340.25" x2="612" y2="340.25" stroke="#8f0" stroke-width="3"/>
        <circle cx="612" cy="340.25" r="7.0178344238090995" stroke="#8f0" stroke-width="5" fill="#8f0" fill-opacity="1"/>
      </g>
      <g>
        <line x1="537" y1="395.0" x2="612" y2="395.0" stroke="#08f" stroke-width="3"/>
        <circle cx="612" cy="395.0" r="5.172040216394301" stroke="#08f" stroke-width="5" fill="#08f" fill-opacity="1"/>
      </g>
      <g>
        <line x1="537" y1="504.5" x2="612" y2="449.75" stroke="#888" stroke-width="3"/>
        <circle cx="612" cy="449.75" r="4.8218253804964775" stroke="#888" stroke-width="5" fill="#888" fill-opacity="1"/>
      </g>
      <g>
        <line x1="537" y1="449.75" x2="612" y2="504.5" stroke="#ccc" stroke-width="3"/>
        <circle cx="612" cy="504.5" r="4.69041575982343" stroke="#ccc" stroke-width="5" fill="#ccc" fill-opacity="1"/>
      </g>
      <g>
        <line x1="537" y1="559.25" x2="612" y2="559.25" stroke="#080" stroke-width="3"/>
        <circle cx="612" cy="559.25" r="4.47213595499958" stroke="#080" stroke-width="5" fill="#080" fill-opacity="1"/>
      </g>
      <g>
        <line x1="537" y1="668.75" x2="612" y2="614.0" stroke="#fc0" stroke-width="3"/>
        <circle cx="612" cy="614.0" r="3.5" stroke="#fc0" stroke-width="5" fill="#fc0" fill-opacity="1"/>
      </g>
      <g>
        <line x1="537" y1="614.0" x2="612" y2="668.75" stroke="#f80" stroke-width="3"/>
        <circle cx="612" cy="668.75" r="3.3166247903554" stroke="#f80" stroke-width="5" fill="#f80" fill-opacity="1"/>
      </g>
      <g>
        <line x1="537" y1="723.5" x2="612" y2="723.5" stroke="#f08" stroke-width="3"/>
        <circle cx="612" cy="723.5" r="3.122498999199199" stroke="#f08" stroke-width="5" fill="#f08" fill-opacity="1"/>
      </g>
      <g>
        <circle cx="612" cy="778.25" r="3.640054944640259" stroke="#ccc" stroke-width="5" fill="#ccc" fill-opacity="1"/>
      </g>
    </g>
    <g>
      <text x="687" y="176" text-anchor="middle" dominant-baseline="middle" font-size="19.5" font-family="TCM_____" fill="#444">40-44</text>
      <g>
        <line x1="612" y1="230.75" x2="687" y2="230.75" stroke="#000" stroke-width="3"/>
        <circle cx="687" cy="230.75" r="14.815532390029054" stroke="#000" stroke-width="5" fill="#000" fill-opacity="1"/>
      </g>
      <g>
        <line x1="612" y1="285.5" x2="687" y2="285.5" stroke="#f00" stroke-width="3"/>
        <circle cx="687" cy="285.5" r="11.40175425099138" stroke="#f00" stroke-width="5" fill="#f00" fill-opacity="1"/>
      </g>
      <g>
        <line x1="612" y1="340.25" x2="687" y2="340.25" stroke="#8f0" stroke-width="3"/>
        <circle cx="687" cy="340.25" r="9.38083151964686" stroke="#8f0" stroke-width="5" fill="#8f0" fill-opacity="1"/>
      </g>
      <g>
        <line x1="612" y1="395.0" x2="687" y2="395.0" stroke="#08f" stroke-width="3"/>
        <circle cx="687" cy="395.0" r="7.0" stroke="#08f" stroke-width="5" fill="#08f" fill-opacity="1"/>
      </g>
      <g>
        <line x1="612" y1="449.75" x2="687" y2="449.75" stroke="#888" stroke-width="3"/>
        <circle cx="687" cy="449.75" r="6.461423991660043" stroke="#888" stroke-width="5" fill="#888" fill-opacity="1"/>
      </g>
      <g>
        <line x1="612" y1="559.25" x2="687" y2="504.5" stroke="#080" stroke-width="3"/>
        <circle cx="687" cy="504.5" r="5.454356057317857" stroke="#080" stroke-width="5" fill="#080" fill-opacity="1"/>
      </g>
      <g>
        <line x1="612" y1="504.5" x2="687" y2="559.25" stroke="#ccc" stroke-width="3"/>
        <circle cx="687" cy="559.25" r="5.338539126015656" stroke="#ccc" stroke-width="5" fill="#ccc" fill-opacity="1"/>
      </g>
      <g>
        <line x1="612" y1="614.0" x2="687" y2="614.0" stroke="#fc0" stroke-width="3"/>
        <circle cx="687" cy="614.0" r="5.0" stroke="#fc0" stroke-width="5" fill="#fc0" fill-opacity="1"/>
      </g>
      <g>
        <line x1="612" y1="723.5" x2="687" y2="668.75" stroke="#f08" stroke-width="3"/>
        <circle cx="687" cy="668.75" r="4.5" stroke="#f08" stroke-width="5" fill="#f08" fill-opacity="1"/>
      </g>
      <g>
        <line x1="612" y1="668.75" x2="687" y2="723.5" stroke="#f80" stroke-width="3"/>
        <circle cx="687" cy="723.5" r="4.387482193696061" stroke="#f80" stroke-width="5" fill="#f80" fill-opacity="1"/>
      </g>
      <g>
        <circle cx="687" cy="778.25" r="4.272001872658765" stroke="#ccc" stroke-width="5" fill="#ccc" fill-opacity="1"/>
      </g>
    </g>
    <g>
      <text x="762" y="176" text-anchor="middle" dominant-baseline="middle" font-size="19.5" font-family="TCM_____" fill="#444">45-49</text>
      <g>
        <line x1="687" y1="285.5" x2="762" y2="230.75" stroke="#f00" stroke-width="3"/>
        <circle cx="762" cy="230.75" r="15.402921800749363" stroke="#f00" stroke-width="5" fill="#f00" fill-opacity="1"/>
      </g>
      <g>
        <line x1="687" y1="230.75" x2="762" y2="285.5" stroke="#000" stroke-width="3"/>
        <circle cx="762" cy="285.5" r="14.637281168304447" stroke="#000" stroke-width="5" fill="#000" fill-opacity="1"/>
      </g>
      <g>
        <line x1="687" y1="340.25" x2="762" y2="340.25" stroke="#8f0" stroke-width="3"/>
        <circle cx="762" cy="340.25" r="10.793516572461451" stroke="#8f0" stroke-width="5" fill="#8f0" fill-opacity="1"/>
      </g>
      <g>
        <line x1="687" y1="395.0" x2="762" y2="395.0" stroke="#08f" stroke-width="3"/>
        <circle cx="762" cy="395.0" r="10.099504938362077" stroke="#08f" stroke-width="5" fill="#08f" fill-opacity="1"/>
      </g>
      <g>
        <line x1="687" y1="449.75" x2="762" y2="449.75" stroke="#888" stroke-width="3"/>
        <circle cx="762" cy="449.75" r="7.810249675906654" stroke="#888" stroke-width="5" fill="#888" fill-opacity="1"/>
      </g>
      <g>
        <line x1="687" y1="668.75" x2="762" y2="504.5" stroke="#f08" stroke-width="3"/>
        <circle cx="762" cy="504.5" r="6.670832032063167" stroke="#f08" stroke-width="5" fill="#f08" fill-opacity="1"/>
      </g>
      <g>
        <line x1="687" y1="614.0" x2="762" y2="559.25" stroke="#fc0" stroke-width="3"/>
        <circle cx="762" cy="559.25" r="6.383572667401852" stroke="#fc0" stroke-width="5" fill="#fc0" fill-opacity="1"/>
      </g>
      <g>
        <line x1="687" y1="504.5" x2="762" y2="614.0" stroke="#080" stroke-width="3"/>
        <circle cx="762" cy="614.0" r="6.34428877022476" stroke="#080" stroke-width="5" fill="#080" fill-opacity="1"/>
      </g>
      <g>
        <line x1="687" y1="559.25" x2="762" y2="668.75" stroke="#ccc" stroke-width="3"/>
        <circle cx="762" cy="668.75" r="6.041522986797286" stroke="#ccc" stroke-width="5" fill="#ccc" fill-opacity="1"/>
      </g>
      <g>
        <line x1="687" y1="723.5" x2="762" y2="723.5" stroke="#f80" stroke-width="3"/>
        <circle cx="762" cy="723.5" r="5.267826876426369" stroke="#f80" stroke-width="5" fill="#f80" fill-opacity="1"/>
      </g>
      <g>
        <circle cx="762" cy="778.25" r="4.743416490252569" stroke="#ccc" stroke-width="5" fill="#ccc" fill-opacity="1"/>
      </g>
    </g>
    <g>
      <text x="837" y="176" text-anchor="middle" dominant-baseline="middle" font-size="19.5" font-family="TCM_____" fill="#444">50-54</text>
      <g>
        <line x1="762" y1="230.75" x2="837" y2="230.75" stroke="#f00" stroke-width="3"/>
        <circle cx="837" cy="230.75" r="19.22888452302941" stroke="#f00" stroke-width="5" fill="#f00" fill-opacity="1"/>
      </g>
      <g>
        <line x1="762" y1="285.5" x2="837" y2="285.5" stroke="#000" stroke-width="3"/>
        <circle cx="837" cy="285.5" r="13.910427743243556" stroke="#000" stroke-width="5" fill="#000" fill-opacity="1"/>
      </g>
      <g>
        <line x1="762" y1="395.0" x2="837" y2="340.25" stroke="#08f" stroke-width="3"/>
        <circle cx="837" cy="340.25" r="11.779218989389747" stroke="#08f" stroke-width="5" fill="#08f" fill-opacity="1"/>
      </g>
      <g>
        <line x1="762" y1="340.25" x2="837" y2="395.0" stroke="#8f0" stroke-width="3"/>
        <circle cx="837" cy="395.0" r="10.862780491200215" stroke="#8f0" stroke-width="5" fill="#8f0" fill-opacity="1"/>
      </g>
      <g>
        <line x1="762" y1="449.75" x2="837" y2="449.75" stroke="#888" stroke-width="3"/>
        <circle cx="837" cy="449.75" r="9.151502608861563" stroke="#888" stroke-width="5" fill="#888" fill-opacity="1"/>
      </g>
      <g>
        <line x1="762" y1="504.5" x2="837" y2="504.5" stroke="#f08" stroke-width="3"/>
        <circle cx="837" cy="504.5" r="8.276472678623424" stroke="#f08" stroke-width="5" fill="#f08" fill-opacity="1"/>
      </g>
      <g>
        <line x1="762" y1="559.25" x2="837" y2="559.25" stroke="#fc0" stroke-width="3"/>
        <circle cx="837" cy="559.25" r="7.533259586659682" stroke="#fc0" stroke-width="5" fill="#fc0" fill-opacity="1"/>
      </g>
      <g>
        <line x1="762" y1="668.75" x2="837" y2="614.0" stroke="#ccc" stroke-width="3"/>
        <circle cx="837" cy="614.0" r="6.946221994724902" stroke="#ccc" stroke-width="5" fill="#ccc" fill-opacity="1"/>
      </g>
      <g>
        <line x1="762" y1="614.0" x2="837" y2="668.75" stroke="#080" stroke-width="3"/>
        <circle cx="837" cy="668.75" r="6.837397165588672" stroke="#080" stroke-width="5" fill="#080" fill-opacity="1"/>
      </g>
      <g>
        <line x1="762" y1="723.5" x2="837" y2="723.5" stroke="#f80" stroke-width="3"/>
        <circle cx="837" cy="723.5" r="5.70087712549569" stroke="#f80" stroke-width="5" fill="#f80" fill-opacity="1"/>
      </g>
      <g>
        <circle cx="837" cy="778.25" r="4.415880433163924" stroke="#ccc" stroke-width="5" fill="#ccc" fill-opacity="1"/>
      </g>
    </g>
    <g>
      <text x="912" y="176" text-anchor="middle" dominant-baseline="middle" font-size="19.5" font-family="TCM_____" fill="#444">55-59</text>
      <g>
        <line x1="837" y1="230.75" x2="912" y2="230.75" stroke="#f00" stroke-width="3"/>
        <circle cx="912" cy="230.75" r="22.60530911091463" stroke="#f00" stroke-width="5" fill="#f00" fill-opacity="1"/>
      </g>
      <g>
        <line x1="837" y1="340.25" x2="912" y2="285.5" stroke="#08f" stroke-width="3"/>
        <circle cx="912" cy="285.5" r="13.629013170439011" stroke="#08f" stroke-width="5" fill="#08f" fill-opacity="1"/>
      </g>
      <g>
        <line x1="837" y1="285.5" x2="912" y2="340.25" stroke="#000" stroke-width="3"/>
        <circle cx="912" cy="340.25" r="13.257073583562851" stroke="#000" stroke-width="5" fill="#000" fill-opacity="1"/>
      </g>
      <g>
        <line x1="837" y1="449.75" x2="912" y2="395.0" stroke="#888" stroke-width="3"/>
        <circle cx="912" cy="395.0" r="11.6940155635265" stroke="#888" stroke-width="5" fill="#888" fill-opacity="1"/>
      </g>
      <g>
        <line x1="837" y1="395.0" x2="912" y2="449.75" stroke="#8f0" stroke-width="3"/>
        <circle cx="912" cy="449.75" r="11.113055385446435" stroke="#8f0" stroke-width="5" fill="#8f0" fill-opacity="1"/>
        <text x="912" y="449.75" text-anchor="middle" dominant-baseline="middle" font-size="19.5" font-family="TCM_____" fill="black">Digestive</text>
      </g>
      <g>
        <line x1="837" y1="504.5" x2="912" y2="504.5" stroke="#f08" stroke-width="3"/>
        <circle cx="912" cy="504.5" r="10.897247358851684" stroke="#f08" stroke-width="5" fill="#f08" fill-opacity="1"/>
      </g>
      <g>
        <line x1="837" y1="614.0" x2="912" y2="559.25" stroke="#ccc" stroke-width="3"/>
        <circle cx="912" cy="559.25" r="8.381527307120106" stroke="#ccc" stroke-width="5" fill="#ccc" fill-opacity="1"/>
      </g>
      <g>
        <line x1="837" y1="559.25" x2="912" y2="614.0" stroke="#fc0" stroke-width="3"/>
        <circle cx="912" cy="614.0" r="7.697402159170326" stroke="#fc0" stroke-width="5" fill="#fc0" fill-opacity="1"/>
      </g>
      <g>
        <line x1="837" y1="723.5" x2="912" y2="668.75" stroke="#f80" stroke-width="3"/>
        <circle cx="912" cy="668.75" r="7.54983443527075" stroke="#f80" stroke-width="5" fill="#f80" fill-opacity="1"/>
      </g>
      <g>
        <line x1="837" y1="668.75" x2="912" y2="723.5" stroke="#080" stroke-width="3"/>
        <circle cx="912" cy="723.5" r="7.211102550927978" stroke="#080" stroke-width="5" fill="#080" fill-opacity="1"/>
        <text x="912" y="723.5" text-anchor="middle" dominant-baseline="middle" font-size="19.5" font-family="TCM_____" fill="black">Infectious</text>
      </g>
      <g>
        <circle cx="912" cy="778.25" r="4.527692569068709" stroke="#ccc" stroke-width="5" fill="#ccc" fill-opacity="1"/>
      </g>
    </g>
    <g>
      <text x="987" y="176" text-anchor="middle" dominant-baseline="middle" font-size="19.5" font-family="TCM_____" fill="#444">60-64</text>
      <g>
        <line x1="912" y1="230.75" x2="987" y2="230.75" stroke="#f00" stroke-width="3"/>
        <circle cx="987" cy="230.75" r="22.84184756100084" stroke="#f00" stroke-width="5" fill="#f00" fill-opacity="1"/>
      </g>
      <g>
        <line x1="912" y1="285.5" x2="987" y2="285.5" stroke="#08f" stroke-width="3"/>
        <circle cx="987" cy="285.5" r="13.865424623862047" stroke="#08f" stroke-width="5" fill="#08f" fill-opacity="1"/>
      </g>
      <g>
        <line x1="912" y1="395.0" x2="987" y2="340.25" stroke="#888" stroke-width="3"/>
        <circle cx="987" cy="340.25" r="12.509996003196804" stroke="#888" stroke-width="5" fill="#888" fill-opacity="1"/>
      </g>
      <g>
        <line x1="912" y1="504.5" x2="987" y2="395.0" stroke="#f08" stroke-width="3"/>
        <circle cx="987" cy="395.0" r="11.335784048754634" stroke="#f08" stroke-width="5" fill="#f08" fill-opacity="1"/>
      </g>
      <g>
        <line x1="912" y1="340.25" x2="987" y2="449.75" stroke="#000" stroke-width="3"/>
        <circle cx="987" cy="449.75" r="11.07925990308017" stroke="#000" stroke-width="5" fill="#000" fill-opacity="1"/>
      </g>
      <g>
        <line x1="912" y1="559.25" x2="987" y2="504.5" stroke="#ccc" stroke-width="3"/>
        <circle cx="987" cy="504.5" r="9.962429422585638" stroke="#ccc" stroke-width="5" fill="#ccc" fill-opacity="1"/>
      </g>
      <g>
        <line x1="912" y1="668.75" x2="987" y2="559.25" stroke="#f80" stroke-width="3"/>
        <circle cx="987" cy="559.25" r="9.86154146165801" stroke="#f80" stroke-width="5" fill="#f80" fill-opacity="1"/>
      </g>
      <g>
        <line x1="912" y1="449.75" x2="987" y2="614.0" stroke="#8f0" stroke-width="3"/>
        <circle cx="987" cy="614.0" r="9.260129588726068" stroke="#8f0" stroke-width="5" fill="#8f0" fill-opacity="1"/>
      </g>
      <g>
        <line x1="912" y1="614.0" x2="987" y2="668.75" stroke="#fc0" stroke-width="3"/>
        <circle cx="987" cy="668.75" r="7.729812416870153" stroke="#fc0" stroke-width="5" fill="#fc0" fill-opacity="1"/>
      </g>
      <g>
        <line x1="912" y1="723.5" x2="987" y2="723.5" stroke="#080" stroke-width="3"/>
        <circle cx="987" cy="723.5" r="6.782329983125268" stroke="#080" stroke-width="5" fill="#080" fill-opacity="1"/>
      </g>
      <g>
        <circle cx="987" cy="778.25" r="4.092676385936225" stroke="#ccc" stroke-width="5" fill="#ccc" fill-opacity="1"/>
      </g>
    </g>
    <g>
      <text x="1062" y="176" text-anchor="middle" dominant-baseline="middle" font-size="19.5" font-family="TCM_____" fill="#444">65-69</text>
      <g>
        <line x1="987" y1="230.75" x2="1062" y2="230.75" stroke="#f00" stroke-width="3"/>
        <circle cx="1062" cy="230.75" r="23.73815494093844" stroke="#f00" stroke-width="5" fill="#f00" fill-opacity="1"/>
      </g>
      <g>
        <line x1="987" y1="285.5" x2="1062" y2="285.5" stroke="#08f" stroke-width="3"/>
        <circle cx="1062" cy="285.5" r="14.38749456993816" stroke="#08f" stroke-width="5" fill="#08f" fill-opacity="1"/>
        <text x="1062" y="285.5" text-anchor="middle" dominant-baseline="middle" font-size="19.5" font-family="TCM_____" fill="black">Cancers</text>
      </g>
      <g>
        <line x1="987" y1="340.25" x2="1062" y2="340.25" stroke="#888" stroke-width="3"/>
        <circle cx="1062" cy="340.25" r="14.035668847618199" stroke="#888" stroke-width="5" fill="#888" fill-opacity="1"/>
      </g>
      <g>
        <line x1="987" y1="395.0" x2="1062" y2="395.0" stroke="#f08" stroke-width="3"/>
        <circle cx="1062" cy="395.0" r="12.619429464123963" stroke="#f08" stroke-width="5" fill="#f08" fill-opacity="1"/>
      </g>
      <g>
        <line x1="987" y1="504.5" x2="1062" y2="449.75" stroke="#ccc" stroke-width="3"/>
        <circle cx="1062" cy="449.75" r="12.267844146385297" stroke="#ccc" stroke-width="5" fill="#ccc" fill-opacity="1"/>
      </g>
      <g>
        <line x1="987" y1="559.25" x2="1062" y2="504.5" stroke="#f80" stroke-width="3"/>
        <circle cx="1062" cy="504.5" r="11.6940155635265" stroke="#f80" stroke-width="5" fill="#f80" fill-opacity="1"/>
      </g>
      <g>
        <line x1="987" y1="449.75" x2="1062" y2="559.25" stroke="#000" stroke-width="3"/>
        <circle cx="1062" cy="559.25" r="10.404326023342406" stroke="#000" stroke-width="5" fill="#000" fill-opacity="1"/>
      </g>
      <g>
        <line x1="987" y1="614.0" x2="1062" y2="614.0" stroke="#8f0" stroke-width="3"/>
        <circle cx="1062" cy="614.0" r="8.093207028119323" stroke="#8f0" stroke-width="5" fill="#8f0" fill-opacity="1"/>
      </g>
      <g>
        <line x1="987" y1="668.75" x2="1062" y2="668.75" stroke="#fc0" stroke-width="3"/>
        <circle cx="1062" cy="668.75" r="7.984359711335656" stroke="#fc0" stroke-width="5" fill="#fc0" fill-opacity="1"/>
      </g>
      <g>
        <line x1="987" y1="723.5" x2="1062" y2="723.5" stroke="#080" stroke-width="3"/>
        <circle cx="1062" cy="723.5" r="6.745368781616021" stroke="#080" stroke-width="5" fill="#080" fill-opacity="1"/>
      </g>
      <g>
        <circle cx="1062" cy="778.25" r="4.272001872658765" stroke="#ccc" stroke-width="5" fill="#ccc" fill-opacity="1"/>
      </g>
    </g>
    <g>
      <text x="1137" y="176" text-anchor="middle" dominant-baseline="middle" font-size="19.5" font-family="TCM_____" fill="#444">70-74</text>
      <g>
        <line x1="1062" y1="230.75" x2="1137" y2="230.75" stroke="#f00" stroke-width="3"/>
        <circle cx="1137" cy="230.75" r="24.40286868382486" stroke="#f00" stroke-width="5" fill="#f00" fill-opacity="1"/>
        <text x="1137" y="230.75" text-anchor="middle" dominant-baseline="middle" font-size="19.5" font-family="TCM_____" fill="black">Heart</text>
      </g>
      <g>
        <line x1="1062" y1="340.25" x2="1137" y2="285.5" stroke="#888" stroke-width="3"/>
        <circle cx="1137" cy="285.5" r="16.867127793433" stroke="#888" stroke-width="5" fill="#888" fill-opacity="1"/>
        <text x="1137" y="285.5" text-anchor="middle" dominant-baseline="middle" font-size="19.5" font-family="TCM_____" fill="black">Respiratory</text>
      </g>
      <g>
        <line x1="1062" y1="449.75" x2="1137" y2="340.25" stroke="#ccc" stroke-width="3"/>
        <circle cx="1137" cy="340.25" r="16.046806535881213" stroke="#ccc" stroke-width="5" fill="#ccc" fill-opacity="1"/>
      </g>
      <g>
        <line x1="1062" y1="504.5" x2="1137" y2="395.0" stroke="#f80" stroke-width="3"/>
        <circle cx="1137" cy="395.0" r="14.142135623730951" stroke="#f80" stroke-width="5" fill="#f80" fill-opacity="1"/>
      </g>
      <g>
        <line x1="1062" y1="285.5" x2="1137" y2="449.75" stroke="#08f" stroke-width="3"/>
        <circle cx="1137" cy="449.75" r="13.865424623862047" stroke="#08f" stroke-width="5" fill="#08f" fill-opacity="1"/>
      </g>
      <g>
        <line x1="1062" y1="395.0" x2="1137" y2="504.5" stroke="#f08" stroke-width="3"/>
        <circle cx="1137" cy="504.5" r="12.737739202856996" stroke="#f08" stroke-width="5" fill="#f08" fill-opacity="1"/>
        <text x="1137" y="504.5" text-anchor="middle" dominant-baseline="middle" font-size="19.5" font-family="TCM_____" fill="black">Metabolic</text>
      </g>
      <g>
        <line x1="1062" y1="559.25" x2="1137" y2="559.25" stroke="#000" stroke-width="3"/>
        <circle cx="1137" cy="559.25" r="9.987492177719089" stroke="#000" stroke-width="5" fill="#000" fill-opacity="1"/>
      </g>
      <g>
        <line x1="1062" y1="668.75" x2="1137" y2="614.0" stroke="#fc0" stroke-width="3"/>
        <circle cx="1137" cy="614.0" r="8.0" stroke="#fc0" stroke-width="5" fill="#fc0" fill-opacity="1"/>
        <text x="1137" y="614.0" text-anchor="middle" dominant-baseline="middle" font-size="19.5" font-family="TCM_____" fill="black">Genito-urinary</text>
      </g>
      <g>
        <line x1="1062" y1="614.0" x2="1137" y2="668.75" stroke="#8f0" stroke-width="3"/>
        <circle cx="1137" cy="668.75" r="7.566372975210778" stroke="#8f0" stroke-width="5" fill="#8f0" fill-opacity="1"/>
      </g>
      <g>
        <line x1="1062" y1="723.5" x2="1137" y2="723.5" stroke="#080" stroke-width="3"/>
        <circle cx="1137" cy="723.5" r="6.800735254367722" stroke="#080" stroke-width="5" fill="#080" fill-opacity="1"/>
      </g>
      <g>
        <circle cx="1137" cy="778.25" r="4.123105625617661" stroke="#ccc" stroke-width="5" fill="#ccc" fill-opacity="1"/>
      </g>
    </g>
    <g>
      <text x="1212" y="176" text-anchor="middle" dominant-baseline="middle" font-size="19.5" font-family="TCM_____" fill="#444">75-79</text>
      <g>
        <line x1="1137" y1="230.75" x2="1212" y2="230.75" stroke="#f00" stroke-width="3"/>
        <circle cx="1212" cy="230.75" r="22.972810015320285" stroke="#f00" stroke-width="5" fill="#f00" fill-opacity="1"/>
      </g>
      <g>
        <line x1="1137" y1="340.25" x2="1212" y2="285.5" stroke="#ccc" stroke-width="3"/>
        <circle cx="1212" cy="285.5" r="18.907670401189037" stroke="#ccc" stroke-width="5" fill="#ccc" fill-opacity="1"/>
      </g>
      <g>
        <line x1="1137" y1="395.0" x2="1212" y2="340.25" stroke="#f80" stroke-width="3"/>
        <circle cx="1212" cy="340.25" r="15.604486534327235" stroke="#f80" stroke-width="5" fill="#f80" fill-opacity="1"/>
        <text x="1212" y="340.25" text-anchor="middle" dominant-baseline="middle" font-size="19.5" font-family="TCM_____" fill="black">Nervous</text>
      </g>
      <g>
        <line x1="1137" y1="285.5" x2="1212" y2="395.0" stroke="#888" stroke-width="3"/>
        <circle cx="1212" cy="395.0" r="15.419143945109274" stroke="#888" stroke-width="5" fill="#888" fill-opacity="1"/>
      </g>
      <g>
        <line x1="1137" y1="504.5" x2="1212" y2="449.75" stroke="#f08" stroke-width="3"/>
        <circle cx="1212" cy="449.75" r="12.30853362509117" stroke="#f08" stroke-width="5" fill="#f08" fill-opacity="1"/>
      </g>
      <g>
        <line x1="1137" y1="449.75" x2="1212" y2="504.5" stroke="#08f" stroke-width="3"/>
        <circle cx="1212" cy="504.5" r="11.905880899790658" stroke="#08f" stroke-width="5" fill="#08f" fill-opacity="1"/>
      </g>
      <g>
        <line x1="1137" y1="559.25" x2="1212" y2="559.25" stroke="#000" stroke-width="3"/>
        <circle cx="1212" cy="559.25" r="8.12403840463596" stroke="#000" stroke-width="5" fill="#000" fill-opacity="1"/>
      </g>
      <g>
        <line x1="1137" y1="614.0" x2="1212" y2="614.0" stroke="#fc0" stroke-width="3"/>
        <circle cx="1212" cy="614.0" r="7.44983221287567" stroke="#fc0" stroke-width="5" fill="#fc0" fill-opacity="1"/>
      </g>
      <g>
        <line x1="1137" y1="723.5" x2="1212" y2="668.75" stroke="#080" stroke-width="3"/>
        <circle cx="1212" cy="668.75" r="6.48074069840786" stroke="#080" stroke-width="5" fill="#080" fill-opacity="1"/>
      </g>
      <g>
        <line x1="1137" y1="668.75" x2="1212" y2="723.5" stroke="#8f0" stroke-width="3"/>
        <circle cx="1212" cy="723.5" r="6.363961030678928" stroke="#8f0" stroke-width="5" fill="#8f0" fill-opacity="1"/>
      </g>
      <g>
        <circle cx="1212" cy="778.25" r="3.570714214271425" stroke="#ccc" stroke-width="5" fill="#ccc" fill-opacity="1"/>
      </g>
    </g>
    <g>
      <text x="1287" y="176" text-anchor="middle" dominant-baseline="middle" font-size="19.5" font-family="TCM_____" fill="#444">80-84</text>
      <g>
        <line x1="1212" y1="285.5" x2="1287" y2="230.75" stroke="#ccc" stroke-width="3"/>
        <circle cx="1287" cy="230.75" r="22.655021518418383" stroke="#ccc" stroke-width="5" fill="#ccc" fill-opacity="1"/>
      </g>
      <g>
        <line x1="1212" y1="230.75" x2="1287" y2="285.5" stroke="#f00" stroke-width="3"/>
        <circle cx="1287" cy="285.5" r="21.195518394226642" stroke="#f00" stroke-width="5" fill="#f00" fill-opacity="1"/>
      </g>
      <g>
        <line x1="1212" y1="340.25" x2="1287" y2="340.25" stroke="#f80" stroke-width="3"/>
        <circle cx="1287" cy="340.25" r="15.231546211727817" stroke="#f80" stroke-width="5" fill="#f80" fill-opacity="1"/>
      </g>
      <g>
        <line x1="1212" y1="395.0" x2="1287" y2="395.0" stroke="#888" stroke-width="3"/>
        <circle cx="1287" cy="395.0" r="14.603081866510234" stroke="#888" stroke-width="5" fill="#888" fill-opacity="1"/>
      </g>
      <g>
        <line x1="1212" y1="449.75" x2="1287" y2="449.75" stroke="#f08" stroke-width="3"/>
        <circle cx="1287" cy="449.75" r="10.488088481701515" stroke="#f08" stroke-width="5" fill="#f08" fill-opacity="1"/>
      </g>
      <g>
        <line x1="1212" y1="504.5" x2="1287" y2="504.5" stroke="#08f" stroke-width="3"/>
        <circle cx="1287" cy="504.5" r="9.137833441248533" stroke="#08f" stroke-width="5" fill="#08f" fill-opacity="1"/>
      </g>
      <g>
        <line x1="1212" y1="559.25" x2="1287" y2="559.25" stroke="#000" stroke-width="3"/>
        <circle cx="1287" cy="559.25" r="7.0178344238090995" stroke="#000" stroke-width="5" fill="#000" fill-opacity="1"/>
      </g>
      <g>
        <line x1="1212" y1="614.0" x2="1287" y2="614.0" stroke="#fc0" stroke-width="3"/>
        <circle cx="1287" cy="614.0" r="6.98212002188447" stroke="#fc0" stroke-width="5" fill="#fc0" fill-opacity="1"/>
      </g>
      <g>
        <line x1="1212" y1="668.75" x2="1287" y2="668.75" stroke="#080" stroke-width="3"/>
        <circle cx="1287" cy="668.75" r="5.678908345800274" stroke="#080" stroke-width="5" fill="#080" fill-opacity="1"/>
      </g>
      <g>
        <line x1="1212" y1="723.5" x2="1287" y2="723.5" stroke="#8f0" stroke-width="3"/>
        <circle cx="1287" cy="723.5" r="4.873397172404482" stroke="#8f0" stroke-width="5" fill="#8f0" fill-opacity="1"/>
      </g>
      <g>
        <circle cx="1287" cy="778.25" r="3.605551275463989" stroke="#ccc" stroke-width="5" fill="#ccc" fill-opacity="1"/>
      </g>
    </g>
    <g>
      <text x="1362" y="176" text-anchor="middle" dominant-baseline="middle" font-size="19.5" font-family="TCM_____" fill="#444">85-120</text>
      <g>
        <text x="1437.047619047619" y="230.75" text-anchor="middle" dominant-baseline="middle" font-size="19.5" font-family="TCM_____" fill="#444">Top</text>
        <line x1="1287" y1="230.75" x2="1362" y2="230.75" stroke="#ccc" stroke-width="3"/>
        <circle cx="1362" cy="230.75" r="28.310775333784132" stroke="#ccc" stroke-width="5" fill="#ccc" fill-opacity="1"/>
        <text x="1362" y="230.75" text-anchor="middle" dominant-baseline="middle" font-size="19.5" font-family="TCM_____" fill="black">Unspecified</text>
      </g>
      <g>
        <text x="1437.047619047619" y="285.5" text-anchor="middle" dominant-baseline="middle" font-size="19.5" font-family="TCM_____" fill="#444">2nd</text>
        <line x1="1287" y1="285.5" x2="1362" y2="285.5" stroke="#f00" stroke-width="3"/>
        <circle cx="1362" cy="285.5" r="19.60867155112758" stroke="#f00" stroke-width="5" fill="#f00" fill-opacity="1"/>
      </g>
      <g>
        <text x="1437.047619047619" y="340.25" text-anchor="middle" dominant-baseline="middle" font-size="19.5" font-family="TCM_____" fill="#444">3rd</text>
        <line x1="1287" y1="340.25" x2="1362" y2="340.25" stroke="#f80" stroke-width="3"/>
        <circle cx="1362" cy="340.25" r="15.239750654128171" stroke="#f80" stroke-width="5" fill="#f80" fill-opacity="1"/>
      </g>
      <g>
        <text x="1437.047619047619" y="395.0" text-anchor="middle" dominant-baseline="middle" font-size="19.5" font-family="TCM_____" fill="#444">4th</text>
        <line x1="1287" y1="395.0" x2="1362" y2="395.0" stroke="#888" stroke-width="3"/>
        <circle cx="1362" cy="395.0" r="14.882876066137216" stroke="#888" stroke-width="5" fill="#888" fill-opacity="1"/>
      </g>
      <g>
        <text x="1437.047619047619" y="449.75" text-anchor="middle" dominant-baseline="middle" font-size="19.5" font-family="TCM_____" fill="#444">5th</text>
        <line x1="1287" y1="449.75" x2="1362" y2="449.75" stroke="#f08" stroke-width="3"/>
        <circle cx="1362" cy="449.75" r="9.630680142129112" stroke="#f08" stroke-width="5" fill="#f08" fill-opacity="1"/>
      </g>
      <g>
        <text x="1437.047619047619" y="504.5" text-anchor="middle" dominant-baseline="middle" font-size="19.5" font-family="TCM_____" fill="#444">6th</text>
        <line x1="1287" y1="504.5" x2="1362" y2="504.5" stroke="#08f" stroke-width="3"/>
        <circle cx="1362" cy="504.5" r="7.365459931328117" stroke="#08f" stroke-width="5" fill="#08f" fill-opacity="1"/>
      </g>
      <g>
        <text x="1437.047619047619" y="559.25" text-anchor="middle" dominant-baseline="middle" font-size="19.5" font-family="TCM_____" fill="#444">7th</text>
        <line x1="1287" y1="559.25" x2="1362" y2="559.25" stroke="#000" stroke-width="3"/>
        <circle cx="1362" cy="559.25" r="6.928203230275509" stroke="#000" stroke-width="5" fill="#000" fill-opacity="1"/>
      </g>
      <g>
        <text x="1437.047619047619" y="614.0" text-anchor="middle" dominant-baseline="middle" font-size="19.5" font-family="TCM_____" fill="#444">8th</text>
        <line x1="1287" y1="614.0" x2="1362" y2="614.0" stroke="#fc0" stroke-width="3"/>
        <circle cx="1362" cy="614.0" r="6.5" stroke="#fc0" stroke-width="5" fill="#fc0" fill-opacity="1"/>
      </g>
      <g>
        <text x="1437.047619047619" y="668.75" text-anchor="middle" dominant-baseline="middle" font-size="19.5" font-family="TCM_____" fill="#444">9th</text>
        <line x1="1287" y1="668.75" x2="1362" y2="668.75" stroke="#080" stroke-width="3"/>
        <circle cx="1362" cy="668.75" r="5.916079783099616" stroke="#080" stroke-width="5" fill="#080" fill-opacity="1"/>
      </g>
      <g>
        <text x="1437.047619047619" y="723.5" text-anchor="middle" dominant-baseline="middle" font-size="19.5" font-family="TCM_____" fill="#444">10th</text>
        <line x1="1287" y1="723.5" x2="1362" y2="723.5" stroke="#8f0" stroke-width="3"/>
        <circle cx="1362" cy="723.5" r="4.272001872658765" stroke="#8f0" stroke-width="5" fill="#8f0" fill-opacity="1"/>
      </g>
      <g>
        <circle cx="1362" cy="778.25" r="3.3166247903554" stroke="#ccc" stroke-width="5" fill="#ccc" fill-opacity="1"/>
      </g>
    </g>
  </g>
  <g>
    <text x="800" y="833.25" text-anchor="middle" dominant-baseline="middle" font-size="26" font-family="TCM_____" fill="#888">Data by The Department of Census and Statistics, Sri Lanka · Visualization by @nuuuwan</text>
  </g>
</svg>
