<?xml version="1.0" ?>
<svg xmlns="http://www.w3.org/2000/svg" width="1600" height="900">
  <g>
    <text x="800" y="109.5" text-anchor="middle" font-size="39" font-family="TCM_____" fill="black">Top 10 Causes of Death in Males by Age-Group (Sri Lanka)</text>
    <text x="1509" y="122.5" text-anchor="end" font-size="91" font-family="consola" fill="#f00">1998</text>
  </g>
  <g>
    <g>
      <text x="162" y="176" text-anchor="middle" dominant-baseline="middle" font-size="19.5" font-family="TCM_____" fill="#444">1-4</text>
      <g>
        <text x="86.95238095238096" y="230.75" text-anchor="middle" dominant-baseline="middle" font-size="19.5" font-family="TCM_____" fill="#444">Top</text>
        <circle cx="162" cy="230.75" r="7.3484692283495345" stroke="#000" stroke-width="5" fill="#000" fill-opacity="1"/>
      </g>
      <g>
        <text x="86.95238095238096" y="285.5" text-anchor="middle" dominant-baseline="middle" font-size="19.5" font-family="TCM_____" fill="#444">2nd</text>
        <circle cx="162" cy="285.5" r="6.855654600401044" stroke="#ccc" stroke-width="5" fill="#ccc" fill-opacity="1"/>
      </g>
      <g>
        <text x="86.95238095238096" y="340.25" text-anchor="middle" dominant-baseline="middle" font-size="19.5" font-family="TCM_____" fill="#444">3rd</text>
        <circle cx="162" cy="340.25" r="6.0" stroke="#080" stroke-width="5" fill="#080" fill-opacity="1"/>
      </g>
      <g>
        <text x="86.95238095238096" y="395.0" text-anchor="middle" dominant-baseline="middle" font-size="19.5" font-family="TCM_____" fill="#444">4th</text>
        <circle cx="162" cy="395.0" r="5.07444578254611" stroke="#888" stroke-width="5" fill="#888" fill-opacity="1"/>
      </g>
      <g>
        <text x="86.95238095238096" y="449.75" text-anchor="middle" dominant-baseline="middle" font-size="19.5" font-family="TCM_____" fill="#444">5th</text>
        <circle cx="162" cy="449.75" r="4.387482193696061" stroke="#f00" stroke-width="5" fill="#f00" fill-opacity="1"/>
      </g>
      <g>
        <text x="86.95238095238096" y="504.5" text-anchor="middle" dominant-baseline="middle" font-size="19.5" font-family="TCM_____" fill="#444">6th</text>
        <circle cx="162" cy="504.5" r="4.2130748865881795" stroke="#f80" stroke-width="5" fill="#f80" fill-opacity="1"/>
      </g>
      <g>
        <text x="86.95238095238096" y="559.25" text-anchor="middle" dominant-baseline="middle" font-size="19.5" font-family="TCM_____" fill="#444">7th</text>
        <circle cx="162" cy="559.25" r="4.153311931459037" stroke="#08f" stroke-width="5" fill="#08f" fill-opacity="1"/>
      </g>
      <g>
        <text x="86.95238095238096" y="614.0" text-anchor="middle" dominant-baseline="middle" font-size="19.5" font-family="TCM_____" fill="#444">8th</text>
        <circle cx="162" cy="614.0" r="3.5355339059327378" stroke="#00f" stroke-width="5" fill="#00f" fill-opacity="1"/>
        <text x="162" y="614.0" text-anchor="middle" dominant-baseline="middle" font-size="19.5" font-family="TCM_____" fill="black">Birth Defects</text>
      </g>
      <g>
        <text x="86.95238095238096" y="668.75" text-anchor="middle" dominant-baseline="middle" font-size="19.5" font-family="TCM_____" fill="#444">9th</text>
        <circle cx="162" cy="668.75" r="3.278719262151" stroke="#8f0" stroke-width="5" fill="#8f0" fill-opacity="1"/>
      </g>
      <g>
        <text x="86.95238095238096" y="723.5" text-anchor="middle" dominant-baseline="middle" font-size="19.5" font-family="TCM_____" fill="#444">10th</text>
        <circle cx="162" cy="723.5" r="1.8708286933869707" stroke="#f08" stroke-width="5" fill="#f08" fill-opacity="1"/>
      </g>
      <g>
        <text x="86.95238095238096" y="778.25" text-anchor="middle" dominant-baseline="middle" font-size="19.5" font-family="TCM_____" fill="#444">All Others</text>
        <circle cx="162" cy="778.25" r="2.6457513110645907" stroke="#ccc" stroke-width="5" fill="#ccc" fill-opacity="1"/>
      </g>
    </g>
    <g>
      <text x="237" y="176" text-anchor="middle" dominant-baseline="middle" font-size="19.5" font-family="TCM_____" fill="#444">5-9</text>
      <g>
        <line x1="162" y1="230.75" x2="237" y2="230.75" stroke="#000" stroke-width="3"/>
        <circle cx="237" cy="230.75" r="6.745368781616021" stroke="#000" stroke-width="5" fill="#000" fill-opacity="1"/>
      </g>
      <g>
        <line x1="162" y1="285.5" x2="237" y2="285.5" stroke="#ccc" stroke-width="3"/>
        <circle cx="237" cy="285.5" r="4.387482193696061" stroke="#ccc" stroke-width="5" fill="#ccc" fill-opacity="1"/>
      </g>
      <g>
        <line x1="162" y1="559.25" x2="237" y2="340.25" stroke="#08f" stroke-width="3"/>
        <circle cx="237" cy="340.25" r="3.3166247903554" stroke="#08f" stroke-width="5" fill="#08f" fill-opacity="1"/>
      </g>
      <g>
        <line x1="162" y1="340.25" x2="237" y2="395.0" stroke="#080" stroke-width="3"/>
        <circle cx="237" cy="395.0" r="3.278719262151" stroke="#080" stroke-width="5" fill="#080" fill-opacity="1"/>
      </g>
      <g>
        <line x1="162" y1="449.75" x2="237" y2="449.75" stroke="#f00" stroke-width="3"/>
        <circle cx="237" cy="449.75" r="3.0" stroke="#f00" stroke-width="5" fill="#f00" fill-opacity="1"/>
      </g>
      <g>
        <line x1="162" y1="395.0" x2="237" y2="504.5" stroke="#888" stroke-width="3"/>
        <circle cx="237" cy="504.5" r="2.5" stroke="#888" stroke-width="5" fill="#888" fill-opacity="1"/>
      </g>
      <g>
        <line x1="162" y1="504.5" x2="237" y2="559.25" stroke="#f80" stroke-width="3"/>
        <circle cx="237" cy="559.25" r="2.29128784747792" stroke="#f80" stroke-width="5" fill="#f80" fill-opacity="1"/>
      </g>
      <g>
        <line x1="162" y1="614.0" x2="237" y2="614.0" stroke="#00f" stroke-width="3"/>
        <circle cx="237" cy="614.0" r="1.8708286933869707" stroke="#00f" stroke-width="5" fill="#00f" fill-opacity="1"/>
      </g>
      <g>
        <line x1="162" y1="668.75" x2="237" y2="668.75" stroke="#8f0" stroke-width="3"/>
        <circle cx="237" cy="668.75" r="1.7320508075688772" stroke="#8f0" stroke-width="5" fill="#8f0" fill-opacity="1"/>
      </g>
      <g>
        <circle cx="237" cy="723.5" r="1.3228756555322954" stroke="#fc0" stroke-width="5" fill="#fc0" fill-opacity="1"/>
      </g>
      <g>
        <circle cx="237" cy="778.25" r="1.224744871391589" stroke="#ccc" stroke-width="5" fill="#ccc" fill-opacity="1"/>
      </g>
    </g>
    <g>
      <text x="312" y="176" text-anchor="middle" dominant-baseline="middle" font-size="19.5" font-family="TCM_____" fill="#444">15-19</text>
      <g>
        <line x1="237" y1="230.75" x2="312" y2="230.75" stroke="#000" stroke-width="3"/>
        <circle cx="312" cy="230.75" r="15.016657417681207" stroke="#000" stroke-width="5" fill="#000" fill-opacity="1"/>
      </g>
      <g>
        <line x1="237" y1="285.5" x2="312" y2="285.5" stroke="#ccc" stroke-width="3"/>
        <circle cx="312" cy="285.5" r="5.291502622129181" stroke="#ccc" stroke-width="5" fill="#ccc" fill-opacity="1"/>
      </g>
      <g>
        <circle cx="312" cy="340.25" r="3.640054944640259" stroke="#cccccc" stroke-width="5" fill="#cccccc" fill-opacity="1"/>
      </g>
      <g>
        <line x1="237" y1="340.25" x2="312" y2="395.0" stroke="#08f" stroke-width="3"/>
        <circle cx="312" cy="395.0" r="3.5" stroke="#08f" stroke-width="5" fill="#08f" fill-opacity="1"/>
      </g>
      <g>
        <line x1="237" y1="449.75" x2="312" y2="449.75" stroke="#f00" stroke-width="3"/>
        <circle cx="312" cy="449.75" r="3.4641016151377544" stroke="#f00" stroke-width="5" fill="#f00" fill-opacity="1"/>
      </g>
      <g>
        <line x1="237" y1="395.0" x2="312" y2="504.5" stroke="#080" stroke-width="3"/>
        <circle cx="312" cy="504.5" r="3.427827300200522" stroke="#080" stroke-width="5" fill="#080" fill-opacity="1"/>
      </g>
      <g>
        <line x1="237" y1="559.25" x2="312" y2="559.25" stroke="#f80" stroke-width="3"/>
        <circle cx="312" cy="559.25" r="3.278719262151" stroke="#f80" stroke-width="5" fill="#f80" fill-opacity="1"/>
      </g>
      <g>
        <line x1="237" y1="504.5" x2="312" y2="614.0" stroke="#888" stroke-width="3"/>
        <circle cx="312" cy="614.0" r="2.7838821814150108" stroke="#888" stroke-width="5" fill="#888" fill-opacity="1"/>
      </g>
      <g>
        <line x1="237" y1="723.5" x2="312" y2="668.75" stroke="#fc0" stroke-width="3"/>
        <circle cx="312" cy="668.75" r="2.345207879911715" stroke="#fc0" stroke-width="5" fill="#fc0" fill-opacity="1"/>
      </g>
      <g>
        <line x1="237" y1="668.75" x2="312" y2="723.5" stroke="#8f0" stroke-width="3"/>
        <circle cx="312" cy="723.5" r="2.1213203435596424" stroke="#8f0" stroke-width="5" fill="#8f0" fill-opacity="1"/>
      </g>
      <g>
        <circle cx="312" cy="778.25" r="2.6457513110645907" stroke="#ccc" stroke-width="5" fill="#ccc" fill-opacity="1"/>
      </g>
    </g>
    <g>
      <text x="387" y="176" text-anchor="middle" dominant-baseline="middle" font-size="19.5" font-family="TCM_____" fill="#444">20-24</text>
      <g>
        <line x1="312" y1="230.75" x2="387" y2="230.75" stroke="#000" stroke-width="3"/>
        <circle cx="387" cy="230.75" r="23.13547060251855" stroke="#000" stroke-width="5" fill="#000" fill-opacity="1"/>
        <text x="387" y="230.75" text-anchor="middle" dominant-baseline="middle" font-size="19.5" font-family="TCM_____" fill="black">Accidents / Injuries</text>
      </g>
      <g>
        <line x1="312" y1="285.5" x2="387" y2="285.5" stroke="#ccc" stroke-width="3"/>
        <circle cx="387" cy="285.5" r="5.894913061275798" stroke="#ccc" stroke-width="5" fill="#ccc" fill-opacity="1"/>
      </g>
      <g>
        <line x1="312" y1="340.25" x2="387" y2="340.25" stroke="#cccccc" stroke-width="3"/>
        <circle cx="387" cy="340.25" r="5.024937810560445" stroke="#cccccc" stroke-width="5" fill="#cccccc" fill-opacity="1"/>
        <text x="387" y="340.25" text-anchor="middle" dominant-baseline="middle" font-size="19.5" font-family="TCM_____" fill="black">Disappearance</text>
      </g>
      <g>
        <line x1="312" y1="449.75" x2="387" y2="395.0" stroke="#f00" stroke-width="3"/>
        <circle cx="387" cy="395.0" r="4.0" stroke="#f00" stroke-width="5" fill="#f00" fill-opacity="1"/>
      </g>
      <g>
        <line x1="312" y1="504.5" x2="387" y2="449.75" stroke="#080" stroke-width="3"/>
        <circle cx="387" cy="449.75" r="3.570714214271425" stroke="#080" stroke-width="5" fill="#080" fill-opacity="1"/>
      </g>
      <g>
        <line x1="312" y1="614.0" x2="387" y2="504.5" stroke="#888" stroke-width="3"/>
        <circle cx="387" cy="504.5" r="3.2015621187164243" stroke="#888" stroke-width="5" fill="#888" fill-opacity="1"/>
      </g>
      <g>
        <line x1="312" y1="395.0" x2="387" y2="559.25" stroke="#08f" stroke-width="3"/>
        <circle cx="387" cy="559.25" r="3.1622776601683795" stroke="#08f" stroke-width="5" fill="#08f" fill-opacity="1"/>
      </g>
      <g>
        <line x1="312" y1="559.25" x2="387" y2="614.0" stroke="#f80" stroke-width="3"/>
        <circle cx="387" cy="614.0" r="3.122498999199199" stroke="#f80" stroke-width="5" fill="#f80" fill-opacity="1"/>
      </g>
      <g>
        <line x1="312" y1="723.5" x2="387" y2="668.75" stroke="#8f0" stroke-width="3"/>
        <circle cx="387" cy="668.75" r="2.5" stroke="#8f0" stroke-width="5" fill="#8f0" fill-opacity="1"/>
      </g>
      <g>
        <line x1="312" y1="668.75" x2="387" y2="723.5" stroke="#fc0" stroke-width="3"/>
        <circle cx="387" cy="723.5" r="1.9364916731037085" stroke="#fc0" stroke-width="5" fill="#fc0" fill-opacity="1"/>
      </g>
      <g>
        <circle cx="387" cy="778.25" r="2.6457513110645907" stroke="#ccc" stroke-width="5" fill="#ccc" fill-opacity="1"/>
      </g>
    </g>
    <g>
      <text x="462" y="176" text-anchor="middle" dominant-baseline="middle" font-size="19.5" font-family="TCM_____" fill="#444">25-29</text>
      <g>
        <line x1="387" y1="230.75" x2="462" y2="230.75" stroke="#000" stroke-width="3"/>
        <circle cx="462" cy="230.75" r="21.937410968480304" stroke="#000" stroke-width="5" fill="#000" fill-opacity="1"/>
      </g>
      <g>
        <line x1="387" y1="285.5" x2="462" y2="285.5" stroke="#ccc" stroke-width="3"/>
        <circle cx="462" cy="285.5" r="6.244997998398398" stroke="#ccc" stroke-width="5" fill="#ccc" fill-opacity="1"/>
      </g>
      <g>
        <line x1="387" y1="395.0" x2="462" y2="340.25" stroke="#f00" stroke-width="3"/>
        <circle cx="462" cy="340.25" r="5.431390245600108" stroke="#f00" stroke-width="5" fill="#f00" fill-opacity="1"/>
      </g>
      <g>
        <line x1="387" y1="340.25" x2="462" y2="395.0" stroke="#cccccc" stroke-width="3"/>
        <circle cx="462" cy="395.0" r="4.769696007084728" stroke="#cccccc" stroke-width="5" fill="#cccccc" fill-opacity="1"/>
      </g>
      <g>
        <line x1="387" y1="668.75" x2="462" y2="449.75" stroke="#8f0" stroke-width="3"/>
        <circle cx="462" cy="449.75" r="4.47213595499958" stroke="#8f0" stroke-width="5" fill="#8f0" fill-opacity="1"/>
      </g>
      <g>
        <line x1="387" y1="449.75" x2="462" y2="504.5" stroke="#080" stroke-width="3"/>
        <circle cx="462" cy="504.5" r="4.330127018922194" stroke="#080" stroke-width="5" fill="#080" fill-opacity="1"/>
      </g>
      <g>
        <line x1="387" y1="504.5" x2="462" y2="559.25" stroke="#888" stroke-width="3"/>
        <circle cx="462" cy="559.25" r="3.3541019662496847" stroke="#888" stroke-width="5" fill="#888" fill-opacity="1"/>
      </g>
      <g>
        <line x1="387" y1="559.25" x2="462" y2="614.0" stroke="#08f" stroke-width="3"/>
        <circle cx="462" cy="614.0" r="3.2015621187164243" stroke="#08f" stroke-width="5" fill="#08f" fill-opacity="1"/>
      </g>
      <g>
        <line x1="387" y1="614.0" x2="462" y2="668.75" stroke="#f80" stroke-width="3"/>
        <circle cx="462" cy="668.75" r="3.082207001484488" stroke="#f80" stroke-width="5" fill="#f80" fill-opacity="1"/>
      </g>
      <g>
        <line x1="387" y1="723.5" x2="462" y2="723.5" stroke="#fc0" stroke-width="3"/>
        <circle cx="462" cy="723.5" r="2.449489742783178" stroke="#fc0" stroke-width="5" fill="#fc0" fill-opacity="1"/>
      </g>
      <g>
        <circle cx="462" cy="778.25" r="3.5" stroke="#ccc" stroke-width="5" fill="#ccc" fill-opacity="1"/>
      </g>
    </g>
    <g>
      <text x="537" y="176" text-anchor="middle" dominant-baseline="middle" font-size="19.5" font-family="TCM_____" fill="#444">30-34</text>
      <g>
        <line x1="462" y1="230.75" x2="537" y2="230.75" stroke="#000" stroke-width="3"/>
        <circle cx="537" cy="230.75" r="18.0208212909401" stroke="#000" stroke-width="5" fill="#000" fill-opacity="1"/>
      </g>
      <g>
        <line x1="462" y1="449.75" x2="537" y2="285.5" stroke="#8f0" stroke-width="3"/>
        <circle cx="537" cy="285.5" r="7.123903424387503" stroke="#8f0" stroke-width="5" fill="#8f0" fill-opacity="1"/>
      </g>
      <g>
        <line x1="462" y1="285.5" x2="537" y2="340.25" stroke="#ccc" stroke-width="3"/>
        <circle cx="537" cy="340.25" r="7.106335201775948" stroke="#ccc" stroke-width="5" fill="#ccc" fill-opacity="1"/>
      </g>
      <g>
        <line x1="462" y1="340.25" x2="537" y2="395.0" stroke="#f00" stroke-width="3"/>
        <circle cx="537" cy="395.0" r="6.745368781616021" stroke="#f00" stroke-width="5" fill="#f00" fill-opacity="1"/>
      </g>
      <g>
        <line x1="462" y1="504.5" x2="537" y2="449.75" stroke="#080" stroke-width="3"/>
        <circle cx="537" cy="449.75" r="5.024937810560445" stroke="#080" stroke-width="5" fill="#080" fill-opacity="1"/>
      </g>
      <g>
        <line x1="462" y1="559.25" x2="537" y2="504.5" stroke="#888" stroke-width="3"/>
        <circle cx="537" cy="504.5" r="4.5" stroke="#888" stroke-width="5" fill="#888" fill-opacity="1"/>
      </g>
      <g>
        <line x1="462" y1="395.0" x2="537" y2="559.25" stroke="#cccccc" stroke-width="3"/>
        <circle cx="537" cy="559.25" r="4.358898943540674" stroke="#cccccc" stroke-width="5" fill="#cccccc" fill-opacity="1"/>
      </g>
      <g>
        <line x1="462" y1="668.75" x2="537" y2="614.0" stroke="#f80" stroke-width="3"/>
        <circle cx="537" cy="614.0" r="3.7080992435478315" stroke="#f80" stroke-width="5" fill="#f80" fill-opacity="1"/>
      </g>
      <g>
        <line x1="462" y1="614.0" x2="537" y2="668.75" stroke="#08f" stroke-width="3"/>
        <circle cx="537" cy="668.75" r="3.6742346141747673" stroke="#08f" stroke-width="5" fill="#08f" fill-opacity="1"/>
      </g>
      <g>
        <circle cx="537" cy="723.5" r="3.391164991562634" stroke="#cccccc" stroke-width="5" fill="#cccccc" fill-opacity="1"/>
      </g>
      <g>
        <circle cx="537" cy="778.25" r="4.301162633521313" stroke="#ccc" stroke-width="5" fill="#ccc" fill-opacity="1"/>
      </g>
    </g>
    <g>
      <text x="612" y="176" text-anchor="middle" dominant-baseline="middle" font-size="19.5" font-family="TCM_____" fill="#444">35-39</text>
      <g>
        <line x1="537" y1="230.75" x2="612" y2="230.75" stroke="#000" stroke-width="3"/>
        <circle cx="612" cy="230.75" r="17.64227876437735" stroke="#000" stroke-width="5" fill="#000" fill-opacity="1"/>
      </g>
      <g>
        <line x1="537" y1="285.5" x2="612" y2="285.5" stroke="#8f0" stroke-width="3"/>
        <circle cx="612" cy="285.5" r="9.810708435174291" stroke="#8f0" stroke-width="5" fill="#8f0" fill-opacity="1"/>
      </g>
      <g>
        <line x1="537" y1="395.0" x2="612" y2="340.25" stroke="#f00" stroke-width="3"/>
        <circle cx="612" cy="340.25" r="9.695359714832659" stroke="#f00" stroke-width="5" fill="#f00" fill-opacity="1"/>
      </g>
      <g>
        <line x1="537" y1="340.25" x2="612" y2="395.0" stroke="#ccc" stroke-width="3"/>
        <circle cx="612" cy="395.0" r="9.0" stroke="#ccc" stroke-width="5" fill="#ccc" fill-opacity="1"/>
      </g>
      <g>
        <line x1="537" y1="449.75" x2="612" y2="449.75" stroke="#080" stroke-width="3"/>
        <circle cx="612" cy="449.75" r="5.852349955359813" stroke="#080" stroke-width="5" fill="#080" fill-opacity="1"/>
      </g>
      <g>
        <line x1="537" y1="504.5" x2="612" y2="504.5" stroke="#888" stroke-width="3"/>
        <circle cx="612" cy="504.5" r="5.612486080160912" stroke="#888" stroke-width="5" fill="#888" fill-opacity="1"/>
      </g>
      <g>
        <line x1="537" y1="668.75" x2="612" y2="559.25" stroke="#08f" stroke-width="3"/>
        <circle cx="612" cy="559.25" r="4.949747468305833" stroke="#08f" stroke-width="5" fill="#08f" fill-opacity="1"/>
      </g>
      <g>
        <line x1="537" y1="723.5" x2="612" y2="614.0" stroke="#cccccc" stroke-width="3"/>
        <circle cx="612" cy="614.0" r="4.873397172404482" stroke="#cccccc" stroke-width="5" fill="#cccccc" fill-opacity="1"/>
      </g>
      <g>
        <line x1="462" y1="723.5" x2="612" y2="668.75" stroke="#fc0" stroke-width="3"/>
        <circle cx="612" cy="668.75" r="4.2130748865881795" stroke="#fc0" stroke-width="5" fill="#fc0" fill-opacity="1"/>
      </g>
      <g>
        <line x1="537" y1="614.0" x2="612" y2="723.5" stroke="#f80" stroke-width="3"/>
        <circle cx="612" cy="723.5" r="4.0" stroke="#f80" stroke-width="5" fill="#f80" fill-opacity="1"/>
      </g>
      <g>
        <circle cx="612" cy="778.25" r="5.1478150704935" stroke="#ccc" stroke-width="5" fill="#ccc" fill-opacity="1"/>
      </g>
    </g>
    <g>
      <text x="687" y="176" text-anchor="middle" dominant-baseline="middle" font-size="19.5" font-family="TCM_____" fill="#444">40-44</text>
      <g>
        <line x1="612" y1="230.75" x2="687" y2="230.75" stroke="#000" stroke-width="3"/>
        <circle cx="687" cy="230.75" r="15.819292019556375" stroke="#000" stroke-width="5" fill="#000" fill-opacity="1"/>
      </g>
      <g>
        <line x1="612" y1="340.25" x2="687" y2="285.5" stroke="#f00" stroke-width="3"/>
        <circle cx="687" cy="285.5" r="11.651180197731044" stroke="#f00" stroke-width="5" fill="#f00" fill-opacity="1"/>
      </g>
      <g>
        <line x1="612" y1="285.5" x2="687" y2="340.25" stroke="#8f0" stroke-width="3"/>
        <circle cx="687" cy="340.25" r="10.88577052853862" stroke="#8f0" stroke-width="5" fill="#8f0" fill-opacity="1"/>
      </g>
      <g>
        <line x1="612" y1="395.0" x2="687" y2="395.0" stroke="#ccc" stroke-width="3"/>
        <circle cx="687" cy="395.0" r="9.848857801796104" stroke="#ccc" stroke-width="5" fill="#ccc" fill-opacity="1"/>
      </g>
      <g>
        <line x1="612" y1="449.75" x2="687" y2="449.75" stroke="#080" stroke-width="3"/>
        <circle cx="687" cy="449.75" r="7.0178344238090995" stroke="#080" stroke-width="5" fill="#080" fill-opacity="1"/>
      </g>
      <g>
        <line x1="612" y1="504.5" x2="687" y2="504.5" stroke="#888" stroke-width="3"/>
        <circle cx="687" cy="504.5" r="6.614378277661476" stroke="#888" stroke-width="5" fill="#888" fill-opacity="1"/>
      </g>
      <g>
        <line x1="612" y1="559.25" x2="687" y2="559.25" stroke="#08f" stroke-width="3"/>
        <circle cx="687" cy="559.25" r="6.4031242374328485" stroke="#08f" stroke-width="5" fill="#08f" fill-opacity="1"/>
      </g>
      <g>
        <line x1="612" y1="614.0" x2="687" y2="614.0" stroke="#cccccc" stroke-width="3"/>
        <circle cx="687" cy="614.0" r="5.522680508593631" stroke="#cccccc" stroke-width="5" fill="#cccccc" fill-opacity="1"/>
      </g>
      <g>
        <line x1="612" y1="668.75" x2="687" y2="668.75" stroke="#fc0" stroke-width="3"/>
        <circle cx="687" cy="668.75" r="4.8218253804964775" stroke="#fc0" stroke-width="5" fill="#fc0" fill-opacity="1"/>
      </g>
      <g>
        <line x1="612" y1="723.5" x2="687" y2="723.5" stroke="#f80" stroke-width="3"/>
        <circle cx="687" cy="723.5" r="3.9370039370059056" stroke="#f80" stroke-width="5" fill="#f80" fill-opacity="1"/>
      </g>
      <g>
        <circle cx="687" cy="778.25" r="4.6097722286464435" stroke="#ccc" stroke-width="5" fill="#ccc" fill-opacity="1"/>
      </g>
    </g>
    <g>
      <text x="762" y="176" text-anchor="middle" dominant-baseline="middle" font-size="19.5" font-family="TCM_____" fill="#444">45-49</text>
      <g>
        <line x1="687" y1="230.75" x2="762" y2="230.75" stroke="#000" stroke-width="3"/>
        <circle cx="762" cy="230.75" r="15.636495771111889" stroke="#000" stroke-width="5" fill="#000" fill-opacity="1"/>
      </g>
      <g>
        <line x1="687" y1="285.5" x2="762" y2="285.5" stroke="#f00" stroke-width="3"/>
        <circle cx="762" cy="285.5" r="14.52583904633395" stroke="#f00" stroke-width="5" fill="#f00" fill-opacity="1"/>
      </g>
      <g>
        <line x1="687" y1="395.0" x2="762" y2="340.25" stroke="#ccc" stroke-width="3"/>
        <circle cx="762" cy="340.25" r="11.672617529928752" stroke="#ccc" stroke-width="5" fill="#ccc" fill-opacity="1"/>
      </g>
      <g>
        <line x1="687" y1="340.25" x2="762" y2="395.0" stroke="#8f0" stroke-width="3"/>
        <circle cx="762" cy="395.0" r="11.5" stroke="#8f0" stroke-width="5" fill="#8f0" fill-opacity="1"/>
        <text x="762" y="395.0" text-anchor="middle" dominant-baseline="middle" font-size="19.5" font-family="TCM_____" fill="black">Digestive</text>
      </g>
      <g>
        <line x1="687" y1="504.5" x2="762" y2="449.75" stroke="#888" stroke-width="3"/>
        <circle cx="762" cy="449.75" r="8.306623862918075" stroke="#888" stroke-width="5" fill="#888" fill-opacity="1"/>
      </g>
      <g>
        <line x1="687" y1="449.75" x2="762" y2="504.5" stroke="#080" stroke-width="3"/>
        <circle cx="762" cy="504.5" r="7.664854858377946" stroke="#080" stroke-width="5" fill="#080" fill-opacity="1"/>
      </g>
      <g>
        <line x1="687" y1="559.25" x2="762" y2="559.25" stroke="#08f" stroke-width="3"/>
        <circle cx="762" cy="559.25" r="7.516648189186454" stroke="#08f" stroke-width="5" fill="#08f" fill-opacity="1"/>
      </g>
      <g>
        <line x1="687" y1="614.0" x2="762" y2="614.0" stroke="#cccccc" stroke-width="3"/>
        <circle cx="762" cy="614.0" r="5.830951894845301" stroke="#cccccc" stroke-width="5" fill="#cccccc" fill-opacity="1"/>
        <text x="762" y="614.0" text-anchor="middle" dominant-baseline="middle" font-size="19.5" font-family="TCM_____" fill="black">Mental</text>
      </g>
      <g>
        <line x1="687" y1="668.75" x2="762" y2="668.75" stroke="#fc0" stroke-width="3"/>
        <circle cx="762" cy="668.75" r="5.545268253204709" stroke="#fc0" stroke-width="5" fill="#fc0" fill-opacity="1"/>
      </g>
      <g>
        <line x1="687" y1="723.5" x2="762" y2="723.5" stroke="#f80" stroke-width="3"/>
        <circle cx="762" cy="723.5" r="5.408326913195984" stroke="#f80" stroke-width="5" fill="#f80" fill-opacity="1"/>
      </g>
      <g>
        <circle cx="762" cy="778.25" r="5.385164807134504" stroke="#ccc" stroke-width="5" fill="#ccc" fill-opacity="1"/>
      </g>
    </g>
    <g>
      <text x="837" y="176" text-anchor="middle" dominant-baseline="middle" font-size="19.5" font-family="TCM_____" fill="#444">50-54</text>
      <g>
        <line x1="762" y1="285.5" x2="837" y2="230.75" stroke="#f00" stroke-width="3"/>
        <circle cx="837" cy="230.75" r="17.4928556845359" stroke="#f00" stroke-width="5" fill="#f00" fill-opacity="1"/>
      </g>
      <g>
        <line x1="762" y1="340.25" x2="837" y2="285.5" stroke="#ccc" stroke-width="3"/>
        <circle cx="837" cy="285.5" r="13.820274961085254" stroke="#ccc" stroke-width="5" fill="#ccc" fill-opacity="1"/>
      </g>
      <g>
        <line x1="762" y1="230.75" x2="837" y2="340.25" stroke="#000" stroke-width="3"/>
        <circle cx="837" cy="340.25" r="13.45362404707371" stroke="#000" stroke-width="5" fill="#000" fill-opacity="1"/>
      </g>
      <g>
        <line x1="762" y1="395.0" x2="837" y2="395.0" stroke="#8f0" stroke-width="3"/>
        <circle cx="837" cy="395.0" r="11.20267825120404" stroke="#8f0" stroke-width="5" fill="#8f0" fill-opacity="1"/>
      </g>
      <g>
        <line x1="762" y1="449.75" x2="837" y2="449.75" stroke="#888" stroke-width="3"/>
        <circle cx="837" cy="449.75" r="10.0" stroke="#888" stroke-width="5" fill="#888" fill-opacity="1"/>
      </g>
      <g>
        <line x1="762" y1="559.25" x2="837" y2="504.5" stroke="#08f" stroke-width="3"/>
        <circle cx="837" cy="504.5" r="9.055385138137417" stroke="#08f" stroke-width="5" fill="#08f" fill-opacity="1"/>
      </g>
      <g>
        <line x1="762" y1="504.5" x2="837" y2="559.25" stroke="#080" stroke-width="3"/>
        <circle cx="837" cy="559.25" r="7.905694150420948" stroke="#080" stroke-width="5" fill="#080" fill-opacity="1"/>
      </g>
      <g>
        <line x1="762" y1="723.5" x2="837" y2="614.0" stroke="#f80" stroke-width="3"/>
        <circle cx="837" cy="614.0" r="5.787918451395113" stroke="#f80" stroke-width="5" fill="#f80" fill-opacity="1"/>
      </g>
      <g>
        <line x1="762" y1="668.75" x2="837" y2="668.75" stroke="#fc0" stroke-width="3"/>
        <circle cx="837" cy="668.75" r="5.431390245600108" stroke="#fc0" stroke-width="5" fill="#fc0" fill-opacity="1"/>
      </g>
      <g>
        <line x1="762" y1="614.0" x2="837" y2="723.5" stroke="#cccccc" stroke-width="3"/>
        <circle cx="837" cy="723.5" r="5.385164807134504" stroke="#cccccc" stroke-width="5" fill="#cccccc" fill-opacity="1"/>
      </g>
      <g>
        <circle cx="837" cy="778.25" r="5.873670062235365" stroke="#ccc" stroke-width="5" fill="#ccc" fill-opacity="1"/>
      </g>
    </g>
    <g>
      <text x="912" y="176" text-anchor="middle" dominant-baseline="middle" font-size="19.5" font-family="TCM_____" fill="#444">55-59</text>
      <g>
        <line x1="837" y1="230.75" x2="912" y2="230.75" stroke="#f00" stroke-width="3"/>
        <circle cx="912" cy="230.75" r="18.96707673839066" stroke="#f00" stroke-width="5" fill="#f00" fill-opacity="1"/>
      </g>
      <g>
        <line x1="837" y1="285.5" x2="912" y2="285.5" stroke="#ccc" stroke-width="3"/>
        <circle cx="912" cy="285.5" r="14.551632210855248" stroke="#ccc" stroke-width="5" fill="#ccc" fill-opacity="1"/>
      </g>
      <g>
        <line x1="837" y1="340.25" x2="912" y2="340.25" stroke="#000" stroke-width="3"/>
        <circle cx="912" cy="340.25" r="12.12435565298214" stroke="#000" stroke-width="5" fill="#000" fill-opacity="1"/>
      </g>
      <g>
        <line x1="837" y1="449.75" x2="912" y2="395.0" stroke="#888" stroke-width="3"/>
        <circle cx="912" cy="395.0" r="10.380269746013347" stroke="#888" stroke-width="5" fill="#888" fill-opacity="1"/>
      </g>
      <g>
        <line x1="837" y1="504.5" x2="912" y2="449.75" stroke="#08f" stroke-width="3"/>
        <circle cx="912" cy="449.75" r="10.344080432788601" stroke="#08f" stroke-width="5" fill="#08f" fill-opacity="1"/>
      </g>
      <g>
        <line x1="837" y1="395.0" x2="912" y2="504.5" stroke="#8f0" stroke-width="3"/>
        <circle cx="912" cy="504.5" r="9.962429422585638" stroke="#8f0" stroke-width="5" fill="#8f0" fill-opacity="1"/>
      </g>
      <g>
        <line x1="837" y1="559.25" x2="912" y2="559.25" stroke="#080" stroke-width="3"/>
        <circle cx="912" cy="559.25" r="7.713624310270756" stroke="#080" stroke-width="5" fill="#080" fill-opacity="1"/>
      </g>
      <g>
        <line x1="837" y1="614.0" x2="912" y2="614.0" stroke="#f80" stroke-width="3"/>
        <circle cx="912" cy="614.0" r="7.314369419163897" stroke="#f80" stroke-width="5" fill="#f80" fill-opacity="1"/>
      </g>
      <g>
        <line x1="837" y1="668.75" x2="912" y2="668.75" stroke="#fc0" stroke-width="3"/>
        <circle cx="912" cy="668.75" r="5.937171043518958" stroke="#fc0" stroke-width="5" fill="#fc0" fill-opacity="1"/>
      </g>
      <g>
        <line x1="162" y1="723.5" x2="912" y2="723.5" stroke="#f08" stroke-width="3"/>
        <circle cx="912" cy="723.5" r="5.049752469181039" stroke="#f08" stroke-width="5" fill="#f08" fill-opacity="1"/>
      </g>
      <g>
        <circle cx="912" cy="778.25" r="5.830951894845301" stroke="#ccc" stroke-width="5" fill="#ccc" fill-opacity="1"/>
      </g>
    </g>
    <g>
      <text x="987" y="176" text-anchor="middle" dominant-baseline="middle" font-size="19.5" font-family="TCM_____" fill="#444">60-64</text>
      <g>
        <line x1="912" y1="230.75" x2="987" y2="230.75" stroke="#f00" stroke-width="3"/>
        <circle cx="987" cy="230.75" r="19.94367067517913" stroke="#f00" stroke-width="5" fill="#f00" fill-opacity="1"/>
      </g>
      <g>
        <line x1="912" y1="285.5" x2="987" y2="285.5" stroke="#ccc" stroke-width="3"/>
        <circle cx="987" cy="285.5" r="16.99264546796643" stroke="#ccc" stroke-width="5" fill="#ccc" fill-opacity="1"/>
      </g>
      <g>
        <line x1="912" y1="395.0" x2="987" y2="340.25" stroke="#888" stroke-width="3"/>
        <circle cx="987" cy="340.25" r="12.103718436910205" stroke="#888" stroke-width="5" fill="#888" fill-opacity="1"/>
      </g>
      <g>
        <line x1="912" y1="449.75" x2="987" y2="395.0" stroke="#08f" stroke-width="3"/>
        <circle cx="987" cy="395.0" r="10.920164833920778" stroke="#08f" stroke-width="5" fill="#08f" fill-opacity="1"/>
      </g>
      <g>
        <line x1="912" y1="340.25" x2="987" y2="449.75" stroke="#000" stroke-width="3"/>
        <circle cx="987" cy="449.75" r="10.404326023342406" stroke="#000" stroke-width="5" fill="#000" fill-opacity="1"/>
      </g>
      <g>
        <line x1="912" y1="614.0" x2="987" y2="504.5" stroke="#f80" stroke-width="3"/>
        <circle cx="987" cy="504.5" r="9.17877987534291" stroke="#f80" stroke-width="5" fill="#f80" fill-opacity="1"/>
      </g>
      <g>
        <line x1="912" y1="504.5" x2="987" y2="559.25" stroke="#8f0" stroke-width="3"/>
        <circle cx="987" cy="559.25" r="8.760707733967616" stroke="#8f0" stroke-width="5" fill="#8f0" fill-opacity="1"/>
      </g>
      <g>
        <line x1="912" y1="559.25" x2="987" y2="614.0" stroke="#080" stroke-width="3"/>
        <circle cx="987" cy="614.0" r="7.19374728496908" stroke="#080" stroke-width="5" fill="#080" fill-opacity="1"/>
      </g>
      <g>
        <line x1="912" y1="668.75" x2="987" y2="668.75" stroke="#fc0" stroke-width="3"/>
        <circle cx="987" cy="668.75" r="6.103277807866851" stroke="#fc0" stroke-width="5" fill="#fc0" fill-opacity="1"/>
        <text x="987" y="668.75" text-anchor="middle" dominant-baseline="middle" font-size="19.5" font-family="TCM_____" fill="black">Genito-urinary</text>
      </g>
      <g>
        <line x1="912" y1="723.5" x2="987" y2="723.5" stroke="#f08" stroke-width="3"/>
        <circle cx="987" cy="723.5" r="5.267826876426369" stroke="#f08" stroke-width="5" fill="#f08" fill-opacity="1"/>
      </g>
      <g>
        <circle cx="987" cy="778.25" r="5.361902647381804" stroke="#ccc" stroke-width="5" fill="#ccc" fill-opacity="1"/>
      </g>
    </g>
    <g>
      <text x="1062" y="176" text-anchor="middle" dominant-baseline="middle" font-size="19.5" font-family="TCM_____" fill="#444">65-69</text>
      <g>
        <line x1="987" y1="230.75" x2="1062" y2="230.75" stroke="#f00" stroke-width="3"/>
        <circle cx="1062" cy="230.75" r="21.61018278497431" stroke="#f00" stroke-width="5" fill="#f00" fill-opacity="1"/>
        <text x="1062" y="230.75" text-anchor="middle" dominant-baseline="middle" font-size="19.5" font-family="TCM_____" fill="black">Heart</text>
      </g>
      <g>
        <line x1="987" y1="285.5" x2="1062" y2="285.5" stroke="#ccc" stroke-width="3"/>
        <circle cx="1062" cy="285.5" r="19.924858845171276" stroke="#ccc" stroke-width="5" fill="#ccc" fill-opacity="1"/>
      </g>
      <g>
        <line x1="987" y1="340.25" x2="1062" y2="340.25" stroke="#888" stroke-width="3"/>
        <circle cx="1062" cy="340.25" r="13.546217184144066" stroke="#888" stroke-width="5" fill="#888" fill-opacity="1"/>
        <text x="1062" y="340.25" text-anchor="middle" dominant-baseline="middle" font-size="19.5" font-family="TCM_____" fill="black">Respiratory</text>
      </g>
      <g>
        <line x1="987" y1="504.5" x2="1062" y2="395.0" stroke="#f80" stroke-width="3"/>
        <circle cx="1062" cy="395.0" r="12.05197079319395" stroke="#f80" stroke-width="5" fill="#f80" fill-opacity="1"/>
      </g>
      <g>
        <line x1="987" y1="395.0" x2="1062" y2="449.75" stroke="#08f" stroke-width="3"/>
        <circle cx="1062" cy="449.75" r="11.390785749894517" stroke="#08f" stroke-width="5" fill="#08f" fill-opacity="1"/>
        <text x="1062" y="449.75" text-anchor="middle" dominant-baseline="middle" font-size="19.5" font-family="TCM_____" fill="black">Cancers</text>
      </g>
      <g>
        <line x1="987" y1="449.75" x2="1062" y2="504.5" stroke="#000" stroke-width="3"/>
        <circle cx="1062" cy="504.5" r="10.816653826391969" stroke="#000" stroke-width="5" fill="#000" fill-opacity="1"/>
      </g>
      <g>
        <line x1="987" y1="614.0" x2="1062" y2="559.25" stroke="#080" stroke-width="3"/>
        <circle cx="1062" cy="559.25" r="8.18535277187245" stroke="#080" stroke-width="5" fill="#080" fill-opacity="1"/>
        <text x="1062" y="559.25" text-anchor="middle" dominant-baseline="middle" font-size="19.5" font-family="TCM_____" fill="black">Infectious</text>
      </g>
      <g>
        <line x1="987" y1="559.25" x2="1062" y2="614.0" stroke="#8f0" stroke-width="3"/>
        <circle cx="1062" cy="614.0" r="7.952986860293433" stroke="#8f0" stroke-width="5" fill="#8f0" fill-opacity="1"/>
      </g>
      <g>
        <line x1="987" y1="723.5" x2="1062" y2="668.75" stroke="#f08" stroke-width="3"/>
        <circle cx="1062" cy="668.75" r="6.614378277661476" stroke="#f08" stroke-width="5" fill="#f08" fill-opacity="1"/>
        <text x="1062" y="668.75" text-anchor="middle" dominant-baseline="middle" font-size="19.5" font-family="TCM_____" fill="black">Metabolic</text>
      </g>
      <g>
        <line x1="987" y1="668.75" x2="1062" y2="723.5" stroke="#fc0" stroke-width="3"/>
        <circle cx="1062" cy="723.5" r="5.852349955359813" stroke="#fc0" stroke-width="5" fill="#fc0" fill-opacity="1"/>
      </g>
      <g>
        <circle cx="1062" cy="778.25" r="5.545268253204709" stroke="#ccc" stroke-width="5" fill="#ccc" fill-opacity="1"/>
      </g>
    </g>
    <g>
      <text x="1137" y="176" text-anchor="middle" dominant-baseline="middle" font-size="19.5" font-family="TCM_____" fill="#444">70-74</text>
      <g>
        <line x1="1062" y1="285.5" x2="1137" y2="230.75" stroke="#ccc" stroke-width="3"/>
        <circle cx="1137" cy="230.75" r="25.352514668174436" stroke="#ccc" stroke-width="5" fill="#ccc" fill-opacity="1"/>
      </g>
      <g>
        <line x1="1062" y1="230.75" x2="1137" y2="285.5" stroke="#f00" stroke-width="3"/>
        <circle cx="1137" cy="285.5" r="21.47673159491453" stroke="#f00" stroke-width="5" fill="#f00" fill-opacity="1"/>
      </g>
      <g>
        <line x1="1062" y1="395.0" x2="1137" y2="340.25" stroke="#f80" stroke-width="3"/>
        <circle cx="1137" cy="340.25" r="13.546217184144066" stroke="#f80" stroke-width="5" fill="#f80" fill-opacity="1"/>
        <text x="1137" y="340.25" text-anchor="middle" dominant-baseline="middle" font-size="19.5" font-family="TCM_____" fill="black">Nervous</text>
      </g>
      <g>
        <line x1="1062" y1="340.25" x2="1137" y2="395.0" stroke="#888" stroke-width="3"/>
        <circle cx="1137" cy="395.0" r="13.435028842544403" stroke="#888" stroke-width="5" fill="#888" fill-opacity="1"/>
      </g>
      <g>
        <line x1="1062" y1="449.75" x2="1137" y2="449.75" stroke="#08f" stroke-width="3"/>
        <circle cx="1137" cy="449.75" r="11.0" stroke="#08f" stroke-width="5" fill="#08f" fill-opacity="1"/>
      </g>
      <g>
        <line x1="1062" y1="504.5" x2="1137" y2="504.5" stroke="#000" stroke-width="3"/>
        <circle cx="1137" cy="504.5" r="9.287087810503355" stroke="#000" stroke-width="5" fill="#000" fill-opacity="1"/>
      </g>
      <g>
        <line x1="1062" y1="559.25" x2="1137" y2="559.25" stroke="#080" stroke-width="3"/>
        <circle cx="1137" cy="559.25" r="7.632168761236874" stroke="#080" stroke-width="5" fill="#080" fill-opacity="1"/>
      </g>
      <g>
        <line x1="1062" y1="614.0" x2="1137" y2="614.0" stroke="#8f0" stroke-width="3"/>
        <circle cx="1137" cy="614.0" r="6.284902544988268" stroke="#8f0" stroke-width="5" fill="#8f0" fill-opacity="1"/>
      </g>
      <g>
        <line x1="1062" y1="668.75" x2="1137" y2="668.75" stroke="#f08" stroke-width="3"/>
        <circle cx="1137" cy="668.75" r="5.916079783099616" stroke="#f08" stroke-width="5" fill="#f08" fill-opacity="1"/>
      </g>
      <g>
        <line x1="1062" y1="723.5" x2="1137" y2="723.5" stroke="#fc0" stroke-width="3"/>
        <circle cx="1137" cy="723.5" r="5.5" stroke="#fc0" stroke-width="5" fill="#fc0" fill-opacity="1"/>
      </g>
      <g>
        <circle cx="1137" cy="778.25" r="5.1478150704935" stroke="#ccc" stroke-width="5" fill="#ccc" fill-opacity="1"/>
      </g>
    </g>
    <g>
      <text x="1212" y="176" text-anchor="middle" dominant-baseline="middle" font-size="19.5" font-family="TCM_____" fill="#444">75-79</text>
      <g>
        <line x1="1137" y1="230.75" x2="1212" y2="230.75" stroke="#ccc" stroke-width="3"/>
        <circle cx="1212" cy="230.75" r="25.134637455113612" stroke="#ccc" stroke-width="5" fill="#ccc" fill-opacity="1"/>
      </g>
      <g>
        <line x1="1137" y1="285.5" x2="1212" y2="285.5" stroke="#f00" stroke-width="3"/>
        <circle cx="1212" cy="285.5" r="18.75499933351105" stroke="#f00" stroke-width="5" fill="#f00" fill-opacity="1"/>
      </g>
      <g>
        <line x1="1137" y1="340.25" x2="1212" y2="340.25" stroke="#f80" stroke-width="3"/>
        <circle cx="1212" cy="340.25" r="12.165525060596439" stroke="#f80" stroke-width="5" fill="#f80" fill-opacity="1"/>
      </g>
      <g>
        <line x1="1137" y1="395.0" x2="1212" y2="395.0" stroke="#888" stroke-width="3"/>
        <circle cx="1212" cy="395.0" r="10.641898326896381" stroke="#888" stroke-width="5" fill="#888" fill-opacity="1"/>
      </g>
      <g>
        <line x1="1137" y1="449.75" x2="1212" y2="449.75" stroke="#08f" stroke-width="3"/>
        <circle cx="1212" cy="449.75" r="7.842193570679061" stroke="#08f" stroke-width="5" fill="#08f" fill-opacity="1"/>
      </g>
      <g>
        <line x1="1137" y1="504.5" x2="1212" y2="504.5" stroke="#000" stroke-width="3"/>
        <circle cx="1212" cy="504.5" r="7.211102550927978" stroke="#000" stroke-width="5" fill="#000" fill-opacity="1"/>
      </g>
      <g>
        <line x1="1137" y1="559.25" x2="1212" y2="559.25" stroke="#080" stroke-width="3"/>
        <circle cx="1212" cy="559.25" r="6.7638746292343415" stroke="#080" stroke-width="5" fill="#080" fill-opacity="1"/>
      </g>
      <g>
        <line x1="1137" y1="668.75" x2="1212" y2="614.0" stroke="#f08" stroke-width="3"/>
        <circle cx="1212" cy="614.0" r="5.656854249492381" stroke="#f08" stroke-width="5" fill="#f08" fill-opacity="1"/>
      </g>
      <g>
        <line x1="1137" y1="723.5" x2="1212" y2="668.75" stroke="#fc0" stroke-width="3"/>
        <circle cx="1212" cy="668.75" r="4.847679857416329" stroke="#fc0" stroke-width="5" fill="#fc0" fill-opacity="1"/>
      </g>
      <g>
        <line x1="1137" y1="614.0" x2="1212" y2="723.5" stroke="#8f0" stroke-width="3"/>
        <circle cx="1212" cy="723.5" r="4.743416490252569" stroke="#8f0" stroke-width="5" fill="#8f0" fill-opacity="1"/>
      </g>
      <g>
        <circle cx="1212" cy="778.25" r="4.272001872658765" stroke="#ccc" stroke-width="5" fill="#ccc" fill-opacity="1"/>
      </g>
    </g>
    <g>
      <text x="1287" y="176" text-anchor="middle" dominant-baseline="middle" font-size="19.5" font-family="TCM_____" fill="#444">80-84</text>
      <g>
        <line x1="1212" y1="230.75" x2="1287" y2="230.75" stroke="#ccc" stroke-width="3"/>
        <circle cx="1287" cy="230.75" r="28.155816450602174" stroke="#ccc" stroke-width="5" fill="#ccc" fill-opacity="1"/>
      </g>
      <g>
        <line x1="1212" y1="285.5" x2="1287" y2="285.5" stroke="#f00" stroke-width="3"/>
        <circle cx="1287" cy="285.5" r="15.313392831113555" stroke="#f00" stroke-width="5" fill="#f00" fill-opacity="1"/>
      </g>
      <g>
        <line x1="1212" y1="340.25" x2="1287" y2="340.25" stroke="#f80" stroke-width="3"/>
        <circle cx="1287" cy="340.25" r="11.113055385446435" stroke="#f80" stroke-width="5" fill="#f80" fill-opacity="1"/>
      </g>
      <g>
        <line x1="1212" y1="395.0" x2="1287" y2="395.0" stroke="#888" stroke-width="3"/>
        <circle cx="1287" cy="395.0" r="8.817596044274199" stroke="#888" stroke-width="5" fill="#888" fill-opacity="1"/>
      </g>
      <g>
        <line x1="1212" y1="449.75" x2="1287" y2="449.75" stroke="#08f" stroke-width="3"/>
        <circle cx="1287" cy="449.75" r="6.144102863722254" stroke="#08f" stroke-width="5" fill="#08f" fill-opacity="1"/>
      </g>
      <g>
        <line x1="1212" y1="504.5" x2="1287" y2="504.5" stroke="#000" stroke-width="3"/>
        <circle cx="1287" cy="504.5" r="6.103277807866851" stroke="#000" stroke-width="5" fill="#000" fill-opacity="1"/>
      </g>
      <g>
        <line x1="1212" y1="559.25" x2="1287" y2="559.25" stroke="#080" stroke-width="3"/>
        <circle cx="1287" cy="559.25" r="5.5" stroke="#080" stroke-width="5" fill="#080" fill-opacity="1"/>
      </g>
      <g>
        <line x1="1212" y1="614.0" x2="1287" y2="614.0" stroke="#f08" stroke-width="3"/>
        <circle cx="1287" cy="614.0" r="4.9749371855331" stroke="#f08" stroke-width="5" fill="#f08" fill-opacity="1"/>
      </g>
      <g>
        <line x1="1212" y1="723.5" x2="1287" y2="668.75" stroke="#8f0" stroke-width="3"/>
        <circle cx="1287" cy="668.75" r="4.444097208657794" stroke="#8f0" stroke-width="5" fill="#8f0" fill-opacity="1"/>
      </g>
      <g>
        <line x1="1212" y1="668.75" x2="1287" y2="723.5" stroke="#fc0" stroke-width="3"/>
        <circle cx="1287" cy="723.5" r="3.905124837953327" stroke="#fc0" stroke-width="5" fill="#fc0" fill-opacity="1"/>
      </g>
      <g>
        <circle cx="1287" cy="778.25" r="4.0" stroke="#ccc" stroke-width="5" fill="#ccc" fill-opacity="1"/>
      </g>
    </g>
    <g>
      <text x="1362" y="176" text-anchor="middle" dominant-baseline="middle" font-size="19.5" font-family="TCM_____" fill="#444">85-120</text>
      <g>
        <text x="1437.047619047619" y="230.75" text-anchor="middle" dominant-baseline="middle" font-size="19.5" font-family="TCM_____" fill="#444">Top</text>
        <line x1="1287" y1="230.75" x2="1362" y2="230.75" stroke="#ccc" stroke-width="3"/>
        <circle cx="1362" cy="230.75" r="32.338058074040255" stroke="#ccc" stroke-width="5" fill="#ccc" fill-opacity="1"/>
        <text x="1362" y="230.75" text-anchor="middle" dominant-baseline="middle" font-size="19.5" font-family="TCM_____" fill="black">Unspecified</text>
      </g>
      <g>
        <text x="1437.047619047619" y="285.5" text-anchor="middle" dominant-baseline="middle" font-size="19.5" font-family="TCM_____" fill="#444">2nd</text>
        <line x1="1287" y1="285.5" x2="1362" y2="285.5" stroke="#f00" stroke-width="3"/>
        <circle cx="1362" cy="285.5" r="13.133925536563698" stroke="#f00" stroke-width="5" fill="#f00" fill-opacity="1"/>
      </g>
      <g>
        <text x="1437.047619047619" y="340.25" text-anchor="middle" dominant-baseline="middle" font-size="19.5" font-family="TCM_____" fill="#444">3rd</text>
        <line x1="1287" y1="340.25" x2="1362" y2="340.25" stroke="#f80" stroke-width="3"/>
        <circle cx="1362" cy="340.25" r="10.21028892833107" stroke="#f80" stroke-width="5" fill="#f80" fill-opacity="1"/>
      </g>
      <g>
        <text x="1437.047619047619" y="395.0" text-anchor="middle" dominant-baseline="middle" font-size="19.5" font-family="TCM_____" fill="#444">4th</text>
        <line x1="1287" y1="395.0" x2="1362" y2="395.0" stroke="#888" stroke-width="3"/>
        <circle cx="1362" cy="395.0" r="8.093207028119323" stroke="#888" stroke-width="5" fill="#888" fill-opacity="1"/>
      </g>
      <g>
        <text x="1437.047619047619" y="449.75" text-anchor="middle" dominant-baseline="middle" font-size="19.5" font-family="TCM_____" fill="#444">5th</text>
        <line x1="1287" y1="504.5" x2="1362" y2="449.75" stroke="#000" stroke-width="3"/>
        <circle cx="1362" cy="449.75" r="5.766281297335398" stroke="#000" stroke-width="5" fill="#000" fill-opacity="1"/>
      </g>
      <g>
        <text x="1437.047619047619" y="504.5" text-anchor="middle" dominant-baseline="middle" font-size="19.5" font-family="TCM_____" fill="#444">6th</text>
        <line x1="1287" y1="559.25" x2="1362" y2="504.5" stroke="#080" stroke-width="3"/>
        <circle cx="1362" cy="504.5" r="4.769696007084728" stroke="#080" stroke-width="5" fill="#080" fill-opacity="1"/>
      </g>
      <g>
        <text x="1437.047619047619" y="559.25" text-anchor="middle" dominant-baseline="middle" font-size="19.5" font-family="TCM_____" fill="#444">7th</text>
        <line x1="1287" y1="614.0" x2="1362" y2="559.25" stroke="#f08" stroke-width="3"/>
        <circle cx="1362" cy="559.25" r="4.242640687119285" stroke="#f08" stroke-width="5" fill="#f08" fill-opacity="1"/>
      </g>
      <g>
        <text x="1437.047619047619" y="614.0" text-anchor="middle" dominant-baseline="middle" font-size="19.5" font-family="TCM_____" fill="#444">8th</text>
        <line x1="1287" y1="449.75" x2="1362" y2="614.0" stroke="#08f" stroke-width="3"/>
        <circle cx="1362" cy="614.0" r="4.092676385936225" stroke="#08f" stroke-width="5" fill="#08f" fill-opacity="1"/>
      </g>
      <g>
        <text x="1437.047619047619" y="668.75" text-anchor="middle" dominant-baseline="middle" font-size="19.5" font-family="TCM_____" fill="#444">9th</text>
        <line x1="1287" y1="723.5" x2="1362" y2="668.75" stroke="#fc0" stroke-width="3"/>
        <circle cx="1362" cy="668.75" r="3.6742346141747673" stroke="#fc0" stroke-width="5" fill="#fc0" fill-opacity="1"/>
      </g>
      <g>
        <text x="1437.047619047619" y="723.5" text-anchor="middle" dominant-baseline="middle" font-size="19.5" font-family="TCM_____" fill="#444">10th</text>
        <circle cx="1362" cy="723.5" r="3.0" stroke="#cccccc" stroke-width="5" fill="#cccccc" fill-opacity="1"/>
      </g>
      <g>
        <circle cx="1362" cy="778.25" r="3.840572873934304" stroke="#ccc" stroke-width="5" fill="#ccc" fill-opacity="1"/>
      </g>
    </g>
  </g>
  <g>
    <text x="800" y="833.25" text-anchor="middle" dominant-baseline="middle" font-size="26" font-family="TCM_____" fill="#888">Data by The Department of Census and Statistics, Sri Lanka · Visualization by @nuuuwan</text>
  </g>
</svg>
