<?xml version="1.0" ?>
<svg xmlns="http://www.w3.org/2000/svg" width="1600" height="900">
  <g>
    <text x="800.0" y="89.99999999999999" text-anchor="middle" dominant-baseline="middle" font-size="48" font-family="P22 Johnston" fill="black">Top 10 Causes of Death by Age-Group (Sri Lanka)</text>
    <text x="1360.0" y="89.99999999999999" text-anchor="start" dominant-baseline="middle" font-size="108" font-family="P22 Johnston" fill="#888">2006</text>
  </g>
  <g>
    <g>
      <text x="160.0" y="179.99999999999997" text-anchor="middle" dominant-baseline="middle" font-size="18.0" font-family="P22 Johnston" fill="black">1-4</text>
      <text x="80.0" y="261.0" text-anchor="middle" dominant-baseline="middle" font-size="18.0" font-family="P22 Johnston" fill="black">Top</text>
      <circle cx="160.0" cy="261.0" r="9.1" stroke="#00f" fill="#00f" fill-opacity="0.5"/>
      <text x="80.0" y="315.0" text-anchor="middle" dominant-baseline="middle" font-size="18.0" font-family="P22 Johnston" fill="black">2nd</text>
      <circle cx="160.0" cy="315.0" r="8.937001734362592" stroke="#000" fill="#000" fill-opacity="0.5"/>
      <text x="160.0" y="315.0" text-anchor="middle" dominant-baseline="middle" font-size="18.0" font-family="P22 Johnston" fill="black">Accidents / Injuries</text>
      <text x="80.0" y="369.0" text-anchor="middle" dominant-baseline="middle" font-size="18.0" font-family="P22 Johnston" fill="black">3rd</text>
      <circle cx="160.0" cy="369.0" r="6.491532946846992" stroke="#888" fill="#888" fill-opacity="0.5"/>
      <text x="160.0" y="369.0" text-anchor="middle" dominant-baseline="middle" font-size="18.0" font-family="P22 Johnston" fill="black">Respiratory</text>
      <text x="80.0" y="423.0" text-anchor="middle" dominant-baseline="middle" font-size="18.0" font-family="P22 Johnston" fill="black">4th</text>
      <circle cx="160.0" cy="423.0" r="5.772347875864725" stroke="#080" fill="#080" fill-opacity="0.5"/>
      <text x="160.0" y="423.0" text-anchor="middle" dominant-baseline="middle" font-size="18.0" font-family="P22 Johnston" fill="black">Infectious</text>
      <text x="80.0" y="477.0" text-anchor="middle" dominant-baseline="middle" font-size="18.0" font-family="P22 Johnston" fill="black">5th</text>
      <circle cx="160.0" cy="477.0" r="5.376802023508025" stroke="#08f" fill="#08f" fill-opacity="0.5"/>
      <text x="160.0" y="477.0" text-anchor="middle" dominant-baseline="middle" font-size="18.0" font-family="P22 Johnston" fill="black">Cancers</text>
      <text x="80.0" y="531.0" text-anchor="middle" dominant-baseline="middle" font-size="18.0" font-family="P22 Johnston" fill="black">6th</text>
      <circle cx="160.0" cy="531.0" r="5.0477717856495845" stroke="#ccc" fill="#ccc" fill-opacity="0.5"/>
      <text x="80.0" y="585.0" text-anchor="middle" dominant-baseline="middle" font-size="18.0" font-family="P22 Johnston" fill="black">7th</text>
      <circle cx="160.0" cy="585.0" r="4.747630988187687" stroke="#f80" fill="#f80" fill-opacity="0.5"/>
      <text x="160.0" y="585.0" text-anchor="middle" dominant-baseline="middle" font-size="18.0" font-family="P22 Johnston" fill="black">Nervous</text>
      <text x="80.0" y="639.0" text-anchor="middle" dominant-baseline="middle" font-size="18.0" font-family="P22 Johnston" fill="black">8th</text>
      <circle cx="160.0" cy="639.0" r="3.429285639896449" stroke="#f00" fill="#f00" fill-opacity="0.5"/>
      <text x="160.0" y="639.0" text-anchor="middle" dominant-baseline="middle" font-size="18.0" font-family="P22 Johnston" fill="black">Heart</text>
      <text x="80.0" y="693.0" text-anchor="middle" dominant-baseline="middle" font-size="18.0" font-family="P22 Johnston" fill="black">9th</text>
      <circle cx="160.0" cy="693.0" r="2.2135943621178655" stroke="#fc0" fill="#fc0" fill-opacity="0.5"/>
      <text x="160.0" y="693.0" text-anchor="middle" dominant-baseline="middle" font-size="18.0" font-family="P22 Johnston" fill="black">Genito-urinary</text>
      <text x="80.0" y="747.0" text-anchor="middle" dominant-baseline="middle" font-size="18.0" font-family="P22 Johnston" fill="black">10th</text>
      <circle cx="160.0" cy="747.0" r="2.0999999999999996" stroke="#cccccc" fill="#cccccc" fill-opacity="0.5"/>
      <text x="160.0" y="747.0" text-anchor="middle" dominant-baseline="middle" font-size="18.0" font-family="P22 Johnston" fill="black">Blood / Immune</text>
      <circle cx="160.0" cy="801.0" r="3.1304951684997055" stroke="#888" fill="#fff"/>
      <text x="80.0" y="801.0" text-anchor="middle" dominant-baseline="middle" font-size="12" font-family="P22 Johnston" fill="#888">All Others</text>
    </g>
    <g>
      <text x="240.0" y="179.99999999999997" text-anchor="middle" dominant-baseline="middle" font-size="18.0" font-family="P22 Johnston" fill="black">5-9</text>
      <circle cx="240.0" cy="261.0" r="5.6" stroke="#00f" fill="#00f" fill-opacity="0.5"/>
      <circle cx="240.0" cy="315.0" r="4.643274706497559" stroke="#ccc" fill="#ccc" fill-opacity="0.5"/>
      <circle cx="240.0" cy="369.0" r="0.7" stroke="#cccccc" fill="#cccccc" fill-opacity="0.5"/>
      <circle cx="240.0" cy="423.0" r="0.7" stroke="#cccccc" fill="#cccccc" fill-opacity="0.5"/>
      <circle cx="240.0" cy="477.0" r="0.0" stroke="#080" fill="#080" fill-opacity="0.5"/>
      <circle cx="240.0" cy="531.0" r="0.0" stroke="#08f" fill="#08f" fill-opacity="0.5"/>
      <circle cx="240.0" cy="585.0" r="0.0" stroke="#cccccc" fill="#cccccc" fill-opacity="0.5"/>
      <circle cx="240.0" cy="639.0" r="0.0" stroke="#f08" fill="#f08" fill-opacity="0.5"/>
      <circle cx="240.0" cy="693.0" r="0.0" stroke="#cccccc" fill="#cccccc" fill-opacity="0.5"/>
      <circle cx="240.0" cy="747.0" r="0.0" stroke="#f80" fill="#f80" fill-opacity="0.5"/>
      <circle cx="240.0" cy="801.0" r="0.0" stroke="#888" fill="#fff"/>
    </g>
    <g>
      <text x="320.0" y="179.99999999999997" text-anchor="middle" dominant-baseline="middle" font-size="18.0" font-family="P22 Johnston" fill="black">10-14</text>
      <circle cx="320.0" cy="261.0" r="5.143928459844674" stroke="#ccc" fill="#ccc" fill-opacity="0.5"/>
      <circle cx="320.0" cy="315.0" r="4.315089802078283" stroke="#00f" fill="#00f" fill-opacity="0.5"/>
      <circle cx="320.0" cy="369.0" r="0.0" stroke="#080" fill="#080" fill-opacity="0.5"/>
      <circle cx="320.0" cy="423.0" r="0.0" stroke="#08f" fill="#08f" fill-opacity="0.5"/>
      <circle cx="320.0" cy="477.0" r="0.0" stroke="#cccccc" fill="#cccccc" fill-opacity="0.5"/>
      <circle cx="320.0" cy="531.0" r="0.0" stroke="#f08" fill="#f08" fill-opacity="0.5"/>
      <circle cx="320.0" cy="585.0" r="0.0" stroke="#cccccc" fill="#cccccc" fill-opacity="0.5"/>
      <circle cx="320.0" cy="639.0" r="0.0" stroke="#f80" fill="#f80" fill-opacity="0.5"/>
      <circle cx="320.0" cy="693.0" r="0.0" stroke="#cccccc" fill="#cccccc" fill-opacity="0.5"/>
      <circle cx="320.0" cy="747.0" r="0.0" stroke="#cccccc" fill="#cccccc" fill-opacity="0.5"/>
      <circle cx="320.0" cy="801.0" r="0.0" stroke="#888" fill="#fff"/>
    </g>
    <g>
      <text x="400.0" y="179.99999999999997" text-anchor="middle" dominant-baseline="middle" font-size="18.0" font-family="P22 Johnston" fill="black">15-19</text>
      <circle cx="400.0" cy="261.0" r="5.898304841223451" stroke="#ccc" fill="#ccc" fill-opacity="0.5"/>
      <circle cx="400.0" cy="315.0" r="4.536518488885502" stroke="#00f" fill="#00f" fill-opacity="0.5"/>
      <circle cx="400.0" cy="369.0" r="1.212435565298214" stroke="#cccccc" fill="#cccccc" fill-opacity="0.5"/>
      <circle cx="400.0" cy="423.0" r="0.7" stroke="#cccccc" fill="#cccccc" fill-opacity="0.5"/>
      <circle cx="400.0" cy="477.0" r="0.7" stroke="#cccccc" fill="#cccccc" fill-opacity="0.5"/>
      <circle cx="400.0" cy="531.0" r="0.0" stroke="#080" fill="#080" fill-opacity="0.5"/>
      <circle cx="400.0" cy="585.0" r="0.0" stroke="#08f" fill="#08f" fill-opacity="0.5"/>
      <circle cx="400.0" cy="639.0" r="0.0" stroke="#cccccc" fill="#cccccc" fill-opacity="0.5"/>
      <circle cx="400.0" cy="693.0" r="0.0" stroke="#f08" fill="#f08" fill-opacity="0.5"/>
      <circle cx="400.0" cy="747.0" r="0.0" stroke="#cccccc" fill="#cccccc" fill-opacity="0.5"/>
      <circle cx="400.0" cy="801.0" r="0.0" stroke="#888" fill="#fff"/>
    </g>
    <g>
      <text x="480.0" y="179.99999999999997" text-anchor="middle" dominant-baseline="middle" font-size="18.0" font-family="P22 Johnston" fill="black">20-24</text>
      <circle cx="480.0" cy="261.0" r="7.104224095564553" stroke="#ccc" fill="#ccc" fill-opacity="0.5"/>
      <circle cx="480.0" cy="315.0" r="3.207802986469088" stroke="#00f" fill="#00f" fill-opacity="0.5"/>
      <circle cx="480.0" cy="369.0" r="0.7" stroke="#cccccc" fill="#cccccc" fill-opacity="0.5"/>
      <circle cx="480.0" cy="423.0" r="0.7" stroke="#cccccc" fill="#cccccc" fill-opacity="0.5"/>
      <circle cx="480.0" cy="477.0" r="0.0" stroke="#080" fill="#080" fill-opacity="0.5"/>
      <circle cx="480.0" cy="531.0" r="0.0" stroke="#08f" fill="#08f" fill-opacity="0.5"/>
      <circle cx="480.0" cy="585.0" r="0.0" stroke="#cccccc" fill="#cccccc" fill-opacity="0.5"/>
      <circle cx="480.0" cy="639.0" r="0.0" stroke="#f08" fill="#f08" fill-opacity="0.5"/>
      <circle cx="480.0" cy="693.0" r="0.0" stroke="#cccccc" fill="#cccccc" fill-opacity="0.5"/>
      <circle cx="480.0" cy="747.0" r="0.0" stroke="#f80" fill="#f80" fill-opacity="0.5"/>
      <circle cx="480.0" cy="801.0" r="0.0" stroke="#888" fill="#fff"/>
    </g>
    <g>
      <text x="560.0" y="179.99999999999997" text-anchor="middle" dominant-baseline="middle" font-size="18.0" font-family="P22 Johnston" fill="black">25-29</text>
      <circle cx="560.0" cy="261.0" r="7.636098480244999" stroke="#ccc" fill="#ccc" fill-opacity="0.5"/>
      <circle cx="560.0" cy="315.0" r="2.969848480983499" stroke="#00f" fill="#00f" fill-opacity="0.5"/>
      <circle cx="560.0" cy="369.0" r="0.9899494936611666" stroke="#cccccc" fill="#cccccc" fill-opacity="0.5"/>
      <circle cx="560.0" cy="423.0" r="0.0" stroke="#080" fill="#080" fill-opacity="0.5"/>
      <circle cx="560.0" cy="477.0" r="0.0" stroke="#08f" fill="#08f" fill-opacity="0.5"/>
      <circle cx="560.0" cy="531.0" r="0.0" stroke="#cccccc" fill="#cccccc" fill-opacity="0.5"/>
      <circle cx="560.0" cy="585.0" r="0.0" stroke="#f08" fill="#f08" fill-opacity="0.5"/>
      <circle cx="560.0" cy="639.0" r="0.0" stroke="#cccccc" fill="#cccccc" fill-opacity="0.5"/>
      <circle cx="560.0" cy="693.0" r="0.0" stroke="#f80" fill="#f80" fill-opacity="0.5"/>
      <circle cx="560.0" cy="747.0" r="0.0" stroke="#cccccc" fill="#cccccc" fill-opacity="0.5"/>
      <circle cx="560.0" cy="801.0" r="0.0" stroke="#888" fill="#fff"/>
    </g>
    <g>
      <text x="640.0" y="179.99999999999997" text-anchor="middle" dominant-baseline="middle" font-size="18.0" font-family="P22 Johnston" fill="black">30-34</text>
      <circle cx="640.0" cy="261.0" r="7.2069410986909" stroke="#ccc" fill="#ccc" fill-opacity="0.5"/>
      <circle cx="640.0" cy="315.0" r="2.711088342345192" stroke="#00f" fill="#00f" fill-opacity="0.5"/>
      <circle cx="640.0" cy="369.0" r="0.9899494936611666" stroke="#cccccc" fill="#cccccc" fill-opacity="0.5"/>
      <circle cx="640.0" cy="423.0" r="0.0" stroke="#080" fill="#080" fill-opacity="0.5"/>
      <circle cx="640.0" cy="477.0" r="0.0" stroke="#08f" fill="#08f" fill-opacity="0.5"/>
      <circle cx="640.0" cy="531.0" r="0.0" stroke="#cccccc" fill="#cccccc" fill-opacity="0.5"/>
      <circle cx="640.0" cy="585.0" r="0.0" stroke="#f08" fill="#f08" fill-opacity="0.5"/>
      <circle cx="640.0" cy="639.0" r="0.0" stroke="#cccccc" fill="#cccccc" fill-opacity="0.5"/>
      <circle cx="640.0" cy="693.0" r="0.0" stroke="#f80" fill="#f80" fill-opacity="0.5"/>
      <circle cx="640.0" cy="747.0" r="0.0" stroke="#cccccc" fill="#cccccc" fill-opacity="0.5"/>
      <circle cx="640.0" cy="801.0" r="0.0" stroke="#888" fill="#fff"/>
    </g>
    <g>
      <text x="720.0" y="179.99999999999997" text-anchor="middle" dominant-baseline="middle" font-size="18.0" font-family="P22 Johnston" fill="black">35-39</text>
      <circle cx="720.0" cy="261.0" r="8.193289937503737" stroke="#ccc" fill="#ccc" fill-opacity="0.5"/>
      <circle cx="720.0" cy="315.0" r="2.424871130596428" stroke="#00f" fill="#00f" fill-opacity="0.5"/>
      <circle cx="720.0" cy="369.0" r="0.9899494936611666" stroke="#cccccc" fill="#cccccc" fill-opacity="0.5"/>
      <circle cx="720.0" cy="423.0" r="0.7" stroke="#cccccc" fill="#cccccc" fill-opacity="0.5"/>
      <circle cx="720.0" cy="477.0" r="0.7" stroke="#cccccc" fill="#cccccc" fill-opacity="0.5"/>
      <circle cx="720.0" cy="531.0" r="0.0" stroke="#080" fill="#080" fill-opacity="0.5"/>
      <circle cx="720.0" cy="585.0" r="0.0" stroke="#08f" fill="#08f" fill-opacity="0.5"/>
      <circle cx="720.0" cy="639.0" r="0.0" stroke="#cccccc" fill="#cccccc" fill-opacity="0.5"/>
      <circle cx="720.0" cy="693.0" r="0.0" stroke="#f08" fill="#f08" fill-opacity="0.5"/>
      <circle cx="720.0" cy="747.0" r="0.0" stroke="#cccccc" fill="#cccccc" fill-opacity="0.5"/>
      <circle cx="720.0" cy="801.0" r="0.0" stroke="#888" fill="#fff"/>
    </g>
    <g>
      <text x="800.0" y="179.99999999999997" text-anchor="middle" dominant-baseline="middle" font-size="18.0" font-family="P22 Johnston" fill="black">40-44</text>
      <circle cx="800.0" cy="261.0" r="8.937001734362592" stroke="#ccc" fill="#ccc" fill-opacity="0.5"/>
      <circle cx="800.0" cy="315.0" r="2.5238858928247923" stroke="#00f" fill="#00f" fill-opacity="0.5"/>
      <circle cx="800.0" cy="369.0" r="1.5652475842498528" stroke="#cccccc" fill="#cccccc" fill-opacity="0.5"/>
      <circle cx="800.0" cy="423.0" r="0.7" stroke="#cccccc" fill="#cccccc" fill-opacity="0.5"/>
      <circle cx="800.0" cy="477.0" r="0.7" stroke="#cccccc" fill="#cccccc" fill-opacity="0.5"/>
      <circle cx="800.0" cy="531.0" r="0.0" stroke="#080" fill="#080" fill-opacity="0.5"/>
      <circle cx="800.0" cy="585.0" r="0.0" stroke="#08f" fill="#08f" fill-opacity="0.5"/>
      <circle cx="800.0" cy="639.0" r="0.0" stroke="#cccccc" fill="#cccccc" fill-opacity="0.5"/>
      <circle cx="800.0" cy="693.0" r="0.0" stroke="#f08" fill="#f08" fill-opacity="0.5"/>
      <circle cx="800.0" cy="747.0" r="0.0" stroke="#cccccc" fill="#cccccc" fill-opacity="0.5"/>
      <circle cx="800.0" cy="801.0" r="0.0" stroke="#888" fill="#fff"/>
    </g>
    <g>
      <text x="880.0000000000001" y="179.99999999999997" text-anchor="middle" dominant-baseline="middle" font-size="18.0" font-family="P22 Johnston" fill="black">45-49</text>
      <circle cx="880.0000000000001" cy="261.0" r="10.639078907499464" stroke="#ccc" fill="#ccc" fill-opacity="0.5"/>
      <circle cx="880.0000000000001" cy="315.0" r="2.424871130596428" stroke="#00f" fill="#00f" fill-opacity="0.5"/>
      <circle cx="880.0000000000001" cy="369.0" r="1.7146428199482244" stroke="#cccccc" fill="#cccccc" fill-opacity="0.5"/>
      <circle cx="880.0000000000001" cy="423.0" r="1.5652475842498528" stroke="#cccccc" fill="#cccccc" fill-opacity="0.5"/>
      <circle cx="880.0000000000001" cy="477.0" r="0.0" stroke="#080" fill="#080" fill-opacity="0.5"/>
      <circle cx="880.0000000000001" cy="531.0" r="0.0" stroke="#08f" fill="#08f" fill-opacity="0.5"/>
      <circle cx="880.0000000000001" cy="585.0" r="0.0" stroke="#cccccc" fill="#cccccc" fill-opacity="0.5"/>
      <circle cx="880.0000000000001" cy="639.0" r="0.0" stroke="#f08" fill="#f08" fill-opacity="0.5"/>
      <circle cx="880.0000000000001" cy="693.0" r="0.0" stroke="#cccccc" fill="#cccccc" fill-opacity="0.5"/>
      <circle cx="880.0000000000001" cy="747.0" r="0.0" stroke="#f80" fill="#f80" fill-opacity="0.5"/>
      <circle cx="880.0000000000001" cy="801.0" r="0.0" stroke="#888" fill="#fff"/>
    </g>
    <g>
      <text x="960.0" y="179.99999999999997" text-anchor="middle" dominant-baseline="middle" font-size="18.0" font-family="P22 Johnston" fill="black">50-54</text>
      <circle cx="960.0" cy="261.0" r="11.879393923933996" stroke="#ccc" fill="#ccc" fill-opacity="0.5"/>
      <circle cx="960.0" cy="315.0" r="2.5238858928247923" stroke="#00f" fill="#00f" fill-opacity="0.5"/>
      <circle cx="960.0" cy="369.0" r="2.0999999999999996" stroke="#cccccc" fill="#cccccc" fill-opacity="0.5"/>
      <circle cx="960.0" cy="423.0" r="1.9798989873223332" stroke="#cccccc" fill="#cccccc" fill-opacity="0.5"/>
      <circle cx="960.0" cy="477.0" r="1.212435565298214" stroke="#cccccc" fill="#cccccc" fill-opacity="0.5"/>
      <circle cx="960.0" cy="531.0" r="0.0" stroke="#080" fill="#080" fill-opacity="0.5"/>
      <circle cx="960.0" cy="585.0" r="0.0" stroke="#08f" fill="#08f" fill-opacity="0.5"/>
      <circle cx="960.0" cy="639.0" r="0.0" stroke="#cccccc" fill="#cccccc" fill-opacity="0.5"/>
      <circle cx="960.0" cy="693.0" r="0.0" stroke="#f08" fill="#f08" fill-opacity="0.5"/>
      <circle cx="960.0" cy="747.0" r="0.0" stroke="#cccccc" fill="#cccccc" fill-opacity="0.5"/>
      <circle cx="960.0" cy="801.0" r="0.0" stroke="#888" fill="#fff"/>
    </g>
    <g>
      <text x="1040.0" y="179.99999999999997" text-anchor="middle" dominant-baseline="middle" font-size="18.0" font-family="P22 Johnston" fill="black">55-59</text>
      <circle cx="1040.0" cy="261.0" r="14.464784823840276" stroke="#ccc" fill="#ccc" fill-opacity="0.5"/>
      <circle cx="1040.0" cy="315.0" r="2.5238858928247923" stroke="#00f" fill="#00f" fill-opacity="0.5"/>
      <circle cx="1040.0" cy="369.0" r="2.2135943621178655" stroke="#cccccc" fill="#cccccc" fill-opacity="0.5"/>
      <circle cx="1040.0" cy="423.0" r="2.2135943621178655" stroke="#cccccc" fill="#cccccc" fill-opacity="0.5"/>
      <circle cx="1040.0" cy="477.0" r="0.0" stroke="#080" fill="#080" fill-opacity="0.5"/>
      <circle cx="1040.0" cy="531.0" r="0.0" stroke="#08f" fill="#08f" fill-opacity="0.5"/>
      <circle cx="1040.0" cy="585.0" r="0.0" stroke="#cccccc" fill="#cccccc" fill-opacity="0.5"/>
      <circle cx="1040.0" cy="639.0" r="0.0" stroke="#f08" fill="#f08" fill-opacity="0.5"/>
      <circle cx="1040.0" cy="693.0" r="0.0" stroke="#cccccc" fill="#cccccc" fill-opacity="0.5"/>
      <circle cx="1040.0" cy="747.0" r="0.0" stroke="#f80" fill="#f80" fill-opacity="0.5"/>
      <circle cx="1040.0" cy="801.0" r="0.0" stroke="#888" fill="#fff"/>
    </g>
    <g>
      <text x="1120.0" y="179.99999999999997" text-anchor="middle" dominant-baseline="middle" font-size="18.0" font-family="P22 Johnston" fill="black">60-64</text>
      <circle cx="1120.0" cy="261.0" r="16.446276174259022" stroke="#ccc" fill="#ccc" fill-opacity="0.5"/>
      <circle cx="1120.0" cy="315.0" r="2.711088342345192" stroke="#cccccc" fill="#cccccc" fill-opacity="0.5"/>
      <circle cx="1120.0" cy="369.0" r="2.5238858928247923" stroke="#cccccc" fill="#cccccc" fill-opacity="0.5"/>
      <circle cx="1120.0" cy="423.0" r="0.9899494936611666" stroke="#00f" fill="#00f" fill-opacity="0.5"/>
      <circle cx="1120.0" cy="477.0" r="0.0" stroke="#080" fill="#080" fill-opacity="0.5"/>
      <circle cx="1120.0" cy="531.0" r="0.0" stroke="#08f" fill="#08f" fill-opacity="0.5"/>
      <circle cx="1120.0" cy="585.0" r="0.0" stroke="#cccccc" fill="#cccccc" fill-opacity="0.5"/>
      <circle cx="1120.0" cy="639.0" r="0.0" stroke="#f08" fill="#f08" fill-opacity="0.5"/>
      <circle cx="1120.0" cy="693.0" r="0.0" stroke="#cccccc" fill="#cccccc" fill-opacity="0.5"/>
      <circle cx="1120.0" cy="747.0" r="0.0" stroke="#f80" fill="#f80" fill-opacity="0.5"/>
      <circle cx="1120.0" cy="801.0" r="0.0" stroke="#888" fill="#fff"/>
    </g>
    <g>
      <text x="1200.0" y="179.99999999999997" text-anchor="middle" dominant-baseline="middle" font-size="18.0" font-family="P22 Johnston" fill="black">65-69</text>
      <circle cx="1200.0" cy="261.0" r="22.65016556230881" stroke="#ccc" fill="#ccc" fill-opacity="0.5"/>
      <circle cx="1200.0" cy="315.0" r="3.429285639896449" stroke="#cccccc" fill="#cccccc" fill-opacity="0.5"/>
      <circle cx="1200.0" cy="369.0" r="2.619160170741759" stroke="#cccccc" fill="#cccccc" fill-opacity="0.5"/>
      <circle cx="1200.0" cy="423.0" r="2.5238858928247923" stroke="#00f" fill="#00f" fill-opacity="0.5"/>
      <circle cx="1200.0" cy="477.0" r="1.212435565298214" stroke="#cccccc" fill="#cccccc" fill-opacity="0.5"/>
      <circle cx="1200.0" cy="531.0" r="0.0" stroke="#080" fill="#080" fill-opacity="0.5"/>
      <circle cx="1200.0" cy="585.0" r="0.0" stroke="#08f" fill="#08f" fill-opacity="0.5"/>
      <circle cx="1200.0" cy="639.0" r="0.0" stroke="#cccccc" fill="#cccccc" fill-opacity="0.5"/>
      <circle cx="1200.0" cy="693.0" r="0.0" stroke="#f08" fill="#f08" fill-opacity="0.5"/>
      <circle cx="1200.0" cy="747.0" r="0.0" stroke="#cccccc" fill="#cccccc" fill-opacity="0.5"/>
      <circle cx="1200.0" cy="801.0" r="0.0" stroke="#888" fill="#fff"/>
    </g>
    <g>
      <text x="1280.0" y="179.99999999999997" text-anchor="middle" dominant-baseline="middle" font-size="18.0" font-family="P22 Johnston" fill="black">70-74</text>
      <circle cx="1280.0" cy="261.0" r="32.1314487690798" stroke="#ccc" fill="#ccc" fill-opacity="0.5"/>
      <circle cx="1280.0" cy="315.0" r="3.9597979746446663" stroke="#cccccc" fill="#cccccc" fill-opacity="0.5"/>
      <circle cx="1280.0" cy="369.0" r="3.207802986469088" stroke="#cccccc" fill="#cccccc" fill-opacity="0.5"/>
      <circle cx="1280.0" cy="423.0" r="1.212435565298214" stroke="#cccccc" fill="#cccccc" fill-opacity="0.5"/>
      <circle cx="1280.0" cy="477.0" r="1.212435565298214" stroke="#00f" fill="#00f" fill-opacity="0.5"/>
      <circle cx="1280.0" cy="531.0" r="0.0" stroke="#080" fill="#080" fill-opacity="0.5"/>
      <circle cx="1280.0" cy="585.0" r="0.0" stroke="#08f" fill="#08f" fill-opacity="0.5"/>
      <circle cx="1280.0" cy="639.0" r="0.0" stroke="#cccccc" fill="#cccccc" fill-opacity="0.5"/>
      <circle cx="1280.0" cy="693.0" r="0.0" stroke="#f08" fill="#f08" fill-opacity="0.5"/>
      <circle cx="1280.0" cy="747.0" r="0.0" stroke="#cccccc" fill="#cccccc" fill-opacity="0.5"/>
      <circle cx="1280.0" cy="801.0" r="0.0" stroke="#888" fill="#fff"/>
    </g>
    <g>
      <text x="1360.0" y="179.99999999999997" text-anchor="middle" dominant-baseline="middle" font-size="18.0" font-family="P22 Johnston" fill="black">75-79</text>
      <circle cx="1360.0" cy="261.0" r="36.09584463619046" stroke="#ccc" fill="#ccc" fill-opacity="0.5"/>
      <circle cx="1360.0" cy="315.0" r="4.08166632639171" stroke="#cccccc" fill="#cccccc" fill-opacity="0.5"/>
      <circle cx="1360.0" cy="369.0" r="2.8" stroke="#cccccc" fill="#cccccc" fill-opacity="0.5"/>
      <circle cx="1360.0" cy="423.0" r="1.5652475842498528" stroke="#00f" fill="#00f" fill-opacity="0.5"/>
      <circle cx="1360.0" cy="477.0" r="1.4" stroke="#cccccc" fill="#cccccc" fill-opacity="0.5"/>
      <circle cx="1360.0" cy="531.0" r="0.0" stroke="#080" fill="#080" fill-opacity="0.5"/>
      <circle cx="1360.0" cy="585.0" r="0.0" stroke="#08f" fill="#08f" fill-opacity="0.5"/>
      <circle cx="1360.0" cy="639.0" r="0.0" stroke="#cccccc" fill="#cccccc" fill-opacity="0.5"/>
      <circle cx="1360.0" cy="693.0" r="0.0" stroke="#f08" fill="#f08" fill-opacity="0.5"/>
      <circle cx="1360.0" cy="747.0" r="0.0" stroke="#cccccc" fill="#cccccc" fill-opacity="0.5"/>
      <circle cx="1360.0" cy="801.0" r="0.0" stroke="#888" fill="#fff"/>
    </g>
    <g>
      <text x="1440.0" y="179.99999999999997" text-anchor="middle" dominant-baseline="middle" font-size="18.0" font-family="P22 Johnston" fill="black">80-84</text>
      <circle cx="1440.0" cy="261.0" r="43.910704845174145" stroke="#ccc" fill="#ccc" fill-opacity="0.5"/>
      <circle cx="1440.0" cy="315.0" r="4.536518488885502" stroke="#cccccc" fill="#cccccc" fill-opacity="0.5"/>
      <circle cx="1440.0" cy="369.0" r="3.1304951684997055" stroke="#cccccc" fill="#cccccc" fill-opacity="0.5"/>
      <circle cx="1440.0" cy="423.0" r="1.8520259177452134" stroke="#cccccc" fill="#cccccc" fill-opacity="0.5"/>
      <circle cx="1440.0" cy="477.0" r="0.7" stroke="#00f" fill="#00f" fill-opacity="0.5"/>
      <circle cx="1440.0" cy="531.0" r="0.0" stroke="#080" fill="#080" fill-opacity="0.5"/>
      <circle cx="1440.0" cy="585.0" r="0.0" stroke="#08f" fill="#08f" fill-opacity="0.5"/>
      <circle cx="1440.0" cy="639.0" r="0.0" stroke="#cccccc" fill="#cccccc" fill-opacity="0.5"/>
      <circle cx="1440.0" cy="693.0" r="0.0" stroke="#f08" fill="#f08" fill-opacity="0.5"/>
      <circle cx="1440.0" cy="747.0" r="0.0" stroke="#cccccc" fill="#cccccc" fill-opacity="0.5"/>
      <circle cx="1440.0" cy="801.0" r="0.0" stroke="#888" fill="#fff"/>
    </g>
    <g>
      <text x="1520.0" y="179.99999999999997" text-anchor="middle" dominant-baseline="middle" font-size="18.0" font-family="P22 Johnston" fill="black">85-120</text>
      <circle cx="1520.0" cy="261.0" r="113.93454261109751" stroke="#ccc" fill="#ccc" fill-opacity="0.5"/>
      <text x="1520.0" y="261.0" text-anchor="middle" dominant-baseline="middle" font-size="18.0" font-family="P22 Johnston" fill="black">Unspecified</text>
      <circle cx="1520.0" cy="315.0" r="35.754859809541976" stroke="#008" fill="#008" fill-opacity="0.5"/>
      <text x="1520.0" y="315.0" text-anchor="middle" dominant-baseline="middle" font-size="18.0" font-family="P22 Johnston" fill="black">Newborn</text>
      <circle cx="1520.0" cy="369.0" r="23.447387914221913" stroke="#00f" fill="#00f" fill-opacity="0.5"/>
      <text x="1520.0" y="369.0" text-anchor="middle" dominant-baseline="middle" font-size="18.0" font-family="P22 Johnston" fill="black">Birth Defects</text>
      <circle cx="1520.0" cy="423.0" r="10.844353369380768" stroke="#cccccc" fill="#cccccc" fill-opacity="0.5"/>
      <text x="1520.0" y="423.0" text-anchor="middle" dominant-baseline="middle" font-size="18.0" font-family="P22 Johnston" fill="black">Bone</text>
      <circle cx="1520.0" cy="477.0" r="8.252878285786116" stroke="#cccccc" fill="#cccccc" fill-opacity="0.5"/>
      <text x="1520.0" y="477.0" text-anchor="middle" dominant-baseline="middle" font-size="18.0" font-family="P22 Johnston" fill="black">Skin</text>
      <circle cx="1520.0" cy="531.0" r="3.9597979746446663" stroke="#cccccc" fill="#cccccc" fill-opacity="0.5"/>
      <text x="1520.0" y="531.0" text-anchor="middle" dominant-baseline="middle" font-size="18.0" font-family="P22 Johnston" fill="black">Eye</text>
      <circle cx="1520.0" cy="585.0" r="0.0" stroke="#080" fill="#080" fill-opacity="0.5"/>
      <circle cx="1520.0" cy="639.0" r="0.0" stroke="#08f" fill="#08f" fill-opacity="0.5"/>
      <circle cx="1520.0" cy="693.0" r="0.0" stroke="#cccccc" fill="#cccccc" fill-opacity="0.5"/>
      <circle cx="1520.0" cy="747.0" r="0.0" stroke="#f08" fill="#f08" fill-opacity="0.5"/>
      <circle cx="1520.0" cy="801.0" r="0.0" stroke="#888" fill="#fff"/>
    </g>
  </g>
  <g>
    <text x="800.0" y="855.0" text-anchor="middle" dominant-baseline="middle" font-size="12" font-family="P22 Johnston" fill="#888">Data by The Department of Census and Statistics, Sri Lanka | Visualization by @nuuuwan</text>
  </g>
</svg>
